<svg version="1.1" xmlns="http://www.w3.org/2000/svg" xmlns:xlink="http://www.w3.org/1999/xlink" width="176.73101" height="160.43851" viewBox="0,0,176.73101,160.43851"><g transform="translate(-176.43014,-59.46203)"><g data-paper-data="{&quot;isPaintingLayer&quot;:true}" fill="#9966ff" fill-rule="nonzero" stroke="none" stroke-width="0.5" stroke-linecap="butt" stroke-linejoin="miter" stroke-miterlimit="10" stroke-dasharray="" stroke-dashoffset="0" style="mix-blend-mode: normal"><path d="M251.27806,214.93733c1.11803,-2.23607 3.3541,-1.11803 3.3541,-1.11803l2.25006,1.20538c1.38637,-0.04642 2.77273,-0.09284 4.1591,-0.13927c4.42855,-0.55403 9.31298,-1.13889 13.55947,-2.595c6.84857,-2.34836 13.57272,-6.50577 20.03927,-9.73458c10.4069,-5.19626 20.81115,-10.12567 30.70533,-16.25012c5.65204,-3.49859 10.98155,-7.65284 16.72208,-10.98368c2.19276,-1.27231 4.55223,-2.48516 6.18749,-4.4224c-0.18568,-3.16442 -1.23151,-3.47675 -4.08859,-5.63288c-4.36671,-3.2954 -8.97709,-6.90626 -13.871,-9.34732c-13.03812,-6.50337 -26.901,-12.93462 -40.94255,-16.98333c-4.52442,-1.30456 -9.76263,-1.27213 -14.16538,-2.70407c-0.92631,-0.00001 -1.66459,-0.0005 -1.97189,-0.0005c-1.33666,0 -2.81449,0 -2.81449,0c-1.38071,0 -2.5,-1.11929 -2.5,-2.5c0,-1.38071 1.11929,-2.5 2.5,-2.5l4.92536,0v0.03496c0.05153,-0.01081 0.10331,-0.02086 0.15534,-0.03013c1.04077,-0.18539 2.09644,-0.0247 3.14911,0.20066c0.88042,0.00335 1.75743,-0.03916 2.6277,-0.17321c2.66505,-0.41049 5.1235,-1.68746 7.71474,-2.43343c9.20784,-2.65077 18.20338,-6.71642 25.28869,-13.24763c3.68922,-3.38033 7.04899,-7.17024 10.79087,-10.47752c0.81287,-0.71846 3.26282,-1.72607 3.3806,-3.35902c0.13971,-1.93691 -2.0087,-4.71052 -2.93406,-5.78701c-2.87486,-3.34443 -6.77236,-6.03571 -10.40394,-8.44865c-6.81098,-4.52543 -14.62777,-6.83077 -22.32633,-9.4788c-8.69107,-2.98942 -17.86505,-6.39977 -26.9528,-7.81896c-11.17269,-1.76411 -22.13626,-1.59663 -33.40139,-2.28654c-17.78069,-1.08894 -35.65517,-3.47062 -53.48482,-3.46423c0,0 -2.5,0 -2.5,-2.5c0,-2.5 2.5,-2.5 2.5,-2.5c17.9341,0.00617 35.90587,2.37828 53.79046,3.47358c11.42599,0.69976 22.53979,0.54852 33.87556,2.33837c9.38403,1.49645 18.81897,4.94174 27.79906,8.02958c9.79844,3.36923 19.49781,6.46021 27.78513,12.91639c4.59735,3.58153 11.99327,9.49308 11.2114,16.17086c-0.47092,4.02206 -2.54707,4.24335 -5.06287,6.4917c-3.69327,3.30064 -7.03032,7.03276 -10.6886,10.38633c-7.71618,7.03516 -17.29642,11.48039 -27.2813,14.3657c-0.30183,0.08722 -0.60218,0.18053 -0.90147,0.27814c2.06907,0.59257 4.11658,1.26245 6.14524,2.01132c14.81754,5.46984 30.64737,10.59186 43.6509,19.7572c4.42602,3.11962 12.68474,6.85279 13.80548,12.71033c0.26084,1.36328 -0.05734,2.77542 -0.08601,4.16314c-1.20062,1.54492 -2.10738,3.37192 -3.60187,4.63476c-1.36859,1.15646 -3.23842,1.54459 -4.7839,2.4512c-5.69133,3.33865 -10.99138,7.43781 -16.61018,10.91641c-10.02441,6.20611 -20.56013,11.20775 -31.10351,16.47216c-6.67178,3.33128 -13.58637,7.56841 -20.65107,9.99088c-4.66102,1.59826 -9.96876,2.24589 -14.82801,2.85284c-1.87318,0.00921 -3.74637,0.01842 -5.61955,0.02763l-3.37892,-1.60911c0,0 -2.23607,-1.11803 -1.11803,-3.3541z"/></g></g></svg>