<svg version="1.1" xmlns="http://www.w3.org/2000/svg" xmlns:xlink="http://www.w3.org/1999/xlink" width="113.12855" height="227.61866" viewBox="0,0,113.12855,227.61866"><g transform="translate(-163.67355,-25.49907)"><g data-paper-data="{&quot;isPaintingLayer&quot;:true}" fill="#9966ff" fill-rule="nonzero" stroke="none" stroke-width="0.5" stroke-linecap="butt" stroke-linejoin="miter" stroke-miterlimit="10" stroke-dasharray="" stroke-dashoffset="0" style="mix-blend-mode: normal"><path d="M215.96224,176.96948c0,2.5 -2.5,2.5 -2.5,2.5h-0.40026c-13.54363,-0.02472 -26.92129,2.81574 -40.45235,3.42635l0.01591,0.04772l-2.34621,0.78207c-0.2642,0.09499 -0.54902,0.14675 -0.84593,0.14675c-1.38071,0 -2.5,-1.11929 -2.5,-2.5c0,-0.41989 0.10352,-0.81561 0.28642,-1.16302l1.14335,-2.28671c2.16819,-5.42958 3.96231,-10.91366 6.15155,-16.32703c3.75425,-8.16646 7.84429,-16.22788 11.44268,-24.45833c3.56482,-8.15369 6.14601,-16.60061 9.17998,-24.93237c1.8221,-5.00378 4.22806,-9.91223 5.58421,-15.08213c1.72394,-6.572 2.53569,-13.14567 3.86101,-19.76785c1.07591,-12.85313 -1.39629,-26.7785 -13.53728,-33.48257c-2.01828,-1.11446 -5.94959,-3.41318 -8.56213,-2.5771c-0.85786,0.27454 -1.50186,1.0024 -2.30486,1.41044c-4.48027,2.27667 -8.44641,3.77773 -12.3853,6.93125c0,0 -1.95217,1.56174 -3.51391,-0.39043c-1.56174,-1.95217 0.39043,-3.51391 0.39043,-3.51391c4.19557,-3.35403 8.44446,-5.11977 13.23148,-7.47819c1.12249,-0.55301 2.08931,-1.47088 3.29881,-1.79166c4.15623,-1.10227 8.78029,1.12388 12.25151,3.02657c14.10627,7.73211 17.32163,23.6317 16.08213,38.56464c-1.36524,6.83071 -2.20292,13.62049 -3.99126,20.39599c-1.39938,5.30185 -3.83531,10.33346 -5.70701,15.46675c-3.07424,8.43134 -5.6909,16.98294 -9.30118,25.2341c-3.59662,8.21994 -7.67884,16.27215 -11.4296,24.42834c-1.85052,4.55975 -3.41404,9.18038 -5.15959,13.77194c2.0605,-0.32942 4.84606,0.07122 6.47891,-0.07034c10.84038,-0.93977 21.73611,-2.79346 32.63822,-2.81127h0.40026c0,0 2.5,0 2.5,2.5z"/><path d="M274.30211,253.11773c-2.5,0 -2.5,-2.5 -2.5,-2.5l0.00012,-0.77624c-0.17448,-18.07646 -0.78809,-36.1715 -1.13574,-54.24957c-0.65819,-34.22572 -1.47046,-68.44351 -2.35354,-102.66415c-0.38625,-14.9679 -1.44597,-29.90466 -2.33678,-44.85042c-0.19587,-3.28622 -0.22611,-6.58636 -0.58454,-9.85883c-0.13552,-1.23734 -0.67469,-2.95784 -0.76474,-4.61354c-0.14385,0.16212 -0.28714,0.3234 -0.4251,0.48576c-2.34985,2.7654 -5.24963,4.84536 -7.61439,7.61602c0,0 -1.62698,1.89814 -3.52512,0.27116c-1.89814,-1.62698 -0.27116,-3.52512 -0.27116,-3.52512c2.36458,-2.7481 5.2772,-4.84188 7.59557,-7.59394c0.76898,-0.91283 1.13945,-2.18777 2.09359,-2.90485c1.38865,-1.04364 3.26689,-3.16961 4.71759,-2.21409c2.02301,1.33248 1.73675,4.5327 2.35755,6.87422c0.86445,3.26057 0.91472,6.8412 1.11441,10.17458c0.99819,16.66226 2.21084,33.32295 2.64146,50.01006c0.88336,34.23159 1.69588,68.46033 2.35428,102.69699c0.34796,18.09405 0.95963,36.20469 1.13643,54.29714l0.00012,0.8248c0,0 0,2.5 -2.5,2.5z"/></g></g></svg>