<svg version="1.1" xmlns="http://www.w3.org/2000/svg" xmlns:xlink="http://www.w3.org/1999/xlink" width="81.37206" height="79.00271" viewBox="0,0,81.37206,79.00271"><g transform="translate(-196.96159,-52.85184)"><g data-paper-data="{&quot;isPaintingLayer&quot;:true}" fill="#9966ff" fill-rule="nonzero" stroke="none" stroke-width="0.5" stroke-linecap="butt" stroke-linejoin="miter" stroke-miterlimit="10" stroke-dasharray="" stroke-dashoffset="0" style="mix-blend-mode: normal"><path d="M207.66439,127.36074c-2.42536,0.60634 -3.0317,-1.81902 -3.0317,-1.81902l-0.4625,-1.95863c-0.73047,-7.38351 -2.57419,-14.65035 -3.22883,-22.0581c-0.42225,-4.77813 -0.10117,-9.65133 -0.55603,-14.43562c-0.60876,-6.40288 -2.24387,-12.63533 -3.39194,-18.94428c0,0 -0.44721,-2.45967 2.01246,-2.90689c2.45967,-0.44721 2.90689,2.01246 2.90689,2.01246c1.17276,6.4559 2.827,12.82741 3.45147,19.37958c0.45658,4.7907 0.13399,9.67052 0.5577,14.45411c0.65446,7.38866 2.47959,14.63573 3.22347,22.00122l0.33803,1.24347c0,0 0.60634,2.42536 -1.81902,3.0317z"/><path d="M246.19372,131.78972c-2.45145,-0.49029 -1.96116,-2.94174 -1.96116,-2.94174l0.52792,-2.43298c1.98268,-4.99715 3.14054,-10.58024 5.3133,-15.44932c0.36178,-0.81074 1.24154,-1.30243 1.65022,-2.09057c1.48263,-2.85925 2.14818,-6.08273 3.49883,-9.00664c2.0725,-4.48659 4.62104,-8.53957 6.48771,-13.14246c2.95494,-7.26999 5.43523,-14.60826 8.03834,-21.99624c0.567,-1.60923 1.20182,-3.19405 1.83693,-4.77763c0.27022,-0.67377 0.45627,-1.40017 0.77303,-2.05063c-1.68794,0.11515 -6.19616,0.40629 -7.12666,0.46663c-10.48453,0.67988 -21.12283,1.65033 -31.60533,0.61c0,0 -2.48759,-0.24876 -2.23883,-2.73635c0.24876,-2.48759 2.73635,-2.23883 2.73635,-2.23883c11.12287,1.12123 22.48811,-0.07425 33.60949,-0.80754c1.35148,-0.08911 8.94014,-0.99916 10.14815,0.56657c1.43003,1.8535 -0.92755,6.23652 -1.66415,8.07274c-3.54175,8.82897 -6.28591,17.9419 -9.87529,26.7739c-1.90302,4.67259 -4.47994,8.80803 -6.58323,13.36222c-0.67014,1.45103 -3.04245,8.11457 -3.70589,9.40543c-0.37523,0.73008 -1.21585,1.16312 -1.55188,1.91205c-2.10485,4.69119 -3.17771,10.14164 -5.09352,14.97061l-0.2726,1.56965c0,0 -0.49029,2.45145 -2.94174,1.96116z"/></g></g></svg>