<svg version="1.1" xmlns="http://www.w3.org/2000/svg" xmlns:xlink="http://www.w3.org/1999/xlink" width="88.81107" height="79.47117" viewBox="0,0,88.81107,79.47117"><g transform="translate(-187.20704,-111.05416)"><g data-paper-data="{&quot;isPaintingLayer&quot;:true}" fill="#9966ff" fill-rule="nonzero" stroke="none" stroke-width="0.5" stroke-linecap="butt" stroke-linejoin="miter" stroke-miterlimit="10" stroke-dasharray="" stroke-dashoffset="0" style="mix-blend-mode: normal"><path d="M194.17186,180.35596c-1.56174,-1.95217 0.39043,-3.51391 0.39043,-3.51391l0.77088,0.29021c0.70055,-5.03518 -1.41962,-10.4978 -2.34285,-15.4548c-2.38152,-12.78682 -4.69248,-25.81831 -5.77905,-38.7783c0,0 -0.20761,-2.49136 2.28375,-2.69898c2.49137,-0.20762 2.69897,2.28375 2.69897,2.28375c1.05903,12.79026 3.36177,25.66037 5.71186,38.27838c1.0456,5.61401 3.04285,11.2782 2.3887,16.99012l-2.6088,2.99395c0,0 -1.95217,1.56173 -3.51391,-0.39043z"/><path d="M275.68071,186.90545c0,2.5 -2.5,2.5 -2.5,2.5l-0.06471,-0.01498c-10.13242,1.11235 -21.44464,1.87506 -31.70428,-0.01778l0,0.37072l-3.37968,0c-1.38071,0 -2.5,-1.11929 -2.5,-2.5c0,-0.87621 0.45077,-1.64714 1.13305,-2.09354l3.27768,-2.21164c9.50369,-6.50357 17.36508,-14.04603 23.79014,-23.65941c3.18126,-4.75989 6.80913,-8.48342 7.28631,-14.33459c-0.20222,-4.15583 -1.0468,-8.14198 -1.34594,-12.27155c-0.17777,-2.45398 0.17867,-4.46724 -0.47568,-6.95785c-0.48154,-1.83282 -7.14036,-4.13433 -8.59736,-4.82882c-3.80375,-1.81307 -9.3223,-5.03632 -13.68084,-4.82162c-3.52465,0.17362 -5.14829,2.0617 -8.16009,3.48135c-1.80739,0.85193 -3.72529,1.5639 -5.3107,2.78002c0,0 -2,1.5 -3.5,-0.5c-1.5,-2 0.5,-3.5 0.5,-3.5c1.88061,-1.38553 4.06601,-2.31016 6.18021,-3.3034c3.67367,-1.72589 5.69446,-3.74948 10.09017,-3.95395c6.46631,-0.30078 13.53957,4.22486 19.11339,7.01279c2.88561,1.44333 6.65706,2.15094 7.95172,5.64266c1.20763,3.25699 0.65877,5.49422 0.87619,8.58867c0.30119,4.28673 1.1518,8.41865 1.3578,12.73807c-0.68935,7.05466 -4.27332,11.25181 -8.12396,17.00026c-6.01366,8.97751 -13.22384,16.24017 -21.73151,22.57844c1.1203,0.12959 2.27296,0.31821 3.36493,0.35321c7.74943,0.24837 15.30147,0.29054 23.04191,-0.56209l0.61123,-0.01498c0,0 2.5,0 2.5,2.5z"/></g></g></svg>