<svg version="1.1" xmlns="http://www.w3.org/2000/svg" xmlns:xlink="http://www.w3.org/1999/xlink" width="118.21447" height="129.14073" viewBox="0,0,118.21447,129.14073"><g transform="translate(-182.54221,-59.19699)"><g data-paper-data="{&quot;isPaintingLayer&quot;:true}" fill="#9966ff" fill-rule="nonzero" stroke="none" stroke-width="0.5" stroke-linecap="butt" stroke-linejoin="miter" stroke-miterlimit="10" stroke-dasharray="" stroke-dashoffset="0" style="mix-blend-mode: normal"><path d="M215.05334,187.74669c-2.37171,0.79057 -3.16228,-1.58114 -3.16228,-1.58114l-0.7936,-2.38111c-2.33864,-6.69132 -3.33759,-13.98924 -4.81021,-20.92987c-5.65574,-26.6628 -14.18075,-52.34373 -23.58948,-77.88168c0,0 -0.86426,-2.34586 1.48159,-3.21012c2.34586,-0.86426 3.21012,1.48159 3.21012,1.48159c9.4913,25.76211 18.08366,51.6764 23.78893,78.57269c1.42655,6.72681 2.3441,13.87666 4.64862,20.34531l0.80745,2.42204c0,0 0.79057,2.37171 -1.58114,3.16228z"/><path d="M283.83248,70.565c-4.59579,-2.87685 -9.00106,-3.45218 -14.36945,-5.31434c-0.64277,-0.22296 -1.07035,-0.95679 -1.74235,-1.063c-1.64365,-0.25977 -3.03192,1.41143 -4.39893,2.3603c-3.31278,2.29948 -7.72658,5.93376 -8.15255,10.26115c-0.55567,5.64503 2.66546,11.08608 4.58487,16.24359c2.66452,4.6383 5.18554,9.60044 8.17063,14.01016c0.53535,0.79084 1.15317,1.44692 1.80265,2.05819c0.16582,-0.88698 0.35107,-1.73814 0.57316,-2.49534c1.00156,-3.41471 3.16772,-5.85082 4.49373,-9.06434c2.62344,-6.3578 4.87845,-12.94028 6.78422,-19.56245c1.28,-2.56001 1.85511,-4.60619 2.25402,-7.43392zM268.73935,114.83044c-1.53246,-1.74823 -3.43502,-2.80539 -4.87086,-4.84403c-3.22332,-4.57654 -5.86269,-9.92391 -8.64039,-14.80872c-2.308,-6.11336 -5.76177,-12.24919 -5.02143,-18.97949c0.64295,-5.845 5.64242,-10.60562 10.25952,-13.75459c1.40308,-0.95693 5.54299,-3.34679 7.60894,-3.24337c1.11217,0.05568 2.00071,0.99762 3.0608,1.33858c6.72169,2.16191 12.06874,3.07733 17.90968,7.58726c0,0 1.97338,1.53485 0.43853,3.50823c-0.28338,0.36435 -0.58171,0.6091 -0.87981,0.76601c-0.4525,2.64244 -1.11788,4.91498 -2.36599,7.41122c-1.8852,6.64886 -4.15061,13.30056 -6.8247,19.66325c-1.2656,3.01135 -3.40795,5.36633 -4.31204,8.5472c-0.32936,1.15878 -0.74055,3.58931 -1.08009,5.5834c0.00034,0.00055 0.00067,0.0011 0.00101,0.00164c6.54533,10.6359 14.62193,20.81723 19.7594,32.2922c1.53034,3.41813 2.47375,6.96084 3.64352,10.50069c2.05777,4.16566 2.46102,8.36866 2.96142,12.94603c0.57668,5.27517 0.92849,9.60153 -2.51842,13.98842c-1.33455,1.69848 -3.29535,4.39471 -5.49126,4.89754c-3.87245,0.88672 -8.80445,-4.02944 -11.29305,-6.15919c-1.55722,-1.33267 -3.49957,-2.21385 -4.91101,-3.70004c-2.56219,-2.69787 -3.13516,-4.71791 -5.37883,-7.39131c-1.74927,-2.0843 -3.70131,-4.11795 -4.78449,-6.61414c-1.96279,-4.52324 -2.47615,-9.24319 -3.00964,-14.07706c0.00348,-3.96195 0.87663,-7.67024 1.20875,-11.5881c0.34311,-4.04751 -0.0391,-8.28371 0.84257,-12.28139c0.85267,-3.86619 2.75204,-7.46358 3.62514,-11.30549c0.02123,-0.0934 0.04212,-0.18835 0.06273,-0.28474zM272.30475,120.3198c-0.84974,2.35916 -1.81381,4.69224 -2.36094,7.13292c-0.84741,3.78018 -0.43127,7.90989 -0.75848,11.73435c-0.31297,3.6581 -1.1968,7.13028 -1.19282,10.82658c0.47419,4.23572 0.91097,8.3655 2.59403,12.34025c0.87444,2.06508 2.58117,3.67462 4.02128,5.39372c0.25222,0.30109 4.95402,6.93965 5.02799,7.01814c1.33952,1.42125 3.21345,2.2325 4.69528,3.50468c1.9226,1.65058 3.99822,3.14028 6.18764,4.41591c0.32422,0.1889 0.57498,0.74963 0.93138,0.63224c1.26554,-0.41684 1.66913,-2.0774 2.51399,-3.10771c2.57673,-3.14233 1.87259,-6.48108 1.45251,-10.32037c-0.45131,-4.1247 -0.72032,-7.84669 -2.61056,-11.57718c-1.16191,-3.46051 -2.06057,-6.97085 -3.5612,-10.31294c-4.42636,-9.85802 -11.11483,-18.60121 -16.94009,-27.68059z"/></g></g></svg>