<svg version="1.1" xmlns="http://www.w3.org/2000/svg" xmlns:xlink="http://www.w3.org/1999/xlink" width="75.00642" height="136.58961" viewBox="0,0,75.00642,136.58961"><g transform="translate(-147.23383,-20.04698)"><g data-paper-data="{&quot;isPaintingLayer&quot;:true}" fill="#9966ff" fill-rule="nonzero" stroke="none" stroke-width="0.5" stroke-linecap="butt" stroke-linejoin="miter" stroke-miterlimit="10" stroke-dasharray="" stroke-dashoffset="0" style="mix-blend-mode: normal"><path d="M187.37361,156.63658c-2.5,0 -2.5,-2.5 -2.5,-2.5l0.17881,0.22485c-1.64128,-4.20635 -1.77884,-7.98954 -2.66779,-12.42222c-2.23965,-11.16783 -2.78743,-22.56856 -3.2421,-33.92986c-0.00094,-0.02353 -0.00188,-0.04706 -0.00282,-0.07059c-1.86494,-0.13979 -3.7278,-0.28696 -5.55475,-0.59126c-4.7684,-0.79424 -9.84732,-3.28337 -14.75442,-2.79772c-1.29677,0.12834 -2.25528,1.30924 -3.41932,1.89498c-0.05333,0.02684 -0.10676,0.05346 -0.16028,0.07988l0.01795,0.02601l-4.08881,2.82241c-0.40825,0.29003 -0.90734,0.46055 -1.44626,0.46055c-1.38071,0 -2.5,-1.11929 -2.5,-2.5c0,-0.29691 0.05176,-0.58173 0.14675,-0.84593c0.52705,-1.58114 2.61678,-7.85033 3.14382,-9.43147c2.28068,-6.84204 5.40373,-13.23095 7.82534,-19.98959c4.54132,-12.67469 7.31705,-26.27796 12.68014,-38.66515c1.09118,-2.52032 3.00093,-4.61383 4.23606,-7.06681c0.97827,-1.94286 1.56598,-4.05387 2.24415,-6.12614c-0.10411,-0.74598 -0.21792,-1.49208 -0.3423,-2.23835c0,0 -0.411,-2.46598 2.05499,-2.87698c2.46598,-0.411 2.87698,2.05499 2.87698,2.05499c0.04529,0.27172 0.08923,0.5434 0.13186,0.81506c1.00861,1.03945 0.45526,2.56117 0.45526,2.56117c-0.02253,0.06195 -0.0449,0.12397 -0.06712,0.18605c1.26927,10.06089 0.92126,20.09671 0.92126,30.2922c0,15.78412 -0.07785,31.53906 0.43473,47.30842c1.04826,0.14388 2.09423,0.31142 3.13646,0.51861c10.41895,2.07126 21.27196,4.9364 31.92443,4.88594h0.70362c0,0 2.5,0 2.5,2.5c0,2.5 -2.5,2.5 -2.5,2.5h-0.70362c-10.9832,-0.04366 -22.06267,-2.80128 -32.80884,-4.96478c-0.68318,-0.13754 -1.37219,-0.24902 -2.06522,-0.34242c0.43931,10.90198 0.98738,21.83363 3.12497,32.55023c0.8132,4.0769 0.84168,7.74915 2.40727,11.54585l0.17881,1.6321c0,0 0,2.5 -2.5,2.5zM178.54101,56.00264c0,-6.79597 0.17045,-13.52449 -0.11482,-20.23571c-1.01908,1.54099 -2.12805,3.03274 -2.85374,4.72382c-5.26675,12.27304 -8.02148,25.71909 -12.51572,38.26237c-2.41011,6.72654 -5.51986,13.07706 -7.78891,19.88422c-0.1967,0.59009 -0.39339,1.18018 -0.59009,1.77027c4.45777,-2.36154 11.44164,0.0881 15.61407,1.05284c2.86802,0.66313 5.76569,0.97777 8.66317,1.27841c-0.48829,-15.57823 -0.41396,-31.14302 -0.41396,-46.73622z"/></g></g></svg>