<svg version="1.1" xmlns="http://www.w3.org/2000/svg" xmlns:xlink="http://www.w3.org/1999/xlink" width="77.74563" height="74.95245" viewBox="0,0,77.74563,74.95245"><g transform="translate(-199.36949,-92.14711)"><g data-paper-data="{&quot;isPaintingLayer&quot;:true}" fill="#9966ff" fill-rule="nonzero" stroke="none" stroke-width="0.5" stroke-linecap="butt" stroke-linejoin="miter" stroke-miterlimit="10" stroke-dasharray="" stroke-dashoffset="0" style="mix-blend-mode: normal"><path d="M203.55933,167.09957c-2.5,0 -2.5,-2.5 -2.5,-2.5l0.01529,-0.39986c-0.11648,-1.05985 -0.23296,-2.11969 -0.34943,-3.17954c-0.00719,-7.88705 -0.02439,-16.13119 0.6784,-23.97323c0.21352,-2.38256 0.80533,-4.75638 0.67221,-7.14479c-0.24886,-4.46518 0.02386,-9.1617 -0.64866,-13.58485c-1.00469,-6.60779 -2.05765,-12.95396 -2.05765,-19.64929c0,0 0,-2.5 2.5,-2.5c2.5,0 2.5,2.5 2.5,2.5c0,6.43228 1.05647,12.52297 1.99797,18.87905c0.68255,4.60794 0.47164,9.47836 0.70321,14.12852c0.12858,2.58201 -0.44215,5.15152 -0.67966,7.7258c-0.70357,7.6258 -0.66597,15.66525 -0.67347,23.34228c0.10883,0.96796 0.21767,1.93592 0.3265,2.90388l0.01529,0.95201c0,0 0,2.5 -2.5,2.5z"/><path d="M236.93247,162.72408c-0.49029,-2.45145 1.96116,-2.94174 1.96116,-2.94174l1.90405,-0.37123c2.02781,-0.22531 4.05561,-0.45062 6.08342,-0.67594c3.19441,-0.35487 5.95481,-0.74803 9.06687,-1.61303c4.14077,-1.15093 6.28513,-2.17889 9.5053,-4.88299c2.0689,-1.73733 2.97977,-1.49283 2.86237,-4.14054c-0.11044,-2.49063 -1.97753,-4.46935 -3.46572,-6.21898c-1.08046,-1.27027 -1.60264,-3.08026 -2.98257,-4.01662c-2.92195,-1.9827 -8.06028,-2.5716 -11.45157,-3.25088c-3.34428,-0.66986 -6.04762,-1.47796 -8.71851,-2.58629l-0.09679,0.38715l-4.79998,-1.19999c-1.1133,-0.25265 -1.9444,-1.24829 -1.9444,-2.43804c0,-1.29767 0.9887,-2.36442 2.2539,-2.48804l3.01173,-0.33464l0.02157,0.19411l0.43537,-0.20285c4.42968,1.10301 8.84221,2.25425 13.23834,3.48537c2.60289,0.72893 4.86185,1.90404 7.60808,1.08537c1.74499,-0.52019 2.55388,-2.59684 3.79324,-3.93084c1.60551,-0.24016 3.2653,-0.24195 4.81654,-0.72049c1.90363,-0.58725 1.93335,-4.93427 2.00154,-6.35138c0.25081,-5.2124 0.10261,-9.23606 -2.13754,-14.01843c-0.9393,-2.00525 -1.67348,-4.42139 -3.43111,-5.92732c-4.16993,-3.57278 -10.99222,-1.85707 -15.90301,-2.44493c0,0 -2.48069,-0.31009 -2.17061,-2.79078c0.31009,-2.48069 2.79078,-2.17061 2.79078,-2.17061c6.34339,0.83423 13.13286,-0.92683 18.56971,3.63849c6.61491,5.55453 7.71855,16.15 7.27413,23.99008c-0.21184,3.73717 -0.82866,8.70385 -4.75782,10.54701c-1.41512,0.66383 -3.09771,0.42092 -4.64656,0.63138c-0.72318,0.9579 -1.52815,2.16992 -2.51801,3.07225c1.52382,1.17844 2.31328,3.12997 3.56235,4.61339c3.13844,3.72728 6.52271,8.94893 3.63887,14.01058c-0.80663,1.41578 -2.3564,2.25182 -3.56629,3.34327c-6.00512,5.41729 -13.51362,6.83243 -21.30804,7.69863c-2.02781,0.22531 -4.05561,0.45062 -6.08342,0.67594l-1.47563,0.30471c0,0 -2.45145,0.49029 -2.94174,-1.96116z"/></g></g></svg>