<svg version="1.1" xmlns="http://www.w3.org/2000/svg" xmlns:xlink="http://www.w3.org/1999/xlink" width="161.55408" height="212.13743" viewBox="0,0,161.55408,212.13743"><defs><linearGradient x1="240.60831" y1="76.43022" x2="240.60831" y2="283.56978" gradientUnits="userSpaceOnUse" id="color-1"><stop offset="0" stop-color="#141414"/><stop offset="1" stop-color="#5a5a69"/></linearGradient><linearGradient x1="240.60831" y1="84.94657" x2="240.60831" y2="283.25595" gradientUnits="userSpaceOnUse" id="color-2"><stop offset="0" stop-color="#0b0b0c"/><stop offset="1" stop-color="#25253e"/></linearGradient><linearGradient x1="239.86665" y1="213.9085" x2="239.86665" y2="283.56978" gradientUnits="userSpaceOnUse" id="color-3"><stop offset="0" stop-color="#454552"/><stop offset="1" stop-color="#57576a"/></linearGradient><linearGradient x1="240.60832" y1="84.94657" x2="240.60832" y2="283.25595" gradientUnits="userSpaceOnUse" id="color-4"><stop offset="0" stop-color="#0b0b0c"/><stop offset="1" stop-color="#25253e"/></linearGradient></defs><g transform="translate(-159.22368,-73.93022)"><g data-paper-data="{&quot;isPaintingLayer&quot;:true}" fill-rule="nonzero" stroke-width="5" stroke-linecap="butt" stroke-linejoin="miter" stroke-miterlimit="10" stroke-dasharray="" stroke-dashoffset="0" style="mix-blend-mode: normal"><g><path d="M171.56502,280.21439l-9.73297,-195.26782c0,0 52.82757,-8.51635 77.68523,-8.51635c25.22132,0 78.65069,7.91755 78.65069,7.91755l-9.73298,195.25831c0,0 -47.0451,3.85895 -70.13264,3.96156c-22.52174,0.1001 -66.73732,-3.35325 -66.73732,-3.35325z" fill="url(#color-1)" stroke="url(#color-2)"/><path d="M171.58083,280.21439l-2.87614,-57.78954c0,0 6.70886,-8.51635 31.40273,-8.51635c14.00672,0 47.15815,7.14781 73.67171,9.15977c20.91373,1.58702 37.39801,-1.86004 37.39801,-1.86004l-3.04099,58.39785c0,0 -47.02055,3.85895 -69.95596,3.96157c-22.37334,0.1001 -66.59935,-3.35325 -66.59935,-3.35325z" fill="url(#color-3)" stroke="#535364"/><path d="M171.56502,280.21439l-9.73298,-195.26782c0,0 52.82758,-8.51635 77.68524,-8.51635c25.22132,0 78.65068,8.51635 78.65068,8.51635l-9.73298,194.6595c0,0 -47.0451,3.85895 -70.13264,3.96157c-22.52174,0.1001 -66.73732,-3.35325 -66.73732,-3.35325z" fill="none" stroke="url(#color-4)"/><path d="M220.75831,258.0481c0,0 -2.09405,-11.70402 -2.37913,-16.93703c-0.26282,-4.8247 1.93703,-16.05155 1.93703,-16.05155l20.53144,12.41284l20.8441,-12.51528c0,0 1.99678,11.32865 1.94755,16.38257c-0.04152,4.26181 -1.79476,16.81091 -1.79476,16.81091l-21.29891,-11.01625z" fill="#ffc961" stroke="#723519"/></g></g></g></svg>