<svg version="1.1" xmlns="http://www.w3.org/2000/svg" xmlns:xlink="http://www.w3.org/1999/xlink" width="155.95854" height="137.10379" viewBox="0,0,155.95854,137.10379"><g transform="translate(-112.84455,-46.88881)"><g data-paper-data="{&quot;isPaintingLayer&quot;:true}" fill="#9966ff" fill-rule="nonzero" stroke="none" stroke-width="0.5" stroke-linecap="butt" stroke-linejoin="miter" stroke-miterlimit="10" stroke-dasharray="" stroke-dashoffset="0" style="mix-blend-mode: normal"><path d="M188.31902,168.51726c-0.35355,2.47487 -2.82843,2.12132 -2.82843,2.12132l-3.02266,-0.44201c-1.87806,-0.69329 -4.01668,-0.17156 -6.00556,0.05678c-2.93406,0.33685 -6.34123,0.26696 -9.29229,0.40654c-3.84858,0.18202 -7.74554,-0.24432 -11.59051,-0.00101c-6.92421,0.43817 -13.75867,1.21217 -20.72406,1.20079c-3.1198,-0.38998 -10.03848,0.67213 -12.06247,-2.52961c-0.77244,-1.22192 0.3207,-2.87791 0.61905,-4.29238c1.32331,-6.2738 4.92551,-11.26887 7.30672,-17.10073c0.63608,-1.55784 0.96404,-3.22992 1.59998,-4.78782c0.97676,-2.39282 2.71722,-4.4206 3.72152,-6.802c2.06278,-4.89127 3.28202,-10.54233 4.7106,-15.65344c2.54217,-9.09527 4.44954,-17.9368 5.39637,-27.34873c1.57462,-7.88964 2.43174,-16.78043 0.82677,-24.73108c-0.32213,-1.59574 -1.64797,-6.02478 -2.6281,-7.2645c-0.85924,-1.08682 -4.51853,-2.12292 -5.53127,-2.56724c-2.48376,-1.08971 -4.59935,-2.92866 -7.10692,-3.96241c-6.36731,-2.62493 -10.46564,2.56089 -14.54202,6.64068c0,0 -1.76777,1.76777 -3.53553,0c-1.76777,-1.76777 0,-3.53553 0,-3.53553c5.66893,-5.66442 11.2457,-11.13949 19.88054,-7.76876c2.59183,1.01176 4.7523,2.93035 7.30252,4.04283c2.48361,1.08342 5.40403,1.57775 7.27712,3.83696c1.64056,1.97873 3.23011,6.87922 3.7761,9.54651c1.74099,8.50513 0.91935,18.05243 -0.77428,26.50249c-0.95534,9.61296 -2.93001,18.66734 -5.52588,27.95473c-1.48636,5.31785 -2.77097,11.16498 -4.91954,16.25177c-1.01313,2.3986 -2.7706,4.4406 -3.74444,6.85542c-0.61735,1.53085 -0.93632,3.17168 -1.56229,4.69901c-1.73101,4.22354 -4.45006,8.03993 -5.98111,12.357c-0.05028,0.14178 -0.1141,3.07099 -1.15845,4.28033c2.66326,-0.28989 4.37802,0.06272 6.96567,0.38617c6.75344,-0.01233 13.387,-0.78605 20.10269,-1.20079c3.85994,-0.23838 7.76254,0.1842 11.6247,-0.00101c2.93305,-0.14065 6.20125,-0.07998 9.11977,-0.39399c2.51998,-0.27113 5.1809,-0.68856 7.60335,0.05678l2.58101,0.35851c0,0 2.47487,0.35355 2.12132,2.82843z"/><path d="M220.9688,174.96817c0,-2.5 2.5,-2.5 2.5,-2.5l2.58585,0.20214c1.88109,0.80695 3.73912,1.67044 5.56599,2.5936c5.89924,4.82125 15.45915,4.41224 21.65327,0.44532c1.69092,-1.08292 2.69281,-3.24423 4.59045,-3.90065c0.21113,-0.07303 5.91263,0.54273 6.1228,-0.59895c0.83029,-4.51027 -0.83928,-10.20324 -1.73985,-14.54896c-1.02718,-4.95668 -1.64954,-10.0969 -1.64772,-15.15918c-0.30691,-2.56093 0.61506,-6.08492 -0.24818,-8.48964c-0.47642,-1.32715 -2.42849,-2.75187 -3.19263,-3.68965c-2.35088,-2.8851 -3.69126,-6.23616 -7.01901,-8.2849c-8.26379,-5.08762 -18.59674,-5.11089 -27.87176,-7.60682v0.396h-2.80184c0,0 0,0 0,0c-1.38071,0 -2.5,-1.11929 -2.5,-2.5c0,-1.18975 0.83109,-2.18539 1.9444,-2.43804l3.15136,-0.78784l0.01239,0.04954l0.11337,-0.07756c6.98318,-1.0053 16.22605,-0.90342 22.14362,-5.51034c2.02661,-1.57775 2.64433,-5.64242 3.11273,-7.78133c1.13326,-5.17486 0.7421,-10.47431 0.74642,-15.73742c-0.56673,-5.06145 -0.89042,-10.75148 -3.61229,-15.20162c-1.30687,-2.13668 -3.85394,-3.89442 -5.81676,-5.36525c-1.89554,-1.42042 -3.64071,-3.08211 -5.72069,-4.21539c-9.3864,-5.11416 -19.6938,-1.24546 -28.79447,1.79919c0,0 -2.37171,0.79057 -3.16228,-1.58114c-0.79057,-2.37171 1.58114,-3.16228 1.58114,-3.16228c10.6209,-3.52607 22.02072,-7.18088 32.84592,-1.40291c2.28919,1.22186 4.21191,3.03262 6.28718,4.59038c2.4729,1.85624 5.34119,3.97219 6.99164,6.64262c3.22826,5.22333 3.73527,11.65965 4.39296,17.61989c0.00599,7.73564 1.0752,17.62507 -3.11401,24.57007c-2.85578,4.7344 -8.40603,6.81506 -14.21769,7.9471c1.60078,0.43847 3.20914,0.87033 4.87697,1.1852c6.376,1.20373 12.7914,3.73389 17.09531,8.87976c1.23451,1.47601 1.98035,3.31656 3.2021,4.80315c1.74331,2.12121 2.97229,2.19633 4.0121,5.11612c1.13196,3.17854 0.124,6.64663 0.55234,9.92243c0.00301,8.42703 2.70364,16.35499 3.18951,24.69451c0.03665,0.62913 0.06184,6.76637 -0.17288,7.23773c-2.76777,5.55822 -5.06009,2.16587 -9.08716,3.40367c-1.51396,0.46535 -2.08367,2.44574 -3.4148,3.30407c-2.32621,1.49997 -4.84859,2.78479 -7.51174,3.53895c-5.91336,1.67457 -14.91432,-0.16246 -19.66698,-3.89416c-1.5908,-0.78456 -3.21024,-1.51143 -4.84082,-2.20955l-0.61625,0.20214c0,0 -2.5,0 -2.5,-2.5z"/></g></g></svg>