<svg version="1.1" xmlns="http://www.w3.org/2000/svg" xmlns:xlink="http://www.w3.org/1999/xlink" width="69.94732" height="118.73937" viewBox="0,0,69.94732,118.73937"><g transform="translate(-193.86347,-61.92299)"><g data-paper-data="{&quot;isPaintingLayer&quot;:true}" fill="#9966ff" fill-rule="nonzero" stroke="none" stroke-width="0.5" stroke-linecap="butt" stroke-linejoin="miter" stroke-miterlimit="10" stroke-dasharray="" stroke-dashoffset="0" style="mix-blend-mode: normal"><path d="M247.71468,77.10485c-6.36501,-4.24002 -13.40809,-7.8501 -20.68529,-9.16568c-3.18266,-0.57536 -7.36272,-2.11337 -10.55417,-0.85296c-2.3636,0.93346 -3.83987,2.99374 -5.32839,4.87002c-2.48112,3.12745 -4.39995,5.38735 -6.1669,8.91068c-1.12738,1.51099 -2.64856,2.81194 -3.33504,4.56774c-2.11615,5.41238 2.1028,9.24135 5.20792,12.88498c0.69992,0.82131 1.09436,1.90871 1.91339,2.6113c1.75678,1.50701 3.61967,2.78537 5.54961,3.92648c0.89343,-0.39934 1.78984,-0.78772 2.73919,-1.0003c1.23194,-0.27585 2.53247,0.09267 3.78704,-0.04815c3.3638,-0.37756 6.87681,-1.3822 10.21813,-2.04585c4.29335,-1.41915 7.65444,-3.19516 10.83549,-6.38774c1.48196,-1.48733 3.47371,-2.56764 4.51762,-4.38934c1.56305,-2.72762 1.08274,-7.03956 1.08274,-10.02621v-2.81449c0,0 0,-0.49261 0.21867,-1.04049zM208.11573,106.75917c-0.93236,-0.6683 -1.84436,-1.38023 -2.73184,-2.14584c-0.95893,-0.82724 -1.48165,-2.05829 -2.30835,-3.01768c-4.5642,-5.29681 -8.80903,-10.52376 -6.05004,-18.07441c0.36302,-0.99349 3.14472,-4.54521 3.70118,-5.28298c2.20577,-4.42517 5.33664,-8.9808 8.85206,-12.46339c5.34786,-5.29792 11.67574,-3.97418 18.35206,-2.75377c10.93715,1.99927 21.25181,8.54593 29.9542,15.27866c1.6551,1.28049 3.00843,2.94655 4.75573,4.09806c0,0 2.08013,1.38675 0.69338,3.46688c-1.38675,2.08013 -3.46688,0.69338 -3.46688,0.69338c-1.85181,-1.24627 -3.3312,-2.9774 -5.09499,-4.34541c-0.74491,-0.57777 -1.50397,-1.15577 -2.27622,-1.73043v0.4776c0,3.94274 0.31421,8.90301 -1.73175,12.48971c-0.60345,1.05788 -1.66772,1.77553 -2.5186,2.64689c-4.89111,5.00877 -9.15819,8.23569 -15.90217,10.4992c-3.40088,0.68439 -7.0014,1.69506 -10.44869,2.12406c2.48304,1.14584 4.99219,2.25985 7.45672,3.50755c12.06982,6.11049 21.72688,15.55891 29.18545,26.66508c3.95148,9.82035 5.82456,19.51528 3.01552,29.98368c-1.41776,5.28354 -5.4872,10.52122 -11.08371,11.63864c-1.53462,0.30641 -3.1296,0.04033 -4.6945,0.04511c-4.56923,0.01394 -6.16851,0.3251 -10.63294,-1.22528c-10.84141,-3.76492 -18.86388,-14.14801 -25.71218,-22.83234c-6.1645,-6.15376 -14.17819,-14.66708 -15.37382,-23.76313c-0.6375,-4.84998 0.36501,-10.85535 2.24543,-15.35587c0.64882,-1.55287 3.50928,-5.98612 4.8345,-7.28005c1.87939,-1.83501 4.42512,-2.69671 6.98046,-3.34393zM213.99338,110.36424c-0.4537,0.18171 -0.91376,0.34291 -1.38664,0.46223c-2.54801,0.64293 -6.11909,0.91994 -8.03539,2.90889c-0.88161,0.91503 -3.29355,4.69905 -3.67625,5.62063c-1.49213,3.59326 -2.41958,8.66657 -1.90903,12.55356c1.06622,8.11745 8.71879,15.80019 14.17833,21.26872c6.32204,7.97782 13.65809,17.90585 23.63024,21.43745c3.7462,1.3267 5.04898,0.92991 8.97965,0.94403c1.24974,0.00449 2.5142,0.23805 3.74897,0.04511c5.73846,-0.89666 7.28198,-8.04441 7.93209,-12.63891c1.09721,-7.75426 -0.45994,-14.48802 -3.33508,-21.73c-6.95886,-10.17867 -15.87833,-18.92614 -27.02367,-24.54605c-4.37054,-2.2038 -8.84577,-4.05245 -13.1032,-6.32564z"/></g></g></svg>