<svg version="1.1" xmlns="http://www.w3.org/2000/svg" xmlns:xlink="http://www.w3.org/1999/xlink" width="102.14718" height="102.4796" viewBox="0,0,102.14718,102.4796"><g transform="translate(-191.75503,-61.53811)"><g data-paper-data="{&quot;isPaintingLayer&quot;:true}" fill="#9966ff" fill-rule="nonzero" stroke="none" stroke-width="0.5" stroke-linecap="butt" stroke-linejoin="miter" stroke-miterlimit="10" stroke-dasharray="" stroke-dashoffset="0" style="mix-blend-mode: normal"><path d="M215.19124,158.07677c-2.32119,0.92848 -3.24967,-1.39272 -3.24967,-1.39272l-0.85104,-2.13922c-0.5689,-1.73748 -1.40507,-3.3862 -2.31213,-4.97355c-1.48328,-4.44985 -4.34209,-8.21711 -5.72935,-12.75639c-0.76977,-2.51876 -0.77477,-5.21119 -1.24731,-7.80221c-3.24227,-17.7776 -4.96816,-35.98542 -9.95589,-53.42328c0,0 -0.6868,-2.40381 1.71701,-3.09061c2.40381,-0.6868 3.09061,1.71701 3.09061,1.71701c5.0204,17.58994 6.77656,35.92 10.05722,53.84701c0.44986,2.45822 0.42067,5.0188 1.15426,7.40776c1.31585,4.2851 4.07194,7.8417 5.47799,12.05987c0.98849,1.72985 1.8527,3.54592 2.49102,5.43326l0.75001,1.8634c0,0 0.92848,2.32119 -1.39272,3.24967z"/><path d="M256.93027,142.88275c0.80554,2.3242 1.59496,4.40556 3.2947,6.48471c2.80577,3.43205 7.30649,6.41085 10.98131,8.77428c3.54161,2.27776 6.04411,0.71576 9.29258,-1.36955c7.34899,-4.71758 9.11054,-11.32624 8.16139,-19.74606c-1.14125,-3.94816 -2.28118,-7.55018 -4.41162,-11.11049c-2.81927,-4.71145 -9.01428,-6.64337 -14.1006,-4.31481c-3.33452,1.52657 -7.7494,6.54764 -9.78625,9.53927c-2.03277,2.98565 -2.17281,7.53177 -3.27411,10.91534l0.10158,-0.30905c0,0 0,0.55144 -0.25899,1.13635zM253.7401,134.92187c0.54623,-2.33112 1.19871,-4.63188 2.48134,-6.58491c0.58372,-0.88881 1.51331,-1.4959 2.22542,-2.28558c2.83894,-3.14819 5.6416,-7.151 9.60249,-8.98878c7.36129,-3.4155 16.26118,-0.56667 20.43984,6.20398c2.50419,4.05752 3.79355,8.25774 5.07679,12.79328c0.52832,4.80868 0.66467,10.888 -1.35275,15.46998c-3.5803,8.13159 -15.0689,15.89645 -23.53896,10.9234c-4.17702,-2.45246 -9.21319,-6.1259 -12.31602,-9.91583c-2.52466,-3.08373 -3.50433,-6.25442 -4.81378,-9.9224c-1.77697,-4.97758 -4.39337,-9.5818 -6.07106,-14.6183c-1.92708,-8.88666 -3.87765,-18.04896 -4.52918,-27.11505c-0.53487,-7.44273 -0.91003,-15.12838 2.74068,-21.96572c1.21775,-2.2807 3.43972,-3.86152 5.20442,-5.75107c1.10316,-1.1812 1.7846,-2.74899 3.01416,-3.79798c3.44455,-2.9387 7.47462,-3.20639 10.4715,-6.87183c0,0 1.60046,-1.92055 3.52101,-0.32009c1.92055,1.60046 0.32009,3.52101 0.32009,3.52101c-1.46848,1.7358 -3.10293,3.42185 -5.06862,4.56444c-1.9489,1.13283 -4.38481,1.48052 -6.07404,2.97318c-1.06888,0.94451 -1.62217,2.35847 -2.58951,3.40674c-1.44839,1.56957 -3.42175,2.75819 -4.40187,4.65575c-3.11021,6.02151 -2.61234,12.722 -2.15052,19.22933c0.62037,8.74137 2.52761,17.57841 4.36464,26.1518c0.94694,2.83859 2.21127,5.53549 3.44393,8.24465z"/></g></g></svg>