<svg version="1.1" xmlns="http://www.w3.org/2000/svg" xmlns:xlink="http://www.w3.org/1999/xlink" width="371.01916" height="321.07829" viewBox="0,0,371.01916,321.07829"><g transform="translate(-55.48254,2.01714)"><g data-paper-data="{&quot;isPaintingLayer&quot;:true}" fill-rule="nonzero" stroke="none" stroke-linecap="butt" stroke-linejoin="miter" stroke-miterlimit="10" stroke-dasharray="" stroke-dashoffset="0" style="mix-blend-mode: normal"><path d="M369.04989,60.86826c-0.12496,0.45817 -0.25153,0.916 -0.38135,1.37306c-0.04189,0.14747 -0.88254,3.48487 -0.76216,3.99859c0.14671,0.62603 0.73414,1.06262 1.00989,1.64348c3.09575,6.52099 0.45641,-4.39291 0.26214,-6.03304c-0.03884,-0.32791 -0.08211,-0.65522 -0.12852,-0.98209zM372.92796,53.55321l0.40494,2.43086c0.3733,2.42645 0.38477,5.23894 0.9599,7.59614c0.46678,1.91313 1.51041,3.81782 1.26214,5.77137c-0.17766,1.39796 -0.20561,3.05914 -1.20558,4.05208c-5.1207,5.08469 -10.40066,-1.32635 -11.33179,-6.11514c-0.79829,-4.10563 1.68588,-10.28385 3.0741,-14.32746c-1.79798,-0.10999 -3.59584,-0.22115 -5.39343,-0.33563c-3.25128,-0.07899 -6.50358,-0.10735 -9.75612,-0.12009c0.01986,0.15935 0.01986,0.25888 0.01986,0.25888l-0.06403,-0.16215c0.3293,1.44664 -0.05359,3.34059 1.05784,4.32341c0.57769,0.51084 1.61648,0.09418 2.25156,0.53162c2.35183,1.61993 5.76924,7.40373 4.09242,10.42171c-1.87865,3.38123 -7.17645,3.17855 -10.33373,2.98358c-1.16828,-0.07215 -2.44711,0.13394 -3.48863,-0.4002c-1.33887,-0.68663 -2.59991,-1.74855 -3.29917,-3.08086c-0.56133,-1.0695 -0.18218,-2.40973 -0.21624,-3.6171c-0.1091,-3.86763 0.54898,-7.47757 0.35469,-11.28452c-3.99944,-0.01961 -7.99807,-0.06778 -11.99441,-0.20959c-1.62827,-0.05778 -3.25892,-0.07802 -4.88401,-0.19497c-0.4651,-0.03347 -0.98741,0.02585 -1.5106,0.08204c-0.11327,2.80772 -0.49599,5.55713 -0.99796,8.32117c0.2635,0.06453 0.51585,0.16029 0.75137,0.30326c4.35306,2.64242 5.54755,11.51732 0.8,14.36522c-2.39609,1.43734 -4.90267,0.26586 -7.15431,-0.39316l-0.80873,-0.83052c-0.20967,0.18764 -0.42947,0.36269 -0.66495,0.51829c-4.26854,2.82054 -13.01146,2.34304 -12.01151,-4.90302c0.10379,-0.75208 0.63462,-1.32445 1.21405,-1.87637c-1.9505,-0.83359 -3.76856,-1.8141 -4.82035,-3.96127c-2.26055,-4.61478 -0.00838,-9.64421 5.56634,-9.41339c0.82446,0.03413 1.52953,0.54299 2.24569,1.00778c0.36293,-0.6812 1.00241,-0.98544 1.50121,-1.1213c2.22034,-1.5125 3.60565,-3.34252 5.66946,-5.09306c1.49347,-1.26676 3.16872,-2.3442 4.54826,-3.72769c-0.29732,-3.18192 -0.39141,-6.6261 -0.54336,-8.15171c-0.96631,-9.70181 -3.91089,-18.83533 -6.66262,-28.15047c-0.66937,-2.26592 -2.86828,-9.15746 -1.97812,-10.35383c1.2457,-1.6742 4.17208,0.11226 6.25813,0.16838c14.35055,1.64622 28.97723,0.57282 43.40062,0.76257c7.44804,0.09798 15.02609,-0.42057 22.44005,-0.19915c3.87221,0.11565 7.24876,0.88616 11.15485,0.60487c1.68392,0.21521 3.89485,-0.59674 5.05174,0.64563c1.08961,1.17012 -0.05269,3.19921 0.01608,4.79661c0.19005,4.41488 0.72914,8.80899 0.92885,13.21607c0.29769,0.17814 0.58947,0.44969 0.85568,0.84901c1.38675,2.08012 -0.69338,3.46688 -0.69338,3.46688l-0.50338,-0.12668c0.44835,3.02137 0.85477,6.04801 1.01234,9.10025c0.13319,2.57999 0.20243,5.13765 0.30418,7.69888c1.00086,-1.06006 2.05706,-2.06679 3.18703,-3.03371l-0.86155,-0.5239c-0.16436,-1.01146 -1.21643,-6.31398 -0.6701,-7.46233c2.54652,-5.3527 8.44099,-3.15263 12.60544,-1.44622c3.78089,-1.35265 8.27591,-0.95597 10.24898,3.55687c1.60683,3.67518 -0.9796,7.8133 -3.63333,10.51709c1.15638,2.51298 1.85498,5.21088 0.63521,7.99177c-1.77159,4.03897 -6.32537,5.97953 -10.18823,3.26516c-1.55784,-1.09466 -2.19199,-2.48561 -2.68408,-4.0139c-2.61505,0.3334 -5.10679,1.16975 -7.77907,1.54867c0.09067,2.13886 -0.46741,4.01622 -3.42994,5.20604c-1.41858,0.56974 -3.03954,-0.33082 -4.56096,-0.48007c-1.41998,-0.1393 -2.84033,-0.27676 -4.26297,-0.38555c-5.17228,-0.39549 -10.3494,-0.72659 -15.52738,-1.04478c0.02982,0.11044 0.04102,0.17768 0.04102,0.17768zM346.46146,55.64762c-0.00957,0.72718 -0.04525,1.45322 -0.11301,2.1763c-0.20974,2.23817 -1.10401,5.34862 -0.60272,7.52319c0.29813,1.29324 6.05034,0.48628 7.0125,0.41819c0.35652,-0.02523 0.90388,0.20287 1.06595,-0.11567c0.15451,-0.30369 -0.43444,-0.53402 -0.57824,-0.84293c-0.47206,-1.01408 -0.59445,-2.4858 -1.72934,-3.13536c-0.90725,-0.51927 -2.23325,-0.30599 -2.94844,-1.06838c-1.09713,-1.16953 -1.67983,-3.14655 -2.1067,-4.95533zM309.34209,59.75096c-1.38675,2.08013 -3.46686,0.69337 -3.46686,0.69337l-0.41038,-0.28538c-0.4475,-0.30597 -0.84718,-0.69762 -1.34251,-0.91792c-1.56549,-0.69625 -0.19596,2.82619 0.55656,3.26348c1.47508,0.85717 3.17439,1.26224 4.70112,2.02363c0,0 2.0957,1.04785 1.21496,3.14355c-0.1537,0.99065 -0.97126,1.64469 -0.97126,1.64469l-0.7035,0.52024c-2.36187,1.81912 -0.21851,1.4097 1.65148,1.07614c1.66476,-0.29695 2.16186,-1.31287 3.32252,-2.51632c0,0 1.76777,-1.76776 3.53553,0c0.37896,0.37896 0.59545,0.75793 0.7017,1.11947c0.13765,0.15202 0.21066,0.26154 0.21066,0.26154l-0.14423,0.05222c0.01366,0.10391 0.01894,0.20583 0.01722,0.30531c0.94223,0.40228 1.94175,1.04119 2.82777,0.64661c0.75572,-0.33655 0.38409,-2.24319 0.34327,-2.47064c-0.35352,-1.96954 -0.45014,-2.94195 -1.94437,-3.05877c-0.38267,0.0794 -0.83646,0.0617 -1.37036,-0.11628c-0.66851,-0.22284 -1.08578,-0.57129 -1.34033,-0.95685c-0.25657,-0.38421 -0.41578,-0.90401 -0.36174,-1.6066c0.03238,-0.4209 0.13036,-0.76526 0.27087,-1.04693c0.59992,-3.00514 1.11588,-5.97987 1.27292,-9.01612c-0.13659,0.11183 -0.27239,0.22448 -0.40714,0.33821c-2.3469,1.98079 -4.05068,4.12655 -6.70182,5.82574l-1.0757,0.27262c-0.07442,0.25447 -0.19862,0.52337 -0.38636,0.80497zM408.84404,37.04586c-0.09303,0.18606 -0.1938,0.34889 -0.30038,0.49108c-0.11658,0.90731 -0.76792,1.55864 -0.76792,1.55864l-0.60603,0.58441c-1.97393,1.57404 -3.68538,3.26124 -5.25572,5.14777c2.42996,-0.4714 4.72839,-1.16447 7.27958,-1.39058c0.08796,-0.03554 0.18093,-0.06858 0.27918,-0.09881c2.38945,-0.73521 3.12466,1.65424 3.12466,1.65424c0.32031,1.09833 0.5445,2.65318 1.4872,3.51791c1.70017,1.55954 2.90041,-1.53933 2.82442,-2.70965c-0.0919,-1.41551 -0.40293,-2.01373 -0.941,-2.92485c-0.59267,-0.22621 -2.07424,-0.99925 -1.58542,-2.95453c0.43063,-1.72254 1.7788,-1.91585 2.52398,-1.88324c1.44473,-1.3454 3.47873,-3.74036 2.79167,-5.35372c-1.06872,-2.50959 -4.39915,-0.91231 -5.61987,0.06513l0.09734,-0.05407c0,0 -1.76777,1.76776 -3.53553,0c-0.54452,-0.54452 -0.75358,-1.08904 -0.78219,-1.58189c-0.69275,-0.18498 -1.39116,-0.35185 -2.08537,-0.52407c-0.52787,-0.13095 -1.65398,-0.73724 -1.61996,-0.19444c0.06131,0.97826 0.28107,1.96921 0.12991,2.93766l1.44341,0.35891c0,0 2.23607,1.11804 1.11803,3.35411zM393.31142,10.53772c-0.00073,-0.00955 -0.00145,-0.0191 -0.00218,-0.02865c-0.17446,-2.291 -1.14144,-4.08288 -0.31813,-5.47452c-3.98083,0.25127 -7.5156,-0.49396 -11.45607,-0.60779c-7.3877,-0.21341 -14.93729,0.29849 -22.35996,0.20085c-14.68674,-0.19322 -29.54836,0.85711 -44.16037,-0.83292c0.11144,0.14571 0.24387,0.34118 0.37823,0.58356c1.98197,3.57505 2.64208,8.9387 3.79583,12.84613c2.39383,8.10723 3.73878,16.07312 4.50947,24.48319c0.11766,1.28399 -0.16003,2.58669 -0.28758,3.87792c0.33369,0.70907 0.19772,1.38637 -0.01587,1.88012c0.01484,0.12662 0.03381,0.25298 0.05744,0.37905c0.0745,0.39746 0.53546,-0.73123 0.93804,-0.76928c3.33943,-0.31561 6.70283,0.30044 10.05673,0.35277c8.82545,0.1377 17.64466,-0.01399 26.47069,0.20211c11.60396,0.73509 23.19427,1.65965 34.66001,2.93948c1.46831,0.16389 -0.2253,-2.94728 -0.40467,-4.41378c-0.35406,-2.89478 -0.59715,-6.62536 -0.66443,-9.57134c-0.18232,-7.98383 -1.66352,-15.70382 -2.39038,-23.63043c0,0 -0.15429,-1.69721 1.19318,-2.41644z" fill="#9966ff" stroke-width="0.5"/><path d="M343.7719,24.84586c-1.11804,-2.23607 1.11804,-3.3541 1.11804,-3.3541l0.04832,-0.02006c-1.46049,-0.00467 -3.48878,-0.04892 -3.49659,-0.04941c0,0 -2.49446,-0.16629 -2.32817,-2.66076c0.1663,-2.49447 2.66076,-2.32816 2.66076,-2.32816c3.30944,0.22743 10.02819,0.09811 9.71142,5.62754c-0.08758,1.52875 -2.13819,2.19251 -3.20729,3.28876l-1.1524,0.61423c0,0 -2.23606,1.11804 -3.35411,-1.11803z" fill="#9966ff" stroke-width="0.5"/><path d="M380.03333,20.53415c-0.60634,2.42535 -3.0317,1.81902 -3.0317,1.81902l-1.37892,-0.42418c-2.77019,-1.64053 -5.5915,-2.32047 -4.82784,-6.8546c0.2251,-1.33653 1.90091,-1.9325 2.85136,-2.89875c0,0 1.95217,-1.56174 3.51391,0.39044c1.56174,1.95217 -0.39043,3.51391 -0.39043,3.51391c-2.11541,0.55481 -0.29721,0.76871 1.22351,1.44665l0.22109,-0.02418c0,0 2.42536,0.60634 1.81902,3.0317z" fill="#9966ff" stroke-width="0.5"/><path d="M333.0805,34.02031c-0.02225,-0.31732 0.02041,-0.67702 0.15575,-1.08306c0.79057,-2.37171 3.16228,-1.58114 3.16228,-1.58114c2.14792,0.75234 5.51044,-0.12428 6.55918,1.89555c2.05883,3.96524 -4.54881,7.92121 -6.79304,9.38586l-0.49748,-0.01356l0.03106,0.15532l-2.94938,0.58987c-0.17418,0.03842 -0.35518,0.05868 -0.54091,0.05868c-1.38071,0 -2.5,-1.11929 -2.5,-2.5c0,-0.3931 0.09073,-0.76502 0.25239,-1.09594l1.17771,-2.5517l0.23974,0.11065c0.27407,-0.85098 0.60888,-1.67716 1.03542,-2.46014z" fill="#9966ff" stroke-width="0.5"/><path d="M326.16105,24.82142c0.22597,-0.09039 0.43874,-0.14998 0.63873,-0.18391c0.38694,-0.88023 1.26656,-1.4949 2.28974,-1.4949c0.62706,0 1.20021,0.23087 1.63907,0.61224c0.20577,-0.65678 0.71391,-1.35377 1.91372,-1.57191c2.45967,-0.44721 2.90689,2.01246 2.90689,2.01246c0.01011,1.57015 1.12791,3.58761 0.03032,4.71046c-0.85111,0.8707 -2.14031,0.9213 -3.45135,0.93101c-1.04073,1.14765 -3.02714,0.70152 -4.53865,1.05574l-2.82119,-2.82152c0,0 -0.92848,-2.32119 1.39272,-3.24967z" fill="#9966ff" stroke-width="0.5"/><path d="M391.51801,21.07142c2.32119,0.92848 1.39272,3.24967 1.39272,3.24967l-1.06338,2.64496c-0.03873,0.03879 -0.07745,0.07757 -0.11618,0.11636l0.04376,0.02431l-1.22575,2.20635c-0.41981,0.7909 -1.25182,1.32954 -2.20964,1.32954c-0.78859,0 -1.4919,-0.36512 -1.9501,-0.93553l-0.05786,0.63648c-0.10234,1.28675 -1.17897,2.29905 -2.49204,2.29905c-0.95782,0 -1.78983,-0.53864 -2.20964,-1.32954l-1.12466,-2.0244c-0.59474,-0.66172 -1.18948,-1.32343 -1.78422,-1.98515c0,0 -1.66091,-1.86852 0.20761,-3.52943c1.22403,-1.08802 2.35896,-0.66148 2.99627,-0.23778c0.45964,-0.26824 1.03019,-0.54975 1.72939,-0.84487c1.32748,-0.5603 2.78701,0.22055 4.22249,0.75725l0.39156,-0.98455c0,0 0.92848,-2.32119 3.24967,-1.39272z" fill="#9966ff" stroke-width="0.5"/><path d="M253.67464,319.06116v-58.8h11.2v39.78709c0,0 11.92702,-1.25555 15.06761,1.98965c2.98482,3.08425 3.33239,17.02326 3.33239,17.02326z" fill="#9966ff" stroke-width="0"/><path d="M195.67465,319.06116v-58.8h11.2v39.78709c0,0 11.92703,-1.25556 15.06762,1.98965c2.98481,3.08424 3.33239,17.02326 3.33239,17.02326z" fill="#9966ff" stroke-width="0"/><g data-paper-data="{&quot;index&quot;:null}" fill="#9966ff" stroke-width="0"><path d="M407.25212,281.35576l-36.76955,-36.76956l7.54248,-7.54247l36.76955,36.76955z"/><path d="M411.96617,292.19806c-4.29577,4.29577 -11.26058,4.29577 -15.55635,0c-4.29577,-4.29577 -4.29577,-11.26058 0,-15.55635c4.29577,-4.29577 11.26058,-4.29577 15.55635,0c4.29576,4.29577 4.29576,11.26058 0,15.55635z"/><path d="M421.86566,289.84103c-4.29577,4.29577 -11.26058,4.29577 -15.55635,0c-4.29577,-4.29577 -4.29577,-11.26058 0,-15.55635c4.29577,-4.29577 11.26058,-4.29577 15.55635,0c4.29576,4.29577 4.29576,11.26058 0,15.55635z"/><path d="M423.27989,278.52733c-4.29577,4.29577 -11.26058,4.29577 -15.55635,0c-4.29577,-4.29577 -4.29577,-11.26058 0,-15.55635c4.29577,-4.29577 11.26058,-4.29577 15.55635,0c4.29576,4.29577 4.29576,11.26058 0,15.55635z"/></g><g fill="#9966ff" stroke-width="0"><path d="M67.18967,270.81327l36.76955,-36.76955l7.54247,7.54247l-36.76955,36.76955z"/><path d="M70.01809,273.64171c4.29577,-4.29577 11.26058,-4.29577 15.55635,0c4.29577,4.29577 4.29577,11.26058 0,15.55635c-4.29577,4.29577 -11.26058,4.29577 -15.55635,0c-4.29577,-4.29577 -4.29577,-11.26058 0,-15.55635z"/><path d="M60.11859,271.28468c4.29577,-4.29577 11.26058,-4.29577 15.55635,0c4.29577,4.29577 4.29577,11.26058 0,15.55635c-4.29577,4.29577 -11.26058,4.29577 -15.55635,0c-4.29577,-4.29577 -4.29577,-11.26058 0,-15.55635z"/><path d="M58.70437,259.97098c4.29577,-4.29577 11.26058,-4.29577 15.55635,0c4.29577,4.29577 4.29577,11.26058 0,15.55635c-4.29577,4.29577 -11.26058,4.29577 -15.55635,0c-4.29577,-4.29577 -4.29577,-11.26058 0,-15.55635z"/></g><path d="M95.25003,266.75001v-173.5h289.5v173.5z" fill="#5bcefa" stroke-width="0"/><path d="M95.25003,231.25001v-103h289.5v103z" fill="#f5a9b8" stroke-width="0"/><path d="M95.25003,198.75001v-36h289.5v36z" fill="#ffffff" stroke-width="0"/><path d="M139.10911,157.99012c0.98501,0.24625 1.46996,0.79254 1.69857,1.35453c3.36225,0.21352 6.80937,0.67718 10.09838,0.25141c10.00977,-1.29579 20.35893,-7.06602 28.21624,-13.21033c3.19802,-2.50081 6.47454,-5.16524 8.59382,-8.62858c0,0 1.325,-2.11999 3.44499,-0.795c2.11999,1.325 0.795,3.44499 0.795,3.44499c-6.44646,10.14404 -19.60212,17.40861 -30.66069,21.3601c-4.11799,1.47145 -5.46371,2.22362 -9.86259,2.801c-4.34235,0.56995 -8.90928,-0.32267 -13.26337,-0.31942l-2.09203,-4.43967c0,0 0.60634,-2.42536 3.0317,-1.81902z" fill="#9966ff" stroke-width="0.5"/><path d="M191.08309,168.41622c-0.80013,0.39527 -1.52153,0.80599 -1.85919,1.14583c-3.52307,3.54583 -5.2782,9.64933 -4.275,14.3371c0.57398,2.68213 1.15761,6.4373 3.67588,8.15025c1.84366,1.25408 3.24587,0.87359 5.32023,1.23883c1.68872,0.29734 3.27065,1.49045 4.97543,1.30635c3.18086,-0.34349 5.59508,-3.79622 6.98604,-6.2416c1.50495,-4.01271 3.13765,-11.9527 -0.50478,-15.50307c-0.58546,-0.57066 -3.9742,-1.82654 -4.67996,-2.19654c-1.08761,-0.5702 -2.40041,-0.98633 -3.60616,-0.75356l-3.36402,0.33659c0,0 -2.19819,0.21982 -2.66846,-1.82019zM195.70814,165.01594l0.84854,-0.0848c1.14547,-0.10015 2.30782,-0.52047 3.43641,-0.30045c1.09196,0.21287 1.95497,1.06437 2.95743,1.5469c1.87698,0.90349 4.52955,1.65801 5.98671,3.13679c5.26179,5.33984 3.81157,14.98608 1.49522,21.16359c-2.31691,4.04138 -5.90038,8.51466 -11.01395,9.09174c-1.27826,0.14425 -4.85088,-1.09378 -6.35791,-1.36032c-3.23855,-0.57278 -4.20531,0.078 -7.34643,-2.0945c-3.59983,-2.48976 -4.833,-7.21491 -5.65745,-11.18308c-1.32566,-6.38049 0.95097,-14.24274 5.725,-18.99624c1.48299,-1.47661 4.49954,-2.63491 6.37242,-3.47129c0,0 2.28453,-1.01534 3.29987,1.26918c0.21491,0.48355 0.28198,0.91025 0.25417,1.28248z" fill="#9966ff" stroke-width="0.5"/><path d="M258.1816,170.487c0.05209,-0.13022 0.10857,-0.25023 0.16877,-0.36073c-0.09951,0.0768 -0.19617,0.15822 -0.28972,0.24447c-2.6572,2.45007 -4.79163,7.18741 -3.79668,10.78179c1.42266,5.13957 4.80679,11.626 10.07526,13.57369c2.6927,0.99546 5.49225,0.4721 8.24567,0.20191c2.99475,-0.29387 4.8263,-0.43639 7.31421,-2.09315c0.8921,-2.20682 2.41593,-4.91684 2.43773,-7.36003c0.07241,-8.11483 -11.12909,-9.08174 -16.56109,-9.924c-1.42956,-0.22166 -2.80842,-0.69563 -4.21263,-1.04345l-1.98881,-0.77083c0,0 -2.32119,-0.92848 -1.39271,-3.24967zM261.29785,169.04897c0.08524,0.02605 0.13342,0.04532 0.13342,0.04532l1.34454,0.5625c8.78913,2.21982 24.49012,2.71816 24.55962,15.69922c0.00741,1.3832 -0.40848,2.74181 -0.76201,4.07908c-0.52627,1.99072 -1.97247,4.80194 -2.80027,6.56088c-6.67415,4.92479 -17.72835,6.2611 -24.98656,1.50222c-4.37347,-2.86749 -8.18182,-10.25638 -9.37832,-15.1531c-1.34943,-5.52263 1.26687,-12.17568 5.53665,-15.88487c3.38805,-2.94323 8.44841,-2.65343 12.43353,-1.81854c0,0 2.44047,0.54233 1.89814,2.9828c-0.54233,2.44047 -2.9828,1.89814 -2.9828,1.89814c-1.42915,-0.34235 -3.28219,-0.6587 -4.99595,-0.47364z" fill="#9966ff" stroke-width="0.5"/><path d="M169.40169,197.98105c1.76776,-1.76776 3.53554,0 3.53554,0l1.22389,1.31444c0.45359,0.28349 5.48713,3.41492 5.69949,3.61213c1.55648,1.44545 2.28656,3.62249 3.79078,5.12224c2.41619,2.409 3.46488,2.31079 5.90663,4.57315c1.76806,1.63817 2.79476,4.06693 4.91775,5.34759c2.61623,1.57818 6.07975,1.7384 8.37646,3.94938c0.97146,0.93519 1.54531,2.21026 2.31797,3.3154c0.25869,2.13178 1.06657,4.26765 0.77606,6.39532c-0.19285,1.41237 -1.28654,2.56313 -2.15371,3.69451c-3.06392,3.99745 -9.13118,6.90591 -14.1975,5.87675c-3.12624,-0.63506 -6.67412,-3.79375 -8.85101,-5.9897c-8.03738,-8.10773 -6.75482,-19.80313 -6.74138,-30.28059c-0.83393,-0.45371 -1.69172,-0.87628 -2.49156,-1.37618l-2.10944,-2.0189c0,0 -1.76776,-1.76777 0,-3.53553zM178.8847,210.00897c-0.20191,6.66458 -0.28639,13.85323 3.36039,19.34636c1.57951,2.37921 5.60179,6.31185 8.49875,6.96035c3.24862,0.72723 7.1504,-1.82065 9.13584,-4.12326c0.43954,-0.50975 1.09746,-0.97078 1.17962,-1.63883c0.1448,-1.17747 -0.36371,-2.34464 -0.54557,-3.51696c-2.6242,-3.67673 -7.84118,-3.64606 -11.11204,-6.8534c-1.22407,-1.2003 -2.02514,-2.79529 -3.28748,-3.9553c-1.89782,-1.74398 -4.27308,-2.93543 -6.09337,-4.76018c-0.43584,-0.4369 -0.7992,-0.93655 -1.13616,-1.4588z" fill="#9966ff" stroke-width="0.5"/></g></g></svg>