<svg version="1.1" xmlns="http://www.w3.org/2000/svg" xmlns:xlink="http://www.w3.org/1999/xlink" width="81.26914" height="154.19898" viewBox="0,0,81.26914,154.19898"><g transform="translate(-154.34474,-74.91073)"><g data-paper-data="{&quot;isPaintingLayer&quot;:true}" fill="#9966ff" fill-rule="nonzero" stroke="none" stroke-width="0.5" stroke-linecap="butt" stroke-linejoin="miter" stroke-miterlimit="10" stroke-dasharray="" stroke-dashoffset="0" style="mix-blend-mode: normal"><path d="M177.83738,226.6097c0,-2.14086 1.83332,-2.44841 2.36005,-2.49259c1.50435,-1.12875 5.04991,-3.78788 5.15823,-3.85577c1.74063,-1.09106 3.7547,-1.81989 5.24891,-3.2297c10.0729,-9.50392 17.00453,-21.03713 24.25809,-32.65256c3.01436,-4.99136 4.54986,-10.3233 6.48499,-15.80526c1.17048,-3.3158 2.32608,-6.67289 3.37879,-10.06595c-0.73499,1.17383 -1.60457,2.25561 -2.6807,3.17707c-3.13762,2.68664 -8.09706,3.44309 -11.95001,4.09022c-11.2028,0.0256 -22.94432,-1.38384 -33.06902,-6.63081c-3.87682,-2.0091 -7.60449,-5.34886 -10.82859,-8.24818c-4.86277,-4.37291 -10.15643,-9.21266 -11.53518,-15.98825c-1.13678,-5.58648 0.98671,-11.25095 2.98554,-16.31732c1.96697,-4.98561 3.7052,-9.41718 6.61017,-13.93932c3.63311,-5.62497 7.57451,-11.04727 11.41969,-16.52945c2.86155,-4.07979 6.03346,-9.22328 10.67765,-11.53383c4.96693,-2.47112 10.23261,-1.69459 15.45067,-0.91651c3.00804,0.44854 5.90808,1.64829 8.58225,3.09683c7.6587,4.14854 15.44257,8.29009 21.67342,14.4962c0,0 1.76777,1.76777 0,3.53553c-0.08925,0.08925 -0.17849,0.16948 -0.26751,0.24139c0.52468,1.3575 0.5993,3.0296 0.92302,4.44719c0.58506,2.562 0.60182,5.16036 0.60568,7.75569c0.20368,0.54497 0.42052,1.09474 0.65889,1.65077c0.51395,1.19887 1.44362,2.27233 1.61172,3.56584c0.14888,1.1456 -0.58979,2.24351 -0.70743,3.39274c-0.30978,3.02651 -0.31899,6.15604 -0.57537,9.22817c0.14725,4.99262 0.01601,10.00624 -0.63977,14.91893c-1.28784,9.64759 -4.38156,19.0913 -7.60898,28.23715c-2.05802,5.83203 -3.75535,11.41442 -6.93521,16.75115c-7.4627,11.94981 -14.66221,24.0363 -25.13403,33.719c-3.31809,3.06804 -7.80365,5.16511 -11.45235,7.90163l-2.20362,0.5c0,0 -2.5,0 -2.5,-2.5zM226.24732,94.66702c-4.2238,-3.69427 -9.1742,-6.74518 -14.04334,-9.40515c-3.80641,-2.07941 -6.83073,-4.04923 -11.11854,-4.64267c-4.06469,-0.56255 -8.56261,-1.53821 -12.45876,0.42346c-3.80843,1.91751 -6.51905,6.61585 -8.85401,9.94911c-3.80555,5.43259 -7.71657,10.79874 -11.31349,16.37163c-2.74589,4.22907 -4.31006,8.38342 -6.16019,13.06373c-1.65021,4.17456 -3.63033,8.90419 -2.72626,13.53525c1.09219,5.59471 6.01364,9.6533 9.97022,13.21732c2.94215,2.65024 6.34233,5.75224 9.88337,7.57809c9.2506,4.76985 20.03804,6.0081 30.25701,6.0344c2.79079,-0.46064 6.86858,-0.97996 9.15867,-2.94601c2.75703,-2.36693 3.65894,-6.38286 4.90915,-9.56216c2.96047,-7.52852 4.5855,-15.03126 5.4447,-23.07173c-0.0397,-4.92475 -0.27533,-9.75785 -0.66305,-14.64132c-0.25712,-0.47047 -0.48231,-0.95205 -0.63457,-1.45749c-0.32031,-1.06327 -0.22961,-2.23305 -0.61696,-3.27377c-0.75486,-2.02809 -2.50049,-3.68667 -2.88352,-5.81652c-0.31578,-1.75591 -0.06177,-3.56762 -0.09266,-5.35143c0.61931,0.06608 1.27843,0.03633 1.94224,-0.00474z"/></g></g></svg>