<svg version="1.1" xmlns="http://www.w3.org/2000/svg" xmlns:xlink="http://www.w3.org/1999/xlink" width="95.29752" height="118.02313" viewBox="0,0,95.29752,118.02313"><g transform="translate(-190.9996,-87.6123)"><g data-paper-data="{&quot;isPaintingLayer&quot;:true}" fill="#9966ff" fill-rule="nonzero" stroke="none" stroke-width="0.5" stroke-linecap="butt" stroke-linejoin="miter" stroke-miterlimit="10" stroke-dasharray="" stroke-dashoffset="0" style="mix-blend-mode: normal"><path d="M225.68372,202.68654c0,-2.5 2.5,-2.5 2.5,-2.5l1.89754,0.04855c4.24994,0.87062 6.99285,0.2372 11.35194,-0.04355c1.59917,-0.103 3.22074,0.21108 4.80744,-0.01331c9.37267,-1.32548 19.28534,-7.90912 24.59868,-15.64766c2.24711,-3.27277 3.95514,-7.47801 5.72462,-11.01307c1.98722,-4.9539 2.83508,-9.4464 3.31088,-14.7019c0.40336,-4.45536 1.73185,-8.94503 -1.49723,-12.87522c-2.62551,-3.19558 -9.74059,-5.23633 -13.39034,-6.73285c-5.21212,-2.13715 -10.84798,-4.47772 -16.29749,-5.86421c-7.47597,-1.90207 -15.35464,-2.92048 -22.93066,-4.42764c-5.82713,-0.71057 -12.09442,-2.10123 -17.91096,-0.54654c-3.50125,0.93584 -4.59947,8.79176 -9.41445,6.99057c-1.59692,-0.59737 -1.66119,-2.99453 -2.24123,-4.59782c-0.84839,-2.34505 -1.20399,-4.85732 -1.45598,-7.33835c-0.38178,-3.7588 -0.36789,-7.4183 -0.69706,-11.19885c-0.16776,-1.92678 -1.18729,-3.70746 -1.40725,-5.62898c-0.25874,-2.26035 -0.16569,-4.57277 -0.66145,-6.79321c-0.49937,-2.23664 -2.05139,-6.23024 0.27284,-8.20494c1.15748,-0.98341 3.02424,0.28523 4.53635,0.42785c19.11915,2.2747 38.05803,2.47997 57.16232,0.37563c9.87814,-1.08808 19.54939,-1.95188 29.14084,-4.69791c0,0 2.40381,-0.6868 3.09061,1.71701c0.6868,2.40381 -1.71701,3.09061 -1.71701,3.09061c-9.86971,2.8144 -19.80517,3.74089 -29.96701,4.86023c-19.38638,2.13542 -38.64282,1.9709 -58.03021,-0.37225c0.45267,1.77895 1.1397,5.50651 1.14181,5.52708c0.69754,6.8082 1.43965,13.57993 2.11087,20.40505c0.05907,0.60062 0.92311,2.9443 1.2553,4.90303c1.70304,-2.55104 1.79108,-3.0803 5.33447,-4.21966c6.4443,-2.07213 13.74515,-0.43304 20.24812,0.36441c7.71238,1.52875 15.7356,2.56991 23.34497,4.51213c5.68395,1.45077 11.55109,3.8612 16.98897,6.0905c4.54403,1.86286 11.94429,4.12545 15.24198,8.0501c4.25556,5.06462 3.26448,10.76107 2.72451,16.67692c-0.13096,1.43476 0.20648,2.89809 -0.012,4.32214c-0.60003,3.911 -2.24657,8.25932 -3.71335,11.93535c-1.90079,3.8056 -3.74406,8.29116 -6.16803,11.80095c-6.14444,8.89686 -17.22949,16.19517 -28.00646,17.76084c-1.71289,0.24885 -3.46521,-0.06041 -5.19234,0.0534c-4.69576,0.30941 -8.01142,0.86699 -12.65764,-0.04297l-0.91695,0.04855c0,0 -2.5,0 -2.5,-2.5z"/></g></g></svg>