<svg version="1.1" xmlns="http://www.w3.org/2000/svg" xmlns:xlink="http://www.w3.org/1999/xlink" width="172.62084" height="153.60688" viewBox="0,0,172.62084,153.60688"><g transform="translate(-125.71982,-44.67038)"><g data-paper-data="{&quot;isPaintingLayer&quot;:true}" fill="#9966ff" fill-rule="nonzero" stroke="none" stroke-width="0.5" stroke-linecap="butt" stroke-linejoin="miter" stroke-miterlimit="10" stroke-dasharray="" stroke-dashoffset="0" style="mix-blend-mode: normal"><path d="M164.15407,144.675c-2.5,0 -2.5,-2.5 -2.5,-2.5l0.04855,-1.89754c0.29094,-1.34942 0.29415,-2.79497 0.87281,-4.04825c3.17609,-6.87883 12.6848,-9.45015 18.90623,-12.53762c9.72337,-4.82326 20.00656,-10.17959 30.62667,-12.79312c11.56424,-2.84587 23.56951,-2.68735 35.05057,0.1972c4.32428,1.08645 9.03724,2.46171 12.74237,5.12804c5.27182,3.79376 9.45533,9.87628 13.50886,14.86524c10.07086,12.4527 15.34783,28.68053 20.21452,43.72301c1.0174,3.14469 1.97293,6.31004 3.05084,9.4345c1.11456,3.23071 2.86595,5.11426 0.45643,8.53227c-3.01735,4.28023 -4.99127,3.79327 -9.3932,4.62698c-6.88533,1.30407 -14.17594,0.97453 -21.1123,0.12154c-34.0607,-4.22098 -67.29426,-18.00226 -97.56805,-33.74463c-9.84005,-5.11682 -19.45056,-10.72936 -29.25506,-15.8601c-4.78026,-2.50154 -12.93979,-3.29825 -14.01906,-9.69648c-0.54344,-3.22169 2.4935,-8.02636 3.76912,-10.82792c4.72829,-10.38439 11.61177,-19.78766 18.81298,-28.58091c5.3193,-6.49162 11.21439,-12.49382 17.00138,-18.57018c3.44443,-3.61666 6.76505,-7.69628 10.49855,-11.01026c11.61257,-10.30771 26.17624,-17.39772 39.94145,-24.28691c0,0 2.23607,-1.11803 3.3541,1.11803c1.11803,2.23607 -1.11803,3.3541 -1.11803,3.3541c-13.3645,6.6756 -27.59322,13.55193 -38.86427,23.55942c-3.62686,3.22026 -6.84497,7.20046 -10.1911,10.71388c-5.70017,5.98515 -11.51787,11.89271 -16.75373,18.28986c-6.92345,8.45409 -13.59597,17.49008 -18.12948,27.48196c-0.99467,2.19227 -3.36534,5.72845 -3.35081,8.21332c0.01075,1.83729 2.44217,1.76907 3.46443,2.21393c2.63484,1.14662 5.30026,2.23827 7.84693,3.56929c9.82227,5.13361 19.44481,10.75849 29.29938,15.88287c13.97145,7.26515 28.74979,14.60544 43.60879,19.88485c6.20761,2.20557 12.68582,3.86255 18.9954,5.75858c11.11149,3.33901 21.74518,6.14677 33.27202,7.57523c6.48433,0.81014 13.15985,1.03302 19.59597,-0.07757c3.20991,-0.55389 3.89511,0.12534 6.0865,-2.40924c1.06024,-1.22628 -0.67921,-3.39652 -0.95081,-4.13294c-0.01623,-0.04401 -3.07419,-9.4974 -3.10557,-9.59439c-4.65843,-14.39878 -9.63143,-30.22381 -19.33786,-42.10915c-3.76089,-4.62879 -7.659,-10.44193 -12.55185,-13.96199c-3.16391,-2.27622 -7.35057,-3.41826 -11.0315,-4.33354c-10.71644,-2.6647 -21.84861,-2.85005 -32.64649,-0.19193c-10.25793,2.5252 -20.20586,7.75828 -29.59617,12.41633c-6.37484,3.16091 -15.69184,5.2254 -17.09803,13.08725l0.04855,0.91695c0,0 0,2.5 -2.5,2.5z"/></g></g></svg>