<svg version="1.1" xmlns="http://www.w3.org/2000/svg" xmlns:xlink="http://www.w3.org/1999/xlink" width="371.01915" height="225.81115" viewBox="0,0,371.01915,225.81115"><g transform="translate(-55.48254,-93.25)"><g data-paper-data="{&quot;isPaintingLayer&quot;:true}" fill-rule="nonzero" stroke="none" stroke-linecap="butt" stroke-linejoin="miter" stroke-miterlimit="10" stroke-dasharray="" stroke-dashoffset="0" style="mix-blend-mode: normal"><path d="M253.67463,319.06115v-58.8h11.2v39.78709c0,0 11.92702,-1.25555 15.06761,1.98965c2.98482,3.08425 3.33239,17.02326 3.33239,17.02326z" fill="#9966ff" stroke-width="0"/><path d="M195.67463,319.06115v-58.8h11.2v39.78709c0,0 11.92703,-1.25556 15.06762,1.98965c2.98481,3.08424 3.33239,17.02326 3.33239,17.02326z" fill="#9966ff" stroke-width="0"/><g data-paper-data="{&quot;index&quot;:null}" fill="#9966ff" stroke-width="0"><path d="M407.2521,281.35575l-36.76955,-36.76956l7.54248,-7.54247l36.76955,36.76955z"/><path d="M411.96615,292.19805c-4.29577,4.29577 -11.26058,4.29577 -15.55635,0c-4.29577,-4.29577 -4.29577,-11.26058 0,-15.55635c4.29577,-4.29577 11.26058,-4.29577 15.55635,0c4.29576,4.29577 4.29576,11.26058 0,15.55635z"/><path d="M421.86564,289.84102c-4.29577,4.29577 -11.26058,4.29577 -15.55635,0c-4.29577,-4.29577 -4.29577,-11.26058 0,-15.55635c4.29577,-4.29577 11.26058,-4.29577 15.55635,0c4.29576,4.29577 4.29576,11.26058 0,15.55635z"/><path d="M423.27987,278.52732c-4.29577,4.29577 -11.26058,4.29577 -15.55635,0c-4.29577,-4.29577 -4.29577,-11.26058 0,-15.55635c4.29577,-4.29577 11.26058,-4.29577 15.55635,0c4.29576,4.29577 4.29576,11.26058 0,15.55635z"/></g><g fill="#9966ff" stroke-width="0"><path d="M67.18966,270.81327l36.76955,-36.76955l7.54247,7.54247l-36.76955,36.76955z"/><path d="M70.01809,273.6417c4.29577,-4.29577 11.26058,-4.29577 15.55635,0c4.29577,4.29577 4.29577,11.26058 0,15.55635c-4.29577,4.29577 -11.26058,4.29577 -15.55635,0c-4.29577,-4.29577 -4.29577,-11.26058 0,-15.55635z"/><path d="M60.11859,271.28467c4.29577,-4.29577 11.26058,-4.29577 15.55635,0c4.29577,4.29577 4.29577,11.26058 0,15.55635c-4.29577,4.29577 -11.26058,4.29577 -15.55635,0c-4.29577,-4.29577 -4.29577,-11.26058 0,-15.55635z"/><path d="M58.70437,259.97097c4.29577,-4.29577 11.26058,-4.29577 15.55635,0c4.29577,4.29577 4.29577,11.26058 0,15.55635c-4.29577,4.29577 -11.26058,4.29577 -15.55635,0c-4.29577,-4.29577 -4.29577,-11.26058 0,-15.55635z"/></g><path d="M95.25001,266.75v-173.5h289.5v173.5z" fill="#5bcefa" stroke-width="0"/><path d="M95.25001,231.25v-103h289.5v103z" fill="#f5a9b8" stroke-width="0"/><path d="M95.25001,198.75v-36h289.5v36z" fill="#ffffff" stroke-width="0"/><path d="M139.10911,157.99011c0.98501,0.24625 1.46996,0.79254 1.69857,1.35453c3.36225,0.21352 6.80937,0.67718 10.09838,0.25141c10.00977,-1.29579 20.35893,-7.06602 28.21624,-13.21033c3.19802,-2.50081 6.47454,-5.16524 8.59382,-8.62858c0,0 1.325,-2.11999 3.44499,-0.795c2.11999,1.325 0.795,3.44499 0.795,3.44499c-6.44646,10.14404 -19.60212,17.40861 -30.66069,21.3601c-4.11799,1.47145 -5.46371,2.22362 -9.86259,2.801c-4.34235,0.56995 -8.90928,-0.32267 -13.26337,-0.31942l-2.09203,-4.43967c0,0 0.60634,-2.42536 3.0317,-1.81902z" fill="#9966ff" stroke-width="0.5"/><path d="M191.08307,168.41621c-0.80013,0.39527 -1.52153,0.80599 -1.85919,1.14583c-3.52307,3.54583 -5.2782,9.64933 -4.275,14.3371c0.57398,2.68213 1.15761,6.4373 3.67588,8.15025c1.84366,1.25408 3.24587,0.87359 5.32023,1.23883c1.68872,0.29734 3.27065,1.49045 4.97543,1.30635c3.18086,-0.34349 5.59508,-3.79622 6.98604,-6.2416c1.50495,-4.01271 3.13765,-11.9527 -0.50478,-15.50307c-0.58546,-0.57066 -3.9742,-1.82654 -4.67996,-2.19654c-1.08761,-0.5702 -2.40041,-0.98633 -3.60616,-0.75356l-3.36402,0.33659c0,0 -2.19819,0.21982 -2.66846,-1.82019zM195.70814,165.01594l0.84852,-0.0848c1.14547,-0.10015 2.30782,-0.52047 3.43641,-0.30045c1.09196,0.21287 1.95499,1.06437 2.95743,1.5469c1.87698,0.90349 4.52955,1.65801 5.98671,3.13679c5.26179,5.33984 3.81157,14.98608 1.49522,21.16359c-2.31691,4.04138 -5.90038,8.51466 -11.01395,9.09174c-1.27826,0.14425 -4.85088,-1.09378 -6.35791,-1.36032c-3.23855,-0.57278 -4.20531,0.078 -7.34643,-2.0945c-3.59983,-2.48976 -4.833,-7.21491 -5.65745,-11.18308c-1.32566,-6.38049 0.95097,-14.24274 5.725,-18.99624c1.48299,-1.47661 4.49954,-2.63491 6.37242,-3.47129c0,0 2.28453,-1.01534 3.29987,1.26918c0.21491,0.48355 0.28198,0.91025 0.25417,1.28248z" fill="#9966ff" stroke-width="0.5"/><path d="M258.18158,170.48699c0.05209,-0.13022 0.10857,-0.25023 0.16877,-0.36073c-0.09951,0.0768 -0.19617,0.15822 -0.28971,0.24447c-2.6572,2.45007 -4.79163,7.18741 -3.79668,10.78179c1.42266,5.13957 4.80679,11.626 10.07526,13.57369c2.6927,0.99546 5.49225,0.4721 8.24567,0.20191c2.99475,-0.29387 4.8263,-0.43639 7.3142,-2.09315c0.8921,-2.20682 2.41593,-4.91684 2.43773,-7.36003c0.07241,-8.11483 -11.12909,-9.08174 -16.56109,-9.924c-1.42956,-0.22166 -2.80842,-0.69563 -4.21263,-1.04345l-1.98881,-0.77083c0,0 -2.32119,-0.92848 -1.39271,-3.24967zM261.29784,169.04896c0.08524,0.02605 0.13342,0.04532 0.13342,0.04532l1.34453,0.5625c8.78913,2.21982 24.49012,2.71816 24.55962,15.69922c0.00741,1.3832 -0.40848,2.74181 -0.76201,4.07908c-0.52627,1.99072 -1.97247,4.80194 -2.80027,6.56088c-6.67415,4.92479 -17.72835,6.2611 -24.98656,1.50222c-4.37347,-2.86749 -8.18182,-10.25638 -9.37832,-15.1531c-1.34943,-5.52263 1.26687,-12.17568 5.53665,-15.88487c3.38805,-2.94323 8.44841,-2.65343 12.43353,-1.81854c0,0 2.44047,0.54233 1.89814,2.9828c-0.54233,2.44047 -2.9828,1.89814 -2.9828,1.89814c-1.42915,-0.34235 -3.28219,-0.6587 -4.99595,-0.47364z" fill="#9966ff" stroke-width="0.5"/><path d="M169.40167,197.98104c1.76776,-1.76776 3.53554,0 3.53554,0l1.2239,1.31444c0.45359,0.28349 5.48713,3.41492 5.69949,3.61213c1.55648,1.44545 2.28656,3.62249 3.79078,5.12224c2.41619,2.409 3.46488,2.31079 5.90663,4.57315c1.76806,1.63817 2.79476,4.06693 4.91775,5.34759c2.61623,1.57818 6.07975,1.7384 8.37646,3.94938c0.97146,0.93519 1.54531,2.21026 2.31797,3.3154c0.25869,2.13178 1.06657,4.26765 0.77606,6.39532c-0.19285,1.41237 -1.28654,2.56313 -2.15371,3.69451c-3.06392,3.99745 -9.13118,6.90591 -14.1975,5.87675c-3.12624,-0.63506 -6.67412,-3.79375 -8.85101,-5.9897c-8.03738,-8.10773 -6.75482,-19.80313 -6.74138,-30.28059c-0.83393,-0.45371 -1.69172,-0.87628 -2.49156,-1.37618l-2.10944,-2.0189c0,0 -1.76776,-1.76777 0,-3.53553zM178.88468,210.00896c-0.20191,6.66458 -0.28639,13.85323 3.36039,19.34636c1.57951,2.37921 5.60179,6.31185 8.49875,6.96035c3.24862,0.72723 7.1504,-1.82065 9.13584,-4.12326c0.43954,-0.50975 1.09746,-0.97078 1.17962,-1.63883c0.1448,-1.17747 -0.36371,-2.34464 -0.54557,-3.51696c-2.6242,-3.67673 -7.84118,-3.64606 -11.11204,-6.8534c-1.22407,-1.2003 -2.02513,-2.79529 -3.28747,-3.9553c-1.89782,-1.74398 -4.27308,-2.93543 -6.09337,-4.76018c-0.43584,-0.4369 -0.7992,-0.93655 -1.13616,-1.4588z" fill="#9966ff" stroke-width="0.5"/></g></g></svg>