<svg version="1.1" xmlns="http://www.w3.org/2000/svg" xmlns:xlink="http://www.w3.org/1999/xlink" width="181.0795" height="122.43535" viewBox="0,0,181.0795,122.43535"><g transform="translate(-168.33608,-116.14566)"><g data-paper-data="{&quot;isPaintingLayer&quot;:true}" fill-rule="nonzero" stroke="none" stroke-width="0.5" stroke-linecap="butt" stroke-linejoin="miter" stroke-miterlimit="10" stroke-dasharray="" stroke-dashoffset="0" style="mix-blend-mode: normal"><path d="M219.86503,125.26344c0.0663,0.09292 0.13286,0.18541 0.19966,0.27743c0.21653,0.29829 0.46065,0.5737 0.72129,0.83535l2.04249,-1.16714l0.02479,0.04339c0.05039,-0.04586 0.1014,-0.09113 0.15306,-0.13577c0.41007,-0.35431 3.46677,-1.28489 5.19361,-1.79471c-1.12679,0.03425 -2.25322,0.06117 -3.37913,0.07956c-1.64396,0.48054 -3.26539,1.14704 -4.95577,1.86187zM220.04897,132.53718c-0.02588,-0.04675 -0.05318,-0.09258 -0.08209,-0.13736c-0.9896,-1.53319 -2.80867,-2.38095 -3.89394,-3.84798c-0.13517,-0.18272 -0.25843,-0.37303 -0.37399,-0.56827l-0.3081,0.26959c-0.44092,0.38989 -1.02051,0.62653 -1.65538,0.62653c-1.38071,0 -2.5,-1.11929 -2.5,-2.5v-1.34437c-0.24254,2.53668 0.56659,5.27853 0.66451,7.90714c0.10014,2.68811 0.08215,5.36688 -0.00328,8.04079c3.97475,-0.49165 7.90037,-0.64431 11.89266,-1.0879c3.88889,-0.4321 7.77341,-0.86889 11.66567,-1.20523c0.13701,-0.45851 0.3713,-0.92179 0.16953,-1.30144c-2.70808,0.30448 -5.36122,0.57363 -8.09556,0.17788c-0.67255,0.59511 -1.37105,1.13474 -2.2237,1.30191c-0.8145,0.15969 -1.49335,-0.62326 -2.21331,-1.12056l-2.36838,1.42103c-0.38339,0.2392 -0.83629,0.37741 -1.32147,0.37741c-1.38071,0 -2.5,-1.11929 -2.5,-2.5c0,-0.62635 0.23034,-1.1989 0.61093,-1.63756l1.99093,-2.32275l0.18722,0.16047c0.11632,-0.23807 0.23549,-0.47459 0.35774,-0.70934zM214.40215,116.21302c1.26569,0 2.31171,0.94057 2.47719,2.16088c2.4429,0.06429 4.88998,0.07351 7.33971,0.04033c3.00937,-0.78627 6.10268,-1.0429 9.60682,-0.31852c9.73088,-0.48466 19.47234,-1.37516 29.12965,-1.88012c6.48451,-0.33906 12.9609,0.66509 19.44683,0.6641c5.7347,0.00473 11.34147,0.67803 17.00315,1.30024c0.44189,-0.39408 1.02463,-0.63357 1.6633,-0.63357c0.82778,0 1.56159,0.40231 2.01657,1.02207c1.46462,0.13289 8.01,0.4903 8.72189,1.348c1.41779,1.70819 1.08466,4.3128 1.41041,6.50869c0.54433,3.66931 0.27792,6.64473 0.14813,10.3195c-0.06662,1.88618 -0.18297,3.76955 -0.33528,5.65089c0.93995,0.17729 1.87944,0.35373 2.81882,0.52451l1.55279,-0.04033c0,0 2.5,0 2.5,2.5c0,2.5 -2.5,2.5 -2.5,2.5l-2.44721,-0.04033c-0.8019,-0.14582 -1.6033,-0.29507 -2.40458,-0.44495c-1.07142,9.80708 -2.78961,19.577 -3.19186,29.41835c-0.20177,4.7637 -0.08107,9.05647 0.31776,13.57097c0.05327,0.10828 0.09946,0.22088 0.13781,0.33816c0.13026,0.39835 0.11296,0.79621 0.00707,1.19269c0.11492,1.14057 0.24683,2.29977 0.39504,3.48835c0.17188,1.37838 0.94676,7.24219 0.66965,7.58524c-1.487,1.84082 -4.25766,2.18518 -6.56933,2.69111c-3.25255,0.71186 -8.12614,-0.00441 -11.8923,-0.12626c-0.34507,0.96751 -1.26936,1.65999 -2.35538,1.65999c-0.20502,0 -0.40428,-0.02468 -0.59496,-0.07123l-4.8283,-1.07296l0.0095,-0.04276c-0.09451,-0.01028 -0.18898,-0.02182 -0.2834,-0.0347c-0.07722,-0.01053 -0.1563,-0.02353 -0.23712,-0.03887c-4.40213,0.36987 -8.79163,0.87197 -13.20633,1.10494c-8.36333,0.44135 -16.74974,0.47778 -25.12161,0.4857c-8.37577,0.00792 -16.79735,-0.24611 -25.14731,0.56209c-2.65652,0.25713 -5.26596,0.97926 -7.93274,1.08666c-1.48359,0.05975 -3.32232,0.84514 -4.45284,-0.11742c-1.95725,-1.66646 -1.80913,-6.87622 -1.70107,-9.16636c0.19101,-4.04782 1.60383,-8.40228 1.79226,-12.57912c-0.68718,-0.27329 -1.46275,-0.89018 -1.46275,-2.28262c0,-1.17773 0.55482,-1.80064 1.14171,-2.1301c-0.74907,-4.72144 -2.00792,-9.37438 -2.4452,-14.15144c-0.80009,-3.85879 0.11894,-6.62259 0.30606,-10.49841c0.40451,-8.37849 1.30962,-16.69404 0.99959,-25.11615c-0.18933,-5.14342 -1.5396,-8.97311 0.9939,-13.67758l0.26787,-0.54435c0,0 1.11803,-2.23607 3.3541,-1.11803c0.17293,0.08647 0.3258,0.17962 0.46068,0.27791c0.27747,-1.07836 1.25632,-1.87517 2.42128,-1.87517zM260.6828,123.73279c0.84188,0.34764 1.37373,1.32021 2.25791,1.53893c0.81048,0.20049 1.65084,-0.48361 2.47764,-0.36748c0.18493,0.02598 0.37043,0.05932 0.55638,0.09906c0.02005,-0.01677 0.03974,-0.03318 0.05906,-0.0492c1.40287,-0.6751 2.6773,-1.74443 4.20861,-2.02529c0.7169,-0.13149 1.44333,-0.07516 2.17298,0.02412c0.55894,-0.39708 0.95834,-0.65179 1.0945,-0.67661c2.18636,-0.39855 3.58976,-0.25955 4.47372,0.25479c0.76465,-0.31299 1.4781,-0.62344 2.29047,-0.6861c-5.69805,-0.17453 -11.39806,-0.93631 -17.09195,-0.63454c-3.243,0.17187 -6.49525,0.38502 -9.75328,0.61068c2.52137,0.42425 5.00482,0.9829 7.25398,1.91165zM282.91513,122.50884c1.23612,0.66928 1.54819,2.36698 2.52623,3.37662c0.68693,0.70912 2.75253,1.25024 3.59959,1.3463c2.7438,0.31117 9.06127,-1.84759 11.23623,0.49697c0.00415,-0.00667 0.00833,-0.01333 0.01253,-0.01996c-0.05536,-0.76334 -0.09846,-1.52108 -0.12944,-2.28138l-0.30413,0.07603l-0.57752,-2.31008c-5.62161,-0.62183 -11.18444,-1.31871 -16.87668,-1.31364c-0.44715,-0.00022 -0.89431,-0.00531 -1.34149,-0.0145c0.55045,0.07069 1.15675,0.26576 1.85468,0.64364zM307.73548,131.87969c-0.63486,0 -1.21445,-0.23664 -1.65538,-0.62653l-0.50016,-0.43764c0.15985,1.25035 0.28812,2.26012 0.32189,2.52458l-0.1309,0.27648l0.1188,0.01188l-0.33058,3.30583c-0.11199,1.27708 -1.18419,2.27874 -2.49034,2.27874c-0.69365,0 -1.32132,-0.2825 -1.77424,-0.73873c-0.42924,0.27513 -0.93547,0.55738 -1.52896,0.84996c-1.50072,0.73984 -3.39922,0.14186 -5.00989,-0.31121c-0.47104,-0.1325 -0.77712,-0.57326 -1.10653,-0.97218l-1.31719,-0.11466l0.00236,-0.02708l-0.07913,0.0192c-1.51247,-0.22604 -3.01843,-0.43839 -4.51885,-0.64733l-3.87564,0.42802c-4.07887,1.14754 -9.37216,0.53432 -13.49701,-0.18045c-0.87108,-0.15094 -2.79983,-0.3945 -4.66095,-0.97581c-0.93114,0.21012 -1.96935,0.32777 -3.04896,0.34096c-0.80452,0.6228 -1.61459,1.24246 -2.43184,1.85344c3.05066,0.2505 6.10336,0.47897 9.18015,0.47587c4.04555,0.00363 8.40029,-0.24776 12.3788,0.3622c2.8467,0.43644 6.28601,1.48523 9.19659,1.30614c2.31065,-0.14218 4.60132,-0.78228 6.91329,-0.6635c3.42538,0.17598 6.81992,0.67182 10.20034,1.26525c0.12392,-1.63676 0.2195,-3.2751 0.27779,-4.91549c0.0565,-1.58993 0.0466,-3.18092 0.01196,-4.77203c-0.2059,0.05487 -0.42225,0.08411 -0.64543,0.08411zM247.54135,146.42151c-1.8219,0.77428 -3.79017,2.50926 -5.64971,1.83035c-1.27239,-0.46454 -0.27353,-2.69523 -0.4103,-4.04284c-1.51653,0.70117 -3.24676,3.14952 -4.54958,2.1035c-0.7952,-0.63846 -1.13062,-1.57601 -1.28104,-2.62487c-3.77061,0.33083 -7.53379,0.75763 -11.30246,1.17637c-4.26234,0.4736 -8.43334,0.60204 -12.68187,1.1907c-0.23365,4.14544 -0.55253,8.28596 -0.7668,12.43825c-0.18304,3.5471 -1.18945,6.0644 -0.36061,9.50159c0.43753,4.84699 1.78729,9.56811 2.49394,14.36647c2.5043,-0.24472 4.99241,-0.62794 7.52458,-0.47652c7.96063,0.47604 15.98817,1.00245 23.96919,0.99827c19.94651,1.97675 39.76069,-2.21949 59.71621,-2.33405c0.02251,-1.28702 0.06474,-2.5956 0.11993,-3.94413c0.42729,-10.07356 2.21051,-20.0733 3.26982,-30.11338c-3.33028,-0.58362 -6.672,-1.07855 -10.05251,-1.28304c-2.1477,-0.12992 -4.27116,0.56122 -6.42004,0.66983c-4.16508,0.21052 -8.29937,-1.68902 -12.42461,-1.665c-3.10273,0.01807 -6.19622,-0.00303 -9.33333,0c-5.28662,-0.00488 -10.50625,-0.65556 -15.76138,-0.96438c-1.96723,1.19877 -3.9939,2.27806 -6.09942,3.17287zM250.01534,130.09076c-0.31161,-1.13383 -0.10996,-2.37556 0.8779,-3.63816c-2.25149,-0.32703 -4.5077,-0.57515 -6.59996,-0.94567c-3.60183,-0.63785 -7.14167,-1.69313 -10.75152,-2.3501c-0.03828,-0.00985 -0.07649,-0.01954 -0.11463,-0.02908c0.34064,0.30058 0.62469,0.75274 0.75981,1.42831c0.49029,2.45145 -1.96116,2.94174 -1.96116,2.94174l-1.43859,0.27645c-0.44888,0.13446 -0.8994,0.26374 -1.34952,0.39427c0.00001,0.00299 0.00002,0.00598 0.00002,0.00897c0,0.69036 -0.27982,1.31536 -0.73223,1.76777l-0.93663,0.93663c2.11702,-1.47092 4.39077,-2.16598 7.52481,-1.01494c0.87611,0.32177 1.04814,1.45209 1.45161,2.3667c0.00603,-0.00063 0.01208,-0.00126 0.01812,-0.00189c2.70407,-0.28231 5.48159,0.21366 8.15063,-0.30394c1.76207,-0.34171 3.44183,-1.07435 5.10136,-1.83705zM240.41408,137.08671c0.0176,0.41157 0.0097,0.82742 -0.00713,1.23803c3.84078,-0.22878 7.69402,-0.317 11.57127,-0.16432c1.36708,-0.84326 2.69864,-1.73146 4.00813,-2.65089c-0.76751,-0.37396 -1.4755,-0.82913 -2.0913,-1.37151c-0.1387,-0.07003 -0.27602,-0.14305 -0.41159,-0.21895c-2.47482,1.06008 -4.93536,2.40508 -7.59314,2.91249c-1.79656,0.343 -3.63828,0.27039 -5.47623,0.25514zM244.246,143.84085c0.17251,0.33275 0.26207,-0.14986 0.40062,-0.70745c-0.21425,0.00639 -0.42845,0.01335 -0.64259,0.02086c0.05088,0.23715 0.12811,0.46697 0.24197,0.68659zM279.31648,127.21968c-0.03281,0.41125 -0.0754,0.83408 -0.11943,1.26336c-0.00984,0.09599 -0.02088,0.19183 -0.03303,0.28754c0.83242,0.11501 1.67215,0.21647 2.51387,0.30488c-0.40007,-0.70117 -0.52406,-1.6167 -1.12205,-2.15826c-0.28591,-0.25893 -0.75402,0.16515 -1.12537,0.26952c-0.03805,0.0107 -0.07605,0.02169 -0.11399,0.03296zM254.79005,191.28121c-0.17073,-0.01421 -0.34149,-0.02836 -0.51227,-0.04245l0.38938,0.2225c0.04178,-0.05939 0.08272,-0.11943 0.12289,-0.18006zM244.27762,190.54325c-2.25784,-0.11539 -4.53966,-0.11335 -6.83529,-0.03378c1.37174,0.6385 3.0426,1.41629 4.56298,2.12511c0.45045,-0.65713 1.20664,-1.08822 2.06351,-1.08822c0.32061,0 0.62712,0.06035 0.90879,0.17031l3.57745,1.30089c0.2262,0.0718 0.45989,0.12946 0.69672,0.18123c0.18976,-0.00869 0.41112,-0.01714 0.65339,-0.02839c-0.00201,-0.04109 -0.00302,-0.08245 -0.00302,-0.12404c0,-0.85993 0.43417,-1.61845 1.09526,-2.06831c-2.23228,-0.16933 -4.47078,-0.31985 -6.71979,-0.43479zM296.40641,199.49714c-0.65201,-0.43019 -1.4067,-0.64883 -2.19507,-0.76866c-0.10644,0.76249 -0.55681,1.41482 -1.18931,1.79519c1.40891,0.01034 2.8172,0.05787 4.22514,0.10621c-0.24174,-0.4189 -0.45301,-0.8769 -0.84076,-1.13274zM257.24681,201.87486c-1.66618,-0.09282 -3.32443,-0.27012 -4.97929,-0.48233c-0.26965,0.09949 -0.56116,0.15382 -0.86536,0.15382c-0.20502,0 -0.40428,-0.02468 -0.59496,-0.07123l-2.94736,-0.65497l0.00891,-0.0401c-0.01929,-0.00274 -0.03858,-0.00549 -0.05787,-0.00823c-0.0711,-0.00715 -0.14218,-0.0155 -0.21326,-0.02513c-0.08025,-0.01087 -0.15987,-0.02388 -0.23891,-0.03886c-2.68243,-0.37776 -5.36771,-0.71817 -8.0752,-0.80921c-0.35962,0.20029 -0.77382,0.3144 -1.21467,0.3144c-0.16138,0 -0.31918,-0.01529 -0.47205,-0.0445l-4.88002,-0.84138l0.07196,-0.41736c-0.56782,-0.00537 -1.13481,-0.02344 -1.70031,-0.05627c-0.35008,0.4789 -0.86637,0.82861 -1.46398,0.96422l-3.94927,0.98732l-0.00389,-0.01557c-0.09822,0.02598 -0.19719,0.04986 -0.29699,0.07148c-1.10046,0.23846 -2.67347,-2.22261 -3.15571,-1.20511c-0.48634,1.02616 1.78396,2.24159 2.11375,3.1501c7.14278,-0.42776 14.321,-0.25605 21.46955,-0.26282c4.71656,-0.00446 9.41233,-0.1579 14.09894,-0.3804c-0.21627,-0.04402 -0.42239,-0.11597 -0.61443,-0.21191c-0.67779,-0.01306 -1.35754,-0.03798 -2.03957,-0.07598zM277.4321,195.2315c0.99045,-0.0899 1.98069,-0.21413 2.97067,-0.35288c0.25346,-0.33707 0.59018,-0.60797 0.97962,-0.78217c-0.37259,-0.25853 -0.736,-0.52977 -1.08672,-0.81862l-0.76384,-0.4092c-1.75924,-0.01932 -3.51116,-0.07067 -5.25779,-0.1461c0.25738,0.29052 0.44817,0.64139 0.54846,1.0287c0.24008,0.14782 0.38229,0.23754 0.3924,0.24872c0.05569,0.06163 0.11062,0.12383 0.16481,0.18658l0.02599,-0.02835l1.29362,1.18582c0.24409,-0.03744 0.48835,-0.07496 0.73278,-0.1125zM301.42939,197.96285c0.28473,-0.1011 0.0741,-0.60451 0.17454,-0.88948c0.40741,-1.15598 1.54712,-3.73308 2.29428,-4.60069c0.01519,-0.01764 0.03106,-0.03452 0.04756,-0.05069c-0.26429,-0.00716 -0.52809,-0.03676 -0.79166,-0.0739c-0.23275,0.88886 -0.94252,1.58468 -1.83928,1.79746c-0.3633,0.74094 -1.08245,1.27574 -1.93467,1.38161c0.77353,0.85872 1.04683,2.7916 2.04923,2.43569zM212.6872,197.54892c0.31231,0 0.61125,0.05727 0.88688,0.16187l4.66012,1.64475l-0.0472,0.13374c0.72058,0.64689 1.77647,1.93812 1.77893,1.20509c0.00463,-1.37774 -3.02122,-2.61678 -2.04686,-3.59085c0.41261,-0.41248 0.80689,-0.75612 1.18519,-1.0388c-0.15993,-0.0687 -0.32059,-0.13412 -0.48226,-0.19493l-0.16245,-0.19411l-0.0481,0.07826l-3.6139,-2.22116c-0.4277,-0.25307 -0.77347,-0.62996 -0.98798,-1.08131c-0.41343,0.02611 -0.82616,0.05026 -1.23813,0.07223c-0.00761,0.05706 -0.01512,0.11401 -0.02253,0.17084c-0.22032,1.68939 -0.38836,3.32064 -0.53265,4.94543c0.21351,-0.05934 0.43852,-0.09105 0.67093,-0.09105zM224.39743,192.46824l2.50517,0.62629c-0.0003,-0.01602 -0.00045,-0.03208 -0.00045,-0.04817c0,-0.73539 0.31752,-1.39663 0.82295,-1.85408c-1.8754,0.17719 -3.75047,0.36854 -5.61977,0.55284c0.79745,0.18803 1.60754,0.35602 2.2921,0.72312zM220.24681,186.87486c-2.33758,-0.15357 -4.67076,0.19416 -7.00905,0.44431c-0.00425,0.05325 -0.00865,0.10652 -0.01319,0.1598c2.41564,-0.14485 4.85205,-0.35518 7.29898,-0.58595c-0.09226,-0.00605 -0.1845,-0.0121 -0.27673,-0.01816zM274.9045,187.46091c-0.75194,0.06262 -1.50388,0.12388 -2.25582,0.18323c0.70412,0.03713 1.409,0.07068 2.11478,0.10009c0.04113,-0.09776 0.0883,-0.19236 0.14104,-0.28332zM280.71414,187.7406c0.13899,0.04234 0.27814,0.08416 0.41742,0.12563c3.85157,-0.35099 7.63989,-0.72227 11.46996,-0.89197c0.0594,-0.36427 0.19753,-0.70209 0.39634,-0.99543c-4.54113,0.294 -9.07762,0.70028 -13.61277,1.09724zM291.24358,193.54024c-0.24223,0.00202 -0.46428,0.07854 -0.67484,0.19776c0.53093,-0.00299 1.06171,0.00945 1.59235,0.0404c-0.29184,-0.14549 -0.59425,-0.24085 -0.91751,-0.23816zM306.58513,200.43787c0.2961,-0.28985 -0.12171,-0.63933 -0.50558,-1.01598c-0.29047,0.49763 -0.59902,0.97776 -0.92276,1.41306c0.54807,0.02251 1.06172,-0.0382 1.42834,-0.39708zM214.9318,203.49227l-0.25132,0.37688c0.14898,-0.01487 0.29754,-0.03166 0.44535,-0.05184c0.17351,-0.02368 0.34693,-0.04806 0.5203,-0.07292zM260.16753,195.02069c0.24619,0.37942 0.39229,0.82979 0.40089,1.31371l1.22972,0.61486c0.12212,-0.00273 0.24419,-0.00582 0.3662,-0.00927c-0.71891,-0.62031 -1.39274,-1.2585 -1.9968,-1.9193z" fill="#5bcefa"/><path d="M299.02168,172.51764c-2.52893,0.53896 -5.42199,0.4214 -7.88966,-0.40363c-2.94331,3.90203 -8.48723,6.40732 -13.21873,4.29328c-0.57306,-0.25605 -1.24361,-0.51832 -1.86735,-0.83498c-1.33759,0.33297 -2.84645,0.23798 -4.22906,0.30606c-4.1667,0.20517 -8.84368,-0.40539 -13.20862,-1.49653c-0.90701,0.15389 -1.82355,0.25435 -2.76775,0.26652c-1.56258,0.59143 -3.20716,0.88258 -4.8043,0.78958c-2.90005,0.82436 -7.85851,2.22577 -7.9443,2.24337c-1.30212,0.26715 -2.71981,0.53687 -4.18634,0.75454c-3.32668,1.95483 -8.52031,1.75899 -11.66531,1.42533c-1.4295,-0.15166 -2.9911,-0.24094 -4.18481,-1.04188c-0.04766,-0.03198 -0.09473,-0.06421 -0.14122,-0.0967c-1.00922,-0.34994 -1.89893,-0.77998 -2.59395,-1.28204c-3.13809,-2.26685 -4.46721,-4.28702 -5.85801,-7.68713c-0.72795,-1.77964 -2.29231,-3.5879 -1.85782,-5.46092c0.09693,-0.41783 0.21657,-0.80888 0.35701,-1.17461c0.09567,-0.5804 0.26093,-1.17543 0.50276,-1.78284c0.85851,-2.15638 3.3389,-3.29144 5.67225,-3.99564c0.02785,-0.36323 0.07794,-0.74179 0.15159,-1.13628c1.33788,-7.16593 9.11043,-10.02638 15.25724,-11.04182c2.07775,-0.34324 7.91077,-1.08435 10.12743,-0.09929c1.81763,0.80774 3.21291,2.36343 4.6545,3.73384c0.36584,0.34778 1.30958,1.42269 2.36681,2.67374c2.40957,-0.81287 4.83513,-1.54884 7.37573,-2.08199c0.23651,-0.04963 0.54208,-0.11406 0.89933,-0.18653c2.13917,-0.60182 4.30393,-1.11663 6.48484,-1.53418c1.67242,-0.37319 3.30403,-1.15311 5.01726,-1.11958c1.54967,0.03033 3.11413,0.54159 4.46297,1.30514c0.1688,0.09555 0.33262,0.19566 0.49132,0.29998c5.22493,-0.05191 10.69475,1.24213 14.89952,4.17453c0.41032,-0.37272 0.79258,-0.75131 1.08294,-1.14913c0,0 1.86852,-1.66091 3.52943,0.20761c0.3494,0.39307 0.5426,0.77695 0.62987,1.13812c0.87361,-0.03893 1.87481,-0.04899 2.85892,0.01381c0.80926,-0.4079 1.63119,-0.74163 2.49901,-0.65048c3.578,0.37582 4.55287,2.77044 5.98839,5.26555c1.39482,2.42436 3.06905,5.20937 3.31713,8.07191c0.46825,5.40305 -2.46286,9.60533 -8.18206,9.29688c-1.35767,-0.07322 -2.46399,-1.15033 -3.69598,-1.7255c-0.10508,-0.08919 -0.21558,-0.18193 -0.33093,-0.27809zM297.97701,164.83896c0.67201,0.71462 1.36477,1.3641 2.07713,1.99828c0.07051,-0.05908 0.14017,-0.12121 0.20893,-0.1865c1.43424,-1.36191 0.6553,-5.17795 0.677,-6.8373c-0.18678,-0.75244 -0.11145,-1.62522 -0.56033,-2.25733c-0.01009,-0.0142 -0.0209,-0.02705 -0.03238,-0.03865c-0.21237,0.17281 -0.42651,0.34445 -0.66025,0.46392c0.07366,0.20693 0.13317,0.41728 0.1769,0.62988c0.06715,0.3265 0.08214,0.65805 0.0558,0.99036c0.09368,0.48642 0.02408,1.06765 -0.37391,1.73097c-0.08236,0.13727 -0.16823,0.26047 -0.25684,0.37085c-0.24546,0.50478 -0.53725,0.98804 -0.83116,1.43224c-0.07249,0.10955 -0.14561,0.216 -0.21935,0.31944c-0.00474,0.06954 -0.01112,0.13907 -0.01923,0.20856c-0.04873,0.41778 -0.13047,0.80895 -0.24229,1.17527zM284.64688,165.30372c0.00394,-0.00023 0.00788,-0.00045 0.01181,-0.00068l-0.03706,-0.01853c0.00831,0.00645 0.01673,0.01286 0.02525,0.01921zM217.83272,164.44657c0.12225,0.98518 1.07196,1.74611 1.80206,2.32042c0.15899,-1.11774 0.19642,-2.26864 0.41539,-3.37002c-0.32802,0.05963 -0.61036,0.12811 -0.83235,0.20302c-0.47715,0.16102 -1.0452,0.44939 -1.38509,0.84657zM224.74353,155.94818c2.37323,-0.55166 5.18552,-1.12604 7.68563,-1.24574c1.08232,-0.13272 2.31133,-0.2122 3.49008,-0.0841c1.43361,-0.41011 3.24408,-0.69865 4.87878,-0.90923c1.77507,-0.46657 3.60208,-0.84083 5.45025,-1.16347c-0.97712,-1.17675 -2.07608,-2.19971 -3.45,-2.84827c-1.07387,-0.50693 -7.29528,0.3739 -7.44404,0.39807c-4.23562,0.68822 -8.54898,1.9797 -10.6107,5.85275zM279.32497,165.5652c-0.03135,-0.15797 -0.05261,-0.31708 -0.06276,-0.47663c-0.86775,0.07399 -1.74238,0.10313 -2.6059,0.11584c0.0168,0.12393 0.04558,0.23666 0.08748,0.33619c0.33065,0.01249 0.64488,0.05036 0.93733,0.11764c0.16089,-0.04107 0.31925,-0.07833 0.45482,-0.07959c0.39635,-0.00369 0.79269,-0.00842 1.18903,-0.01344zM278.62746,160.11968c0.56758,-0.09161 1.12712,-0.20007 1.67661,-0.32673c0.24373,-0.46361 0.52489,-0.89878 0.83879,-1.30722c-0.38827,0.11039 -0.79145,0.25107 -1.21267,0.42335c-0.39259,0.16057 -0.85286,0.61026 -1.30273,1.2106zM306.0041,164.44708c-0.08431,1.76426 -0.4412,3.47079 -1.49907,4.91805c1.31702,-0.09377 1.97386,-1.38815 1.73528,-3.8301c-0.03368,-0.34473 -0.11712,-0.71059 -0.23621,-1.08796zM269.24014,165.16214c0.06092,0.5302 0.04794,1.09324 -0.05271,1.69104c-0.02,0.18451 -0.04497,0.36789 -0.07497,0.54981l0.02788,-0.01115l0.03361,0.08402c0.45969,-0.24489 0.93158,-0.41013 1.4784,-0.49162c0.41967,-0.1751 0.85874,-0.34572 1.30779,-0.50479c-0.07064,-0.40655 -0.10761,-0.83049 -0.11371,-1.26617c-0.87032,-0.00793 -1.73914,-0.02346 -2.60629,-0.05113zM267.55593,159.10584c0.60704,-0.01011 1.2288,-0.00404 1.83225,-0.06082c-0.57429,-0.0545 -1.04681,-0.11536 -1.33843,-0.17606c-0.16293,0.08267 -0.3276,0.16152 -0.49382,0.23688zM243.51169,172.33623c-0.66001,-0.66668 -1.1116,-1.45713 -1.17281,-2.38506c-0.01064,-0.01087 -0.02124,-0.02181 -0.03181,-0.0328l-0.93861,0.49165c0.31054,0.7231 0.52315,1.47671 0.59904,2.23908c0.5161,-0.09882 1.03079,-0.20304 1.54418,-0.31287z" fill="#f5a9b8"/><path d="M281.6365,163.00079c-1.47109,0.17875 -2.94187,0.35945 -4.41234,0.54074c-7.15055,0.00598 -14.33972,0.00732 -21.49251,0.00451c4.65806,1.2247 9.30901,2.35342 14.05428,2.34971c3.97185,-0.93143 7.91515,-1.91192 11.85057,-2.89496zM222.16255,159.79592c6.1455,0.11674 12.28895,0.019 18.4484,-0.24645c4.67543,-0.2015 9.39205,-1.00047 14.06506,-1.0024c7.39501,-0.00305 14.84333,-0.00225 22.23747,0.00412c7.29125,-0.92527 14.8096,-1.26877 22.02963,-2.62899c1.92757,-0.36315 5.63058,-1.82941 7.38441,-0.70252c3.51283,2.2571 2.06892,9.23086 -0.88247,11.24712c-1.01599,0.69407 -2.46828,0.12612 -3.67115,0.38511c-2.42739,0.52263 -4.82366,1.19063 -7.26286,1.65504c-6.9697,1.32698 -13.27456,2.24086 -20.34873,2.68324c-10.7387,0.05158 -21.41577,2.06658 -32.09348,2.02284c-2.79338,-0.01144 -3.71045,-0.74897 -6.55785,-1.0101c-3.78572,-0.34719 -7.78872,-0.44108 -11.59749,-0.66139c-3.95989,-0.22906 -7.85756,-0.48185 -11.80442,-1.01241c-1.12633,-0.15141 -2.35258,-0.01459 -3.36906,-0.52284c-1.25967,-0.62985 -2.13215,-1.8406 -3.19823,-2.7609c-0.0046,-1.84007 -1.30585,-4.21003 -0.01382,-5.52019c0.31975,-0.32424 0.70256,-0.55608 1.12614,-0.71503c0.46473,-1.94279 2.59285,-1.79078 2.59285,-1.79078c1.32914,0.09497 2.65759,0.17842 3.98553,0.25082c0.43123,-0.7512 1.24137,-1.25717 2.16968,-1.25717c1.00918,0 1.87869,0.59796 2.27357,1.4589c0.19407,0.00707 0.38814,0.01391 0.5822,0.02053c0.00525,-0.00257 0.01051,-0.00509 0.01579,-0.00754c1.10815,-0.51612 2.48572,-0.35235 3.88884,0.111zM303.27529,159.76206c0.06295,0.11586 0.11785,0.24275 0.16261,0.38173c0.37192,-0.41581 0.69471,-0.74451 0.37221,-0.60408c-0.17741,0.07725 -0.3557,0.15131 -0.53483,0.22235zM252.59804,167.68409c-2.38933,-0.58954 -4.78975,-1.13341 -7.22317,-1.49721c-2.33232,-0.34868 -5.15994,-1.00172 -7.52666,-0.68063c-0.95989,0.13022 -1.62811,0.90897 -2.31377,1.67959c0.14213,0.0121 0.284,0.02454 0.42556,0.0373c0.15686,0.01415 5.16702,0.99461 6.10881,0.9899c3.51288,-0.01759 7.02077,-0.23882 10.52922,-0.52894zM224.44745,166.56437c-0.8822,-0.42529 -1.75163,-0.87456 -2.5444,-1.44043c0.16673,0.4406 0.27269,0.88499 0.27929,1.30616c0.67622,0.04075 1.35583,0.08011 2.04183,0.12109c0.07435,0.00444 0.14878,0.00884 0.22328,0.01318z" fill="#ffffff"/><path d="M228.75882,138.87804c-0.43675,0.52661 -0.98883,0.77756 -0.98883,0.77756c-0.56665,0.25343 -3.85503,1.40753 -4.66273,2.50474c-0.97442,1.3237 -0.40955,2.09064 -0.22235,3.59292c0.64249,5.15607 3.84909,7.35934 9.21325,6.20902c3.3264,-0.71333 4.78365,-6.41884 3.36267,-9.21197c-1.47988,-2.90893 -2.74974,-3.24656 -5.66503,-3.94527zM226.66607,134.87661c0.715,-0.99692 2.06942,-0.99692 2.06942,-0.99692l2.273,0.07464c4.34528,1.12142 6.85059,2.37682 9.00164,6.7214c2.82107,5.69782 -0.42431,14.44642 -6.63733,16.12136c-4.28959,1.15641 -10.40014,0.15317 -13.26377,-3.53189c-2.01636,-2.59474 -1.84922,-3.90712 -2.18965,-6.92575c-0.34823,-3.08787 -0.87375,-4.13103 1.11098,-7.07375c1.49785,-2.22083 4.44512,-3.1365 6.6706,-4.16192c0,0 0.412,-0.18727 0.96509,-0.22717z" fill="#9966ff"/><path d="M255.59789,137.99955c0.38014,-2.47093 2.85107,-2.09079 2.85107,-2.09079l4.26514,0.65714c3.50059,0.34178 7.27562,0.56591 11.02528,1.00479c0.41996,-0.06992 0.95393,-0.07005 1.46418,0.18329c3.78892,0.50733 7.51161,1.27982 10.85582,2.66367c4.45469,1.84337 6.21789,5.55797 7.97528,9.64696c1.1141,2.59223 2.4312,4.57417 2.52843,7.47914c0.0569,1.69992 -0.33245,3.38546 -0.49867,5.07819c-1.02576,1.34148 -1.82029,2.89673 -3.07728,4.02444c-6.34066,5.68855 -16.87659,3.11293 -23.2198,-0.79885c-5.93349,-3.65911 -11.25378,-11.27533 -8.72573,-18.62445c0.80951,-2.35328 2.40944,-4.04757 4.32898,-5.40203c-1.10861,-0.09377 -2.20445,-0.18869 -3.28037,-0.29424l-4.40152,-0.6762c0,0 -2.47093,-0.38014 -2.09078,-2.85107zM274.27234,142.71275c-2.97586,1.33894 -7.50802,2.98179 -8.50964,6.15688c-0.93089,2.9509 0.01296,4.8744 1.45183,7.22714c4.60177,7.52448 17.56952,12.93893 24.19203,4.70734c0.28535,-4.96295 -2.01001,-13.80535 -7.3283,-15.7957c-3.08371,-1.15407 -6.41728,-1.83304 -9.80591,-2.29566z" fill="#9966ff"/><path d="M292.52417,178.71813c-1.68766,1.85732 -3.53154,3.21752 -6.49763,4.08234c-0.99773,0.29091 -1.96862,0.56601 -2.88202,0.41172c0.406,0.29494 0.79838,0.6104 1.19536,0.91691c1.09062,0.84208 2.12553,1.75548 3.2274,2.58279c2.21036,1.65956 5.00238,3.69966 7.67132,4.64523c0.8326,0.29498 1.72148,0.39952 2.59023,0.55927c0.69203,0.12725 1.38567,0.29873 2.0893,0.3012c5.31285,0.01862 -0.04962,-6.27022 -1.04547,-7.50391c-2.09173,-2.08902 -4.27437,-3.92907 -6.19383,-6.1676c-0.03204,0.03603 -0.06413,0.07187 -0.09628,0.10754l0.02902,0.09779c0,0 -0.03203,-0.01068 -0.08741,-0.03328zM295.48988,174.68067l0.83282,0.43189c1.90199,2.29943 4.16285,4.15138 6.2756,6.26649c0.97992,1.23381 2.12528,2.35266 2.93974,3.70142c3.20777,5.31211 1.38626,11.48561 -5.31854,12.128c-6.92487,0.66347 -14.27967,-5.01077 -19.08841,-9.24484c-2.46665,-2.17187 -5.957,-4.32525 -2.93648,-8.57178c0.94043,-1.32215 4.96557,-1.01555 6.58314,-1.43293c3.204,-0.82673 4.40925,-2.89304 6.29106,-5.41257c0,0 1.5,-2 3.5,-0.5c1.16404,0.87303 1.14247,1.91543 0.92107,2.63431z" fill="#9966ff"/><path d="M311.33346,183.8197c-3.1623,-5.25496 -5.83024,-12.08257 -5.05064,-18.37389c0.80345,-6.48376 6.30248,-11.33294 13.06114,-8.72261c0.75775,0.29266 2.05113,1.28021 3.19924,2.2175c0.90539,-1.2413 1.55073,-2.09616 2.29504,-3.61793c0.53231,-1.08834 0.55979,-2.51429 1.45493,-3.33071c3.03275,-2.76605 8.4393,-1.5027 10.99939,1.38719c0.9035,1.01989 1.23822,2.45146 1.57662,3.7713c0.93988,3.66576 0.50734,8.567 -0.26733,12.74376c1.00282,0.03187 2.01404,0.26722 3.31341,0.93645c5.38498,2.7735 10.68843,13.84968 5.15732,18.77647c-2.10631,1.87618 -4.82563,1.60386 -7.30467,1.61137c-3.91658,0.01185 -7.43313,-0.74762 -11.04777,-1.77504c-2.39344,6.77407 -10.64936,10.74499 -16.8342,13.84444c0,0 -2.23607,1.11803 -3.3541,-1.11803c-0.31149,-0.62298 -0.36263,-1.15918 -0.27431,-1.6086c-0.48262,0.1015 -1.06228,0.04271 -1.72996,-0.33883c-2.17061,-1.24035 -0.93026,-3.41096 -0.93026,-3.41096c1.44763,-2.52396 2.37141,-5.10848 4.26306,-7.37559c0.72817,-0.8727 2.76665,-2.5679 3.44266,-3.69039c0.1073,-0.17817 0.21268,-0.35779 0.31689,-0.53828zM317.52515,161.38066c-3.65837,-1.55812 -5.92731,1.43388 -6.27219,4.61073c-0.52066,4.79611 1.46483,10.11402 3.61603,14.29277l1.32625,0.68335l0.00325,-0.03361c0,0 1.11803,-2.23607 3.3541,-1.11803c2.23607,1.11803 1.11803,3.3541 1.11803,3.3541l-0.64885,1.14909c-1.02281,1.19861 -1.6192,2.70385 -2.45567,4.0392c-1.47916,2.36134 -2.15955,2.29836 -3.89067,4.30961c-1.44925,1.68377 -2.26066,3.79664 -3.27442,5.76708c2.93939,-1.515 5.74594,-3.24814 8.47281,-5.13515c2.37828,-1.64578 4.66043,-2.93271 5.27062,-5.5756c-0.02281,-0.04676 -0.04496,-0.09526 -0.06609,-0.14537c-0.41223,-0.48907 -0.688,-1.21752 -0.36659,-2.26211c0.73521,-2.38945 3.12466,-1.65423 3.12466,-1.65423c4.3969,1.35386 8.3204,2.53879 12.93145,2.55611c0.83406,0.00313 3.15925,0.23795 4.02866,-0.38863c1.34258,-0.96761 -0.05782,-4.59526 -0.39784,-5.64658c-1.20557,-3.72753 -3.61118,-5.23689 -7.08504,-5.0638c-0.28872,0.1012 -0.62697,0.14761 -1.02188,0.10708l-0.91756,0.25062c0,0 -2.42536,0.60634 -3.0317,-1.81902c-0.60634,-2.42536 1.81902,-3.0317 1.81902,-3.0317l0.20504,-0.0484c0.83464,-3.90942 1.24571,-8.4869 0.63335,-12.29153c-0.17169,-1.06674 -1.3096,-1.83309 -2.28393,-2.3001c-0.56694,-0.27174 -1.53461,-1.10817 -1.80674,-0.54141c-1.21276,2.52577 -2.08416,4.68916 -3.77373,7.05989l-1.41549,1.77531c0,0 -1.56174,1.95217 -3.51391,0.39043c-0.41097,-0.32878 -0.66621,-0.67486 -0.81307,-1.01638c-0.9884,-0.82799 -2.59496,-2.15747 -2.86792,-2.27372z" fill="#9966ff"/><path d="M191.93707,202.14149c0.35603,-0.27597 1.14527,-0.76567 2.06682,-0.56633c4.4137,-1.90664 8.54862,-3.87472 13.28988,-4.93349c0,0 2.44047,-0.54233 2.98279,1.89814c0.24785,1.11534 -0.1273,1.83423 -0.60778,2.28607c0.25364,0.14747 0.50789,0.35982 0.75453,0.65579c1.60046,1.92055 -0.32009,3.52101 -0.32009,3.52101c-1.98354,1.64151 -4.7118,2.70807 -6.49936,4.51388c-2.34532,2.36926 -3.30464,4.64584 -6.14492,6.70733l-0.38689,0.19461c2.90967,4.37786 3.92787,9.10618 2.52273,14.60329c-0.28975,1.13356 -0.29735,2.41411 -0.9654,3.37466c-2.63638,3.79071 -7.92403,4.79076 -11.7116,1.95236c-0.42267,-0.31675 -0.81396,-0.84031 -1.17115,-1.46186c-0.36366,0.5027 -0.7705,0.96905 -1.23436,1.38334c-3.5184,3.1424 -8.184,3.32628 -10.8677,-0.98514c-1.64831,-2.64804 -1.21566,-6.79298 -0.97032,-9.6917c0.10997,-1.29932 -0.30396,-2.71596 0.2312,-3.90504c0.4534,-1.00743 1.53523,-1.56876 2.39454,-2.28805c-0.64747,-1.09864 -1.50534,-1.97837 -2.56906,-3.63645c-2.16174,-3.36963 -4.40948,-7.63804 -4.39478,-11.6989c0.01997,-5.51787 4.43302,-10.24212 10.34034,-9.09758c3.63328,0.70395 5.42233,4.01361 6.73082,7.00031l0.53227,0.92801c2.05939,-0.0624 3.94496,-0.27984 5.99749,-0.75427zM180.93154,204.19652c-0.55745,-1.33575 -1.43886,-4.01881 -3.26918,-4.33302c-3.89522,-0.66869 -4.99827,3.61683 -4.0953,6.51057c1.36725,4.38163 5.10902,7.32574 6.85774,11.29617c0.5395,1.22491 0.57516,2.6144 0.86274,3.92159c0,0 0.49029,2.45145 -1.96116,2.94174c-0.88846,0.17769 -1.51932,-0.03101 -1.96261,-0.36938c-0.02103,0.5607 0.31303,1.16171 0.30082,1.73994c-0.04268,2.02029 -0.8475,10.84825 3.49531,6.65649c0.49506,-0.47784 0.83785,-1.09878 1.16413,-1.70455c0.38349,-0.71197 0.69807,-1.45699 0.99674,-2.20969c-0.00715,-0.50547 0.12881,-1.08914 0.62423,-1.58875c0.08457,-0.20997 0.17082,-0.41914 0.25989,-0.62697c0,0 0.9848,-2.29786 3.28266,-1.31306c2.29786,0.9848 1.31306,3.28266 1.31306,3.28266c-0.06279,0.1465 -0.12488,0.29469 -0.18654,0.44427c0.39431,1.27518 0.46312,2.80532 1.47364,3.63758c3.82311,3.14866 5.45063,-4.03422 5.58169,-6.06664c0.21106,-3.27305 -2.36348,-7.09237 -4.38144,-9.35374c0,0 -1.64626,-1.88144 0.23518,-3.5277c0.52954,-0.46335 1.04045,-0.64724 1.50127,-0.67229l1.85547,-0.92137c2.47054,-1.72154 3.08549,-3.87159 5.18842,-5.95934c1.48118,-1.47049 3.39342,-2.44258 5.15569,-3.59386c-3.33678,1.08178 -6.44101,2.58048 -9.73646,3.99282l-1.72299,0.69c0,0 -0.75904,0.30362 -1.58263,0.12956c-2.41926,0.48802 -4.72109,0.69101 -7.25583,0.71378c-0.69562,0.1563 -1.26336,-0.03853 -1.6884,-0.31795c-0.45198,-0.22965 -0.90133,-0.62406 -1.11165,-1.30144z" fill="#9966ff"/><path d="M237.50276,203.91547c2.5,0 2.5,2.5 2.5,2.5l-0.01529,0.72392c0.40927,3.7295 1.10734,7.59377 1.91795,11.25193c0.21168,0.95527 0.25799,2.05263 0.89452,2.79571c0.35036,0.40901 1.07982,0.0371 1.61053,0.12865c1.00948,0.17414 2,0.44444 3,0.66667c1.14045,0.32745 2.45567,0.2929 3.42135,0.98234c3.76326,2.68675 3.713,7.93712 0.33489,10.98326c-2.66547,2.40353 -6.79363,1.6367 -9.99728,1.63418c-2.72271,-0.00214 -8.28296,0.16928 -10.39188,-1.69068c-1.21338,-1.07014 -1.55225,-5.17262 -1.75548,-6.83257c-0.37247,-3.04228 0.17375,-5.46133 0.31886,-8.46543c0.17562,-3.63582 -0.3349,-7.21086 -0.33816,-10.84466c0,0 0,-2.5 2.5,-2.5c2.5,0 2.5,2.5 2.5,2.5c-0.00362,3.74501 0.50502,7.40073 0.3285,11.15534c-0.12801,2.72275 -0.69711,4.80678 -0.34781,7.53457c0.1074,0.83873 0.25632,1.67384 0.31013,2.51771c0.02796,0.43845 -0.42862,1.06891 -0.06561,1.31639c0.5532,0.37716 1.34072,-0.03909 2.00858,0.00827c3.39113,0.24047 7.03094,0.72486 10.43021,0.35211c1.21111,-0.1328 2.30919,-1.60418 2.10365,-2.8477c-0.14412,-0.87193 -2.44936,-0.926 -2.5087,-0.9369c-1.04111,-0.23136 -6.14059,-1.26577 -6.7228,-1.87135c-3.62109,-3.76646 -3.95961,-12.29071 -4.52086,-17.28569l-0.01529,-1.27608c0,0 0,-2.5 2.5,-2.5z" fill="#9966ff"/><path d="M272.13109,217.09937c-0.75942,1.90447 -1.36899,3.46338 -1.82728,5.71655c-0.16474,0.80996 -0.80048,1.5599 -0.69632,2.37986c0.15073,1.18659 2.77307,2.03693 3.34663,2.31695c1.9945,0.97375 7.35096,3.83726 6.72921,-0.83389c-0.54177,-4.07025 -5.24243,-3.8211 -7.04095,-7.06436c-0.41672,-0.75147 -0.45278,-1.63726 -0.51129,-2.51511zM273.95416,205.58403c2.38193,0.07744 2.38193,2.4981 2.38193,2.4981l-0.01931,1.02325c0.26476,2.12035 0.47808,4.24713 0.67154,6.37517c0.07138,2.98758 1.43248,2.1149 3.69858,3.94815c2.35157,1.90239 3.64609,3.53911 3.9686,6.72339c0.14359,1.41768 0.05534,2.93925 -0.5194,4.24313c-2.62447,5.95389 -9.11701,3.77813 -13.41805,1.58965c-2.75545,-1.40204 -5.03462,-2.08119 -5.9867,-5.68305c-0.36918,-1.39666 0.43358,-2.85658 0.63701,-4.28681c0.74528,-5.23971 3.46349,-9.71629 4.33507,-15.01054c0,0 0.411,-2.46598 2.87698,-2.05499c0.62475,0.10412 1.06484,0.34015 1.37373,0.63455z" fill="#9966ff"/></g></g></svg>