<svg version="1.1" xmlns="http://www.w3.org/2000/svg" xmlns:xlink="http://www.w3.org/1999/xlink" width="116.7052" height="90.50588" viewBox="0,0,116.7052,90.50588"><g transform="translate(-178.23969,-78.6215)"><g data-paper-data="{&quot;isPaintingLayer&quot;:true}" fill="#9966ff" fill-rule="nonzero" stroke="none" stroke-width="0.5" stroke-linecap="butt" stroke-linejoin="miter" stroke-miterlimit="10" stroke-dasharray="" stroke-dashoffset="0" style="mix-blend-mode: normal"><path d="M182.94328,166.42363c-2.5,0 -2.5,-2.5 -2.5,-2.5v-1.35187c0.00297,-4.79335 0.10521,-9.72004 0.6916,-14.4741c0.93859,-9.30143 -2.32043,-18.6643 -2.71575,-28.04419c-0.54813,-13.00544 0.33431,-25.92638 0.33431,-38.93198c0,0 0,-2.5 2.5,-2.5c2.5,0 2.5,2.5 2.5,2.5c0,12.91644 -0.87339,25.74662 -0.34163,38.6616c0.39951,9.70303 3.64867,19.22416 2.69173,28.87346c-0.57839,4.56101 -0.6633,9.31394 -0.66027,13.91521v1.35187c0,0 0,2.5 -2.5,2.5z"/><path d="M273.85665,169.12737c-2.5,0 -2.5,-2.5 -2.5,-2.5c0,-5.6328 0,-11.94153 0,-17.57433c0.00059,-10.11428 -0.48118,-20.20102 -1.01008,-30.27886c-0.06729,-1.28226 -0.09482,-2.56373 -0.09525,-3.84465c-4.4527,-0.63636 -9.15218,-0.7474 -13.56639,-1.24388c-2.1965,-0.24705 -4.58277,0.48745 -6.62083,-0.36809c-0.14579,-0.0612 -0.28943,-0.12637 -0.43115,-0.19508l-0.02455,0.06138l-3.32561,-1.33024c-0.94948,-0.35452 -1.62559,-1.26971 -1.62559,-2.34282c0,-0.95782 0.53864,-1.78983 1.32954,-2.20964l2.76628,-1.53682c7.25764,-7.39985 14.50796,-15.52341 20.5819,-23.96248c0.01232,-0.63307 0.23804,-2.2913 2.24517,-2.49201c1.1964,-0.11964 1.87493,0.39366 2.25699,0.95876c1.15276,0.96654 0.91392,2.14266 0.64027,2.80031c0.44684,4.02748 1.03675,8.08858 1.20027,12.12271c0.2121,5.23271 -0.20027,10.45297 -0.36789,15.67715c0.8678,0.17678 1.7352,0.38335 2.60291,0.62883c4.7853,1.35382 9.17057,3.66544 14.19429,3.62443h0.33797c0,0 2.5,0 2.5,2.5c0,2.5 -2.5,2.5 -2.5,2.5h-0.33797c-5.94849,-0.039 -11.20977,-2.63044 -16.85345,-4.17122c0.01337,0.84869 0.04062,1.69762 0.08545,2.54687c0.53686,10.1691 1.01714,20.34974 1.01773,30.55536c0,5.6328 0,11.2656 0,16.89839v0.67594c0,0 0,2.5 -2.5,2.5zM270.68382,95.44068c-0.08497,-2.11797 -0.29197,-4.2443 -0.53349,-6.36915c-5.17446,6.71687 -10.96429,13.23198 -16.87751,19.18288c2.98302,-0.17864 6.45652,0.7606 8.94769,1.05977c2.74158,0.32924 5.44514,0.509 8.13181,0.80661c0.18188,-4.89203 0.52807,-9.78071 0.33151,-14.6801z"/></g></g></svg>