<svg version="1.1" xmlns="http://www.w3.org/2000/svg" xmlns:xlink="http://www.w3.org/1999/xlink" width="184.06868" height="219.82804" viewBox="0,0,184.06868,219.82804"><defs><linearGradient x1="240.00001" y1="76.43022" x2="240.00001" y2="283.56977" gradientUnits="userSpaceOnUse" id="color-1"><stop offset="0" stop-color="#ff7e05"/><stop offset="1" stop-color="#ff05b8"/></linearGradient><linearGradient x1="240.60831" y1="84.94657" x2="240.60831" y2="283.25595" gradientUnits="userSpaceOnUse" id="color-2"><stop offset="0" stop-color="#793a04"/><stop offset="1" stop-color="#25253e"/></linearGradient><linearGradient x1="239.99152" y1="213.9085" x2="239.99152" y2="283.56978" gradientUnits="userSpaceOnUse" id="color-3"><stop offset="0" stop-color="#ff2f7a"/><stop offset="1" stop-color="#ff7e05"/></linearGradient></defs><g transform="translate(-147.63456,-66.23961)"><g data-paper-data="{&quot;isPaintingLayer&quot;:true}" fill-rule="nonzero" stroke-linecap="butt" stroke-linejoin="miter" stroke-miterlimit="10" stroke-dasharray="" stroke-dashoffset="0" style="mix-blend-mode: normal"><g><g stroke-width="5"><path d="M171.56502,280.21439l-9.73297,-195.26782c0,0 52.82757,-8.51635 77.68523,-8.51635c25.22132,0 78.65069,7.91755 78.65069,7.91755l-9.73298,195.25831c0,0 -47.0451,3.85895 -70.13264,3.96156c-22.52174,0.1001 -66.73732,-3.35325 -66.73732,-3.35325z" fill="url(#color-1)" stroke="url(#color-2)"/><path d="M171.58587,280.21439l-2.88119,-57.78954c0,0 6.72063,-8.51635 31.45783,-8.51635c14.0313,0 47.2409,7.14781 73.80098,9.15977c20.95043,1.58702 37.46363,-1.86004 37.46363,-1.86004l-3.04633,58.39785c0,0 -47.10306,3.85895 -70.07871,3.96157c-22.4126,0.1001 -66.71621,-3.35325 -66.71621,-3.35325z" fill="url(#color-3)" stroke="#ff6388"/><path d="M171.56502,280.21439l-9.73298,-195.26782c0,0 52.82758,-8.51635 77.68524,-8.51635c25.22132,0 78.65068,8.51635 78.65068,8.51635l-9.73298,194.6595c0,0 -47.0451,3.85895 -70.13264,3.96157c-22.52174,0.1001 -66.73732,-3.35325 -66.73732,-3.35325z" fill="none" stroke="#793a04"/></g><g stroke-width="2.5"><path d="M206.70347,106.25056v-40.01095h59.58152v40.01095z" fill="#ffd800" stroke="none"/><path d="M226.91879,86.08187c0,-5.31419 4.308,-9.6222 9.6222,-9.6222c5.31419,0 9.6222,4.308 9.6222,9.6222c0,5.31419 -4.308,9.6222 -9.6222,9.6222c-5.31419,0 -9.6222,-4.308 -9.6222,-9.6222z" fill="none" stroke="#7902aa"/></g><g stroke="none" stroke-width="0"><path d="M208.66033,133.13772v-40.68392h61.16913v40.68392z" fill="#fff433"/><path d="M208.66033,133.13772v-30.22644h61.16913v30.22644z" fill="#ffffff"/><path d="M208.66033,133.13772v-20.19871h61.16913v20.19871z" fill="#9b59d0"/><path d="M208.66033,133.13772v-10.02773h61.16913v10.02773z" fill="#2d2d2d"/></g><g stroke="none" stroke-width="0"><path d="M150.18453,117.33624l-2.54997,-39.41761l65.77174,-4.25484l2.54997,39.41761z" fill="#5bcefa"/><path d="M149.66278,109.27096l-1.51381,-23.40065l65.77174,-4.25484l1.51381,23.40065z" fill="#f5a9b8"/><path d="M149.18512,101.88726l-0.5291,-8.17887l65.77174,-4.25484l0.5291,8.17887z" fill="#ffffff"/></g><g stroke="none" stroke-width="0"><path d="M260.82694,122.90979l3.03511,-40.63466l67.84119,5.06723l-3.03511,40.63466z" fill="#ff218c"/><path d="M261.83864,109.3649l1.0117,-13.54489l67.84119,5.06723l-1.0117,13.54489z" fill="#ffd900"/><path d="M260.82694,122.90979l1.0117,-13.54489l67.84119,5.06723l-1.0117,13.54489z" fill="#21b1ff"/></g><g stroke="none" stroke-width="0"><path d="M256.17633,110.04574l-0.48633,-15.51531l65.32171,-2.0475l0.48633,15.51531z" fill="#0038a8"/><path d="M320.76854,84.72527l0.24417,7.78978l-65.32171,2.0475l-0.24417,-7.78978z" fill="#9b4f96"/><path d="M255.44683,86.77278l-0.48985,-15.62775l65.32171,-2.0475l0.48985,15.62775z" fill="#d60270"/></g><g stroke="none" stroke-width="0"><path d="M158.56093,104.53341l-1.29862,-12.35433l61.24368,-6.43759l1.29862,12.35433z" fill="#f61cb9"/><path d="M159.82054,116.72573l-1.29862,-12.35433l61.24368,-6.43759l1.29862,12.35433z" fill="#07d569"/><path d="M161.09696,128.86888l-1.29862,-12.35433l61.24368,-6.43759l1.29862,12.35433z" fill="#1c92f6"/></g></g></g></g></svg>