<svg version="1.1" xmlns="http://www.w3.org/2000/svg" xmlns:xlink="http://www.w3.org/1999/xlink" width="95.50478" height="62.45454" viewBox="0,0,95.50478,62.45454"><g transform="translate(-165.23473,-109.37657)"><g data-paper-data="{&quot;isPaintingLayer&quot;:true}" fill="#9966ff" fill-rule="nonzero" stroke="none" stroke-width="0.5" stroke-linecap="butt" stroke-linejoin="miter" stroke-miterlimit="10" stroke-dasharray="" stroke-dashoffset="0" style="mix-blend-mode: normal"><path d="M167.73473,171.83112c-2.5,0 -2.5,-2.5 -2.5,-2.5v-1.0139c0.01958,-6.98754 1.85893,-13.83077 2.37206,-20.79326c0.23048,-3.12725 -0.12415,-6.27379 -0.00334,-9.40719c0.33932,-8.80148 1.68689,-17.39329 1.68689,-26.24019c0,0 0,-2.5 2.5,-2.5c2.5,0 2.5,2.5 2.5,2.5c0,8.9281 -1.35582,17.60259 -1.69278,26.4828c-0.00092,0.02415 0.00971,9.34102 -0.00334,9.51901c-0.50095,6.83037 -2.38142,13.58829 -2.35949,20.43882v1.0139c0,0 0,2.5 -2.5,2.5z"/><path d="M256.28232,166.42363c-2.5,0 -2.5,-2.5 -2.5,-2.5l0.01027,-1.24024c0.70002,-7.64006 -0.416,-15.21113 -0.00741,-22.87492c0.45038,-8.44753 2.77449,-17.17703 1.70629,-25.594c0,0 -0.31009,-2.48069 2.17061,-2.79078c2.48069,-0.31009 2.79078,2.17061 2.79078,2.17061c1.08012,8.76029 -1.20666,17.67186 -1.67339,26.45305c-0.41123,7.73706 0.68949,15.36565 -0.00741,23.08872l0.01027,0.78756c0,0 0,2.5 -2.5,2.5z"/></g></g></svg>