<svg version="1.1" xmlns="http://www.w3.org/2000/svg" xmlns:xlink="http://www.w3.org/1999/xlink" width="151.56057" height="136.7522" viewBox="0,0,151.56057,136.7522"><g transform="translate(-159.27134,-58.3397)"><g data-paper-data="{&quot;isPaintingLayer&quot;:true}" fill="#9966ff" fill-rule="nonzero" stroke="none" stroke-width="0.5" stroke-linecap="butt" stroke-linejoin="miter" stroke-miterlimit="10" stroke-dasharray="" stroke-dashoffset="0" style="mix-blend-mode: normal"><path d="M243.18008,188.97735c0,2.5 -2.5,2.5 -2.5,2.5h-1.20079c-15.15994,-0.00946 -30.28804,-1.469 -45.40608,-2.46259c-0.20595,-0.01354 -9.91566,-0.33177 -10.01136,-0.34582c-1.83591,-0.26954 -4.11052,-0.02582 -5.39744,-1.36263c-1.0111,-1.0503 -0.03112,-2.91695 -0.12311,-4.37194c-0.15798,-2.49891 -0.02161,-5.07398 0.66346,-7.48233c2.8736,-3.87496 4.74421,-8.30395 6.91362,-12.60184c3.74417,-7.41769 7.09373,-14.73362 9.85964,-22.58307c2.0745,-5.88727 4.88688,-11.64803 6.67619,-17.62411c1.28679,-4.29771 1.79036,-9.04485 2.66548,-13.44313c0.63675,-3.20026 1.68929,-6.32832 2.05591,-9.57065c0.53076,-4.69398 -0.01562,-9.85349 -0.01189,-14.58183c-0.22995,-2.23813 -1.06268,-4.38405 -1.85505,-6.48981c-1.39978,-3.71995 -1.98621,-7.72029 -5.00342,-10.67509c-2.45786,-2.40701 -5.9748,-3.02601 -9.17532,-3.79924c-10.5275,-2.54339 -19.93113,1.47826 -27.87452,8.31458c0,0 -1.89814,1.62698 -3.52512,-0.27116c-1.62698,-1.89814 0.27116,-3.52512 0.27116,-3.52512c9.22584,-7.87889 20.12997,-12.23993 32.28658,-9.38233c4.14283,0.97384 8.35179,2.03521 11.51655,5.0919c4.75895,4.59643 7.60545,14.10428 8.35149,20.45976c0.00372,4.9992 0.54579,10.45309 -0.01189,15.41817c-0.37984,3.38176 -1.45665,6.64878 -2.12057,9.98641c-0.90257,4.5374 -1.44111,9.41513 -2.76434,13.85017c-1.81185,6.0727 -4.65817,11.92339 -6.76544,17.90323c-2.83683,8.0501 -6.27178,15.56644 -10.1118,23.17433c-2.15578,4.27105 -3.96441,8.79604 -6.90426,12.58318c-0.49177,1.7065 0.05782,3.56084 -0.13706,5.32606c-0.05631,0.51009 -1.33264,0.92178 -0.92363,1.23173c0.50283,0.38104 1.17748,-0.52503 1.80728,-0.5621c3.32181,-0.19551 6.65637,0.1252 9.97676,0.34343c15.00677,0.98628 30.02935,2.46177 45.07818,2.45183h1.20079c0,0 2.5,0 2.5,2.5z"/><path d="M283.09714,195.04569c-2.46598,-0.411 -2.05499,-2.87698 -2.05499,-2.87698l0.36641,-2.01951c0.06909,-5.89256 0.66406,-11.76448 0.78848,-17.65147c0.22775,-10.77595 -0.78865,-21.58372 -0.78865,-32.35237c0.00343,-4.13084 0.03539,-8.20537 0.12356,-12.27101c-0.6136,-0.1799 -1.22671,-0.35259 -1.83945,-0.51541c-6.62061,-1.7593 -13.11988,-2.46643 -19.45221,-5.27704c-2.60526,-0.80654 -6.10536,-1.21763 -6.44999,-5.15175c-0.12778,-1.45867 1.7287,-2.36441 2.5565,-3.57221c2.60622,-3.80259 5.71342,-7.18997 8.27019,-11.0232c3.70295,-5.55164 6.83664,-11.57745 10.37835,-17.26175c4.21104,-6.75854 8.91115,-13.31568 11.67444,-20.82276c-0.00789,-0.04798 -0.01588,-0.09597 -0.02397,-0.14397c0,0 -0.411,-2.46598 2.05499,-2.87698c0.11096,-0.01849 0.21776,-0.03116 0.32055,-0.03849c0.36349,-0.05927 0.78822,-0.03158 1.28128,0.13277c2.37171,0.79057 1.58114,3.16228 1.58114,3.16228c-0.02991,0.08923 -0.06007,0.17832 -0.09049,0.26727c1.03831,8.0663 -0.32122,15.82519 -1.82966,23.84129c-0.47918,2.54643 -1.57735,4.95676 -1.98538,7.51556c-0.76941,4.82507 -0.31202,9.89806 -0.66758,14.76708c-0.32917,4.50755 -0.54741,8.94238 -0.68668,13.36981c4.21993,1.38081 8.48526,2.84293 12.79984,3.41069c1.99015,0.26188 4.0164,0.15471 6.00856,0.40084l3.2021,0.40026c0,0 2.48069,0.31009 2.17061,2.79078c-0.31009,2.48069 -2.79078,2.17061 -2.79078,2.17061l-3.2021,-0.40026c-1.98833,-0.25172 -4.01308,-0.13188 -5.99931,-0.39969c-4.16161,-0.56112 -8.25682,-1.87676 -12.31779,-3.18954c-0.06607,3.54882 -0.08951,7.10925 -0.08672,10.71483c0,10.80343 1.00911,21.64469 0.78757,32.45637c-0.12031,5.87165 -0.72061,11.72834 -0.78773,17.60534l-0.43411,2.78363c0,0 -0.411,2.46598 -2.87698,2.05499zM282.324,110.51226c0.36799,-5.02186 -0.07343,-10.20984 0.71665,-15.18973c0.41547,-2.61873 1.53048,-5.08799 2.01724,-7.69441c0.78095,-4.18165 1.55711,-8.295 1.91482,-12.42413c-2.40327,4.25753 -5.13625,8.34435 -7.73369,12.5131c-3.57001,5.72966 -6.73086,11.79224 -10.46176,17.39114c-2.07982,3.12114 -4.57905,5.75874 -6.82803,8.75825c-0.87994,1.1736 -1.80135,2.50809 -3.15892,3.06365c-0.24195,0.09901 0.51035,-0.19042 0.76913,-0.15337c0.81262,0.11635 1.59145,0.40352 2.38718,0.60528c6.1718,2.74674 12.51179,3.41824 18.97296,5.12978c0.252,0.06675 0.50417,0.13541 0.75649,0.20576c0.13981,-4.0419 0.34672,-8.09482 0.64793,-12.20534z"/></g></g></svg>