<svg version="1.1" xmlns="http://www.w3.org/2000/svg" xmlns:xlink="http://www.w3.org/1999/xlink" width="110.82353" height="149.99116" viewBox="0,0,110.82353,149.99116"><g transform="translate(-159.52691,-60.17418)"><g data-paper-data="{&quot;isPaintingLayer&quot;:true}" fill="#9966ff" fill-rule="nonzero" stroke="none" stroke-width="0.5" stroke-linecap="butt" stroke-linejoin="miter" stroke-miterlimit="10" stroke-dasharray="" stroke-dashoffset="0" style="mix-blend-mode: normal"><path d="M210.23263,209.37966c-1.76777,-1.76777 0,-3.53553 0,-3.53553l0.04603,0.45781c1.38329,-5.42461 4.54495,-9.94923 6.67897,-15.08656c4.46651,-10.75247 6.67378,-22.35064 11.0509,-33.15932c4.72599,-11.67016 11.49771,-22.39392 16.34947,-34.03951c5.31598,-12.75285 9.12775,-26.01914 13.84287,-38.98571c0.50214,-1.38089 2.8414,-7.84765 3.0553,-8.22843c1.03688,-1.84586 3.74711,-3.01776 4.02071,-5.4402c0.01969,-0.17436 -0.35026,0.02268 -0.52563,0.02878c-1.01322,0.0352 -2.0305,0.18877 -3.04,0.0951c-1.19081,-0.11049 -2.32642,-0.6031 -3.51811,-0.70362c-5.3426,-0.45067 -10.34828,0.14695 -15.68405,-0.73242c-5.92564,-1.20639 -11.95001,-0.41928 -17.9695,-0.91946c-12.21992,-1.01539 -24.44015,-1.67773 -36.63957,-2.56398c-8.89714,-0.64636 -17.49853,0.31015 -26.3471,-1.4495c0,0 -2.45145,-0.49029 -1.96116,-2.94174c0.49029,-2.45145 2.94174,-1.96116 2.94174,-1.96116c8.62011,1.73464 17.04253,0.746 25.72097,1.36499c12.22076,0.87164 24.46032,1.54422 36.70063,2.5687c6.20228,0.51912 12.33195,-0.22103 18.45541,0.98409c6.21066,1.04808 12.55287,0.71512 18.79345,1.37845c2.66443,0.28321 6.30654,-0.89363 7.69234,2.93837c1.87907,5.19599 -2.56133,6.71464 -4.42276,10.03949c-0.72607,1.2969 -0.97076,2.80968 -1.46791,4.21039c-4.99715,14.07929 -9.28333,28.43778 -15.03223,42.24095c-4.84607,11.62923 -11.61197,22.34162 -16.33044,33.9932c-4.38283,10.82277 -6.59428,22.43117 -11.06784,33.20062c-2.02197,4.86759 -5.1913,9.23955 -6.44572,14.38117l-1.36121,1.86505c0,0 -1.76777,1.76777 -3.53553,0z"/></g></g></svg>