<svg version="1.1" xmlns="http://www.w3.org/2000/svg" xmlns:xlink="http://www.w3.org/1999/xlink" width="190.79602" height="123.04965" viewBox="0,0,190.79602,123.04965"><g transform="translate(-144.31146,-118.47518)"><g data-paper-data="{&quot;isPaintingLayer&quot;:true}" fill="#9966ff" fill-rule="nonzero" stroke="none" stroke-width="0.5" stroke-linecap="butt" stroke-linejoin="miter" stroke-miterlimit="10" stroke-dasharray="" stroke-dashoffset="0" style="mix-blend-mode: normal"><path d="M192.37017,121.11388c0.63834,-0.67199 1.56734,-0.8047 1.56734,-0.8047c9.07593,-1.29656 18.35035,-2.26456 27.53479,-1.63886c17.40815,1.18595 34.80967,4.87252 52.1673,7.00066c1.10158,0.94337 2.72375,1.50123 3.30473,2.8301c0.7048,1.61211 0.05431,3.52313 0.2379,5.27296c0.33731,3.21503 0.97258,6.39498 1.63063,9.55997c2.15094,10.34516 6.20494,20.62301 7.55482,31.10889c0.76232,5.92173 0.63702,11.97217 1.21321,17.91588c0.43603,4.4979 1.52847,8.92988 1.99024,13.3836c0.16235,1.56578 1.0777,3.60328 -0.02936,4.72241c-1.1895,1.20247 -3.3743,0.24654 -5.05687,0.41926c-1.57473,0.16165 -3.14201,0.38912 -4.71301,0.58368c-4.43963,0.3433 -8.96651,0.95497 -13.42096,1.01561c-11.22548,0.15282 -22.35804,-1.37819 -33.55647,-1.80115c-16.13133,-0.60927 -31.86546,-1.15885 -47.86875,-3.42497c-1.30572,-0.20086 -6.1084,-0.82224 -6.68616,-1.59331c-1.08712,-1.45086 -0.80423,-3.56011 -0.84676,-5.37258c-0.0884,-3.76668 1.13461,-7.63151 0.99889,-11.45206c-0.17725,-4.9896 -1.13515,-9.89282 -1.00002,-14.90951c0.09017,-3.34745 1.13377,-7.19658 0.99974,-10.50482c-0.38479,-9.4982 -0.84641,-18.85989 0.42317,-28.38286c0.45362,-3.16825 0.42087,-6.69215 1.71334,-9.67377c0.61343,-1.41512 0.79728,-3.2798 2.08306,-4.13164c1.13128,-0.74949 2.71376,0.04163 4.07073,0.05468c2.25637,0.0217 3.8821,-0.21241 5.68848,-0.17745zM197.69329,124.85266c-0.19028,0.74056 -0.75083,1.83139 -2.40222,1.83139c-0.70964,0 -1.21784,-0.20144 -1.58179,-0.48995c-2.67183,-0.43567 -4.41163,0.56229 -7.40884,0.08267c-0.44535,-0.07127 -0.96054,0.24034 -1.04621,0.72303c-0.51708,2.91359 -1.05879,5.72462 -1.48666,8.72624c-1.04125,7.80839 -1.56649,16.34521 -0.98723,24.22666c0.08417,1.14524 0.5765,2.24265 0.6104,3.39048c0.10122,3.42812 -0.90631,7.23163 -1.00026,10.69518c-0.13396,4.93896 0.8332,9.77562 0.99998,14.69048c0.12893,3.79948 -0.38513,8.01609 -1.00111,11.74794c-0.10213,0.61871 -0.71569,1.26094 -0.44676,1.82743c0.17075,0.35968 0.73047,-0.3918 1.12862,-0.39109c0.87187,0.00157 1.72347,0.26518 2.58521,0.39777c15.82387,2.24124 31.38012,2.77232 47.33125,3.37502c11.0934,0.41915 22.12429,1.94324 33.24353,1.79885c4.33041,-0.05623 8.73374,-0.66012 13.05027,-0.99293c1.43583,-0.16731 3.63323,-0.78169 5.09262,-0.56818c-0.3958,-1.33629 -0.51804,-2.76024 -0.75066,-4.13862c-0.65811,-3.89964 -0.95157,-7.92323 -1.21775,-11.86679c-0.33024,-4.89239 -0.37377,-9.92945 -0.99123,-14.79304c-1.09332,-8.6119 -4.20164,-17.39814 -6.27932,-25.82913c-1.19965,-4.86803 -2.5729,-10.08359 -2.93522,-15.10201c-0.09419,-1.3045 0.69729,-3.28263 -0.45736,-3.89694c-9.66767,-0.76648 -19.27227,-2.27696 -28.8674,-3.64818c-5.15418,-0.73657 -10.36669,-2.19626 -15.56129,-2.57118c-9.97647,-0.72005 -19.74047,-0.44629 -29.62056,0.7749z"/><path d="M161.45616,205.96829c0.00598,0.00413 0.01194,0.0083 0.0179,0.01251l0.25047,-0.33593c2.46197,-2.01354 4.97557,-4.47096 7.5322,-6.30101c2.89979,-2.07568 6.69682,-3.25832 9.76466,-5.10783c0,0 2.14373,-1.28624 3.42997,0.8575c0.51057,0.85094 0.48069,1.56677 0.25897,2.12068c0.17929,0.69495 0.03327,1.32771 0.03327,1.32771c-0.68199,2.9509 -0.87638,6.14131 -2.17863,8.91228c-1.29101,2.74705 -3.03057,5.07796 -4.27159,7.80657c3.25859,2.03143 6.29766,5.26657 6.88271,9.12316c0.84682,5.5822 -3.72589,10.98125 -9.55876,9.6473c-1.30408,-0.29823 -2.42002,-1.13231 -3.61389,-1.74445c-2.39358,2.22345 -5.38012,3.73507 -8.90844,3.59297c-5.16167,-0.20788 -11.11679,-4.46802 -11.28354,-10.16172c-0.03012,-1.02855 0.30225,-2.02487 0.58867,-3.02527c-2.49592,-1.34913 -4.64095,-2.91018 -5.6701,-5.94031c-2.20774,-6.50033 4.67135,-17.49091 12.33925,-15.15383c2.4812,0.75624 3.37213,2.48201 4.38688,4.36968zM157.51289,209.17689c-0.28456,-0.55132 -1.06723,-2.53108 -1.96691,-2.81597c-3.63296,-1.15043 -6.96502,6.3402 -6.06075,8.84617c0.63282,1.75373 2.18143,2.61166 3.74628,3.3641c0.60664,-0.46026 1.75273,-0.99527 3.05922,0.07368c1.9349,1.58309 0.3518,3.51798 0.3518,3.51798l-1.48205,1.70075c-0.80057,3.54174 2.29627,6.97695 5.95979,7.01619c3.52722,0.03779 5.95129,-2.18934 7.70725,-4.88679c0,0 1.38675,-2.08013 3.46688,-0.69338c0.68113,0.45409 0.99053,0.98251 1.09862,1.48791c0.11679,0.2708 0.15913,0.4684 0.15913,0.4684l0.07795,1.72564c2.56778,0.38928 5.20197,-0.47668 4.60908,-3.80597c-0.50962,-2.86172 -3.42644,-5.34936 -5.88925,-6.40427c-0.11669,-0.04223 -0.2368,-0.09376 -0.36032,-0.15552c-0.74083,-0.37041 -1.11349,-0.86354 -1.28062,-1.35742c-0.19143,-0.48498 -0.22548,-1.10215 0.10079,-1.86345c0.05728,-0.13364 0.119,-0.25618 0.18444,-0.36845c1.30453,-3.5515 3.41558,-6.36859 5.05608,-9.72118c0.68932,-1.40874 0.99571,-3.03638 1.25486,-4.66017c-1.83031,0.83169 -3.66675,1.68388 -5.14662,2.7705c-2.47479,1.81715 -4.86902,4.13555 -7.2678,6.09899l-0.93501,1.49876c0,0 -1.43366,2.04807 -3.48174,0.61442c-0.62417,-0.43692 -0.92497,-0.93091 -1.04152,-1.4066z"/><path d="M211.28868,222.52758c-0.37733,-2.24129 -0.03803,-5.32851 -0.99272,-7.41868c-0.07004,-0.15334 -0.14121,-0.30157 -0.21329,-0.44531c-0.66213,6.40886 -1.51247,12.80401 -1.93236,19.23059c2.60082,0.13509 5.18464,-0.07591 7.78204,-0.58325c2.72187,-0.53165 6.51,-0.62682 3.2139,-3.62519c-0.52484,-0.47743 -1.04565,-0.98488 -1.67356,-1.31521c-0.72842,-0.3832 -1.55846,-0.53002 -2.33769,-0.79504l-1.50733,0.22886c0,0 -2.4984,0.0893 -2.5877,-2.40911c-0.0276,-0.77221 0.19201,-1.31428 0.50865,-1.6947zM211.46898,206.89432c0.45958,2.88184 2.22168,3.48523 3.39126,6.17317c1.17534,2.70117 0.86408,5.77526 1.35715,8.61873l0.26282,1.17104l0.32465,0.00533c5.08225,1.85592 13.14649,8.16166 6.24332,13.62192c-0.90645,0.71698 -2.19346,0.73183 -3.30593,1.0451c-4.75546,1.33913 -9.68696,1.72763 -14.57269,1.1077c-0.00716,-0.00089 -0.01435,-0.0018 -0.02156,-0.00274c-0.86098,-0.11205 -1.38403,-0.48421 -1.70002,-0.92228c-0.3426,-0.4176 -0.56848,-1.01848 -0.45642,-1.87946c0.00579,-0.04445 0.01226,-0.088 0.01941,-0.13067l0.04058,-0.27322c0.50562,-9.47194 2.0446,-18.86563 2.67582,-28.32737c0,0 0.16738,-2.49439 2.66177,-2.32701c0.20864,0.014 0.39867,0.04429 0.57173,0.08803c2.08626,-0.13446 2.50811,2.03175 2.50811,2.03175z"/><path d="M245.68868,225.12758c-0.37733,-2.24129 -0.03803,-5.3285 -0.99272,-7.41867c-0.07004,-0.15334 -0.14121,-0.30157 -0.21329,-0.44531c-0.66213,6.40887 -1.51247,12.804 -1.93236,19.23059c2.60082,0.13509 5.18464,-0.07591 7.78204,-0.58325c2.72187,-0.53165 6.51,-0.62682 3.21389,-3.62519c-0.52484,-0.47743 -1.04565,-0.98487 -1.67356,-1.31521c-0.72841,-0.3832 -1.55846,-0.53003 -2.33769,-0.79504l-1.50733,0.22886c0,0 -2.4984,0.0893 -2.5877,-2.4091c-0.0276,-0.77221 0.19201,-1.31428 0.50865,-1.6947zM245.86898,209.49432c0.45958,2.88184 2.22168,3.48523 3.39126,6.17317c1.17534,2.70117 0.86408,5.77525 1.35714,8.61872l0.26283,1.17104l0.32465,0.00533c5.08225,1.85592 13.1465,8.16166 6.24332,13.62192c-0.90645,0.71698 -2.19346,0.73183 -3.30593,1.0451c-4.75546,1.33913 -9.68696,1.72763 -14.57269,1.1077c-0.00716,-0.00089 -0.01435,-0.0018 -0.02156,-0.00274c-0.86098,-0.11205 -1.38403,-0.48421 -1.70002,-0.92228c-0.3426,-0.4176 -0.56848,-1.01848 -0.45642,-1.87946c0.00579,-0.04445 0.01226,-0.088 0.01941,-0.13067l0.04058,-0.27323c0.50562,-9.47194 2.0446,-18.86563 2.67582,-28.32736c0,0 0.16738,-2.49439 2.66177,-2.32701c0.20864,0.014 0.39867,0.04429 0.57173,0.08803c2.08626,-0.13446 2.50811,2.03175 2.50811,2.03175z"/><path d="M202.68797,184.86446c-2.14373,1.28624 -3.42998,-0.8575 -3.42998,-0.8575l-0.61571,-1.02656c-0.82921,-1.43 -1.75644,-2.81007 -2.79272,-4.09794c0,0 -1.56173,-1.95217 0.39043,-3.51391c1.95217,-1.56174 3.51391,0.39043 3.51391,0.39043c1.18157,1.4844 2.24759,3.06543 3.20728,4.70206l0.58428,0.97344c0,0 1.28624,2.14373 -0.85749,3.42997z"/><path d="M213.83606,181.97382c-1.45309,2.03433 -3.48743,0.58123 -3.48743,0.58123l-1.2891,-0.92518c-1.71558,-1.13783 -3.22913,-2.65139 -4.36696,-4.36696c0,0 -1.34219,-2.10915 0.76696,-3.45134c2.10915,-1.34219 3.45134,0.76696 3.45134,0.76696c0.68424,1.14691 1.68613,2.1488 2.83303,2.83303l1.51091,1.07482c0,0 2.03433,1.45309 0.58123,3.48743z"/><path d="M224.00173,170.22072c-2.5,0 -2.5,-2.5 -2.5,-2.5l0.00736,-1.40825c-0.15698,-2.0591 -0.20627,-4.12668 -0.20736,-6.19174c0,0 0,-2.5 2.5,-2.5c2.5,0 2.5,2.5 2.5,2.5c-0.00108,1.93715 0.04264,3.87693 0.19263,5.80826l0.00737,1.79174c0,0 0,2.5 -2.5,2.5z"/><path d="M254.40173,170.62072c-2.5,0 -2.5,-2.5 -2.5,-2.5l0.02907,-2.58014c0.26007,-1.65757 0.37561,-3.34202 0.37093,-5.01986c0,0 0,-2.5 2.5,-2.5c2.5,0 2.5,2.5 2.5,2.5c-0.0047,1.93201 -0.14022,3.86984 -0.42907,5.78015l0.02907,1.81986c0,0 0,2.5 -2.5,2.5z"/><path d="M262.58853,182.96399c-2,1.5 -3.5,-0.5 -3.5,-0.5l-0.45824,-0.62759c-1.2,-1.33333 -2.4,-2.66667 -3.6,-4c0,0 -1.67241,-1.85824 0.18582,-3.53065c1.85824,-1.67241 3.53065,0.18582 3.53065,0.18582c1.2,1.33333 2.4,2.66667 3.6,4l0.74176,0.97241c0,0 1.5,2 -0.5,3.5z"/><path d="M273.14162,181.39832c-2.03433,1.4531 -3.48743,-0.58124 -3.48743,-0.58124l-0.88622,-1.25263c-1.15911,-1.39335 -2.36427,-2.75245 -3.64721,-4.03269c0,0 -1.76777,-1.76777 0,-3.53553c1.76777,-1.76777 3.53553,0 3.53553,0c1.38706,1.38974 2.69459,2.8599 3.95279,4.36731l1.11378,1.54737c0,0 1.4531,2.03433 -0.58124,3.48743z"/><path d="M210.1282,159.39062c-2.42535,0.60634 -3.0317,-1.81902 -3.0317,-1.81902l-0.35277,-1.51971c-0.66242,-6.69627 -3.08777,-13.66874 2.05163,-19.31874c0.90039,-0.98985 1.73329,-2.18411 2.96565,-2.70543c4.6258,-1.95684 11.20861,1.57913 12.41428,6.17539c0.28697,1.09396 -0.17124,2.25545 -0.25687,3.38318c0,0 -0.27608,2.48471 -2.76079,2.20863c-2.48471,-0.27608 -2.20863,-2.76078 -2.20863,-2.76078c0.56593,-3.22315 -0.92661,-3.67084 -3.88928,-4.21164c-0.45789,-0.08358 -0.96521,-0.37581 -1.38529,-0.17537c-1.20679,0.57579 -1.90858,1.94155 -2.48785,3.14667c-1.94348,4.04322 0.11167,9.5952 0.53234,13.76057l0.2283,0.80456c0,0 0.60634,2.42535 -1.81902,3.03169z"/><path d="M216.11175,182.52938l-0.559,-1.29666c0.59128,-1.39756 0.48215,-3.39622 1.77383,-4.19269c5.38498,-3.32045 9.62765,3.46133 7.97986,7.86243c-0.63999,1.70937 -1.47758,3.96458 -3.24805,4.40839c-4.74238,1.18879 -5.9147,-3.18047 -5.94664,-6.78147z"/><path d="M321.34415,168.53297c-2.09123,-1.36995 -0.72128,-3.46118 -0.72128,-3.46118l0.53449,-0.31796c0.10596,-0.96976 0.84657,-1.65402 0.84657,-1.65402l0.81666,-0.6529c1.7855,-2.61243 2.22322,-8.93059 -2.28486,-9.77353c-1.29202,-0.24159 -2.4087,1.06225 -3.65494,1.48007c-1.52877,0.51256 -3.08792,1.26296 -4.16138,2.46611c0,0 -0.06007,0.06254 -0.16947,0.15312l0.04204,0.21476c0,0 0.23663,2.48877 -2.25214,2.7254c-2.48877,0.23663 -2.72541,-2.25214 -2.72541,-2.25214l0.20702,-0.25371c-2.54074,-4.50978 -6.22358,-4.40245 -10.24037,-1.40871c-1.49012,1.11058 -3.66902,2.2938 -3.536,4.52561c0.20828,3.49433 3.79532,5.3745 6.09983,7.48397c0.65949,0.50905 0.8973,1.09731 0.93604,1.63518c0.08777,0.52928 -0.00435,1.15317 -0.51937,1.79888l-1.23053,1.87841c-2.72935,4.16636 -5.61585,8.27608 -8.20857,12.54018c2.89312,-0.27792 5.832,-0.55763 8.54915,-1.22363c4.12063,-1.01 8.21259,-2.70404 12.26807,-3.98894l2.17711,-0.12829c0,0 1.51235,-0.01218 2.19394,1.1587c2.20923,1.33255 4.45643,2.0652 7.09192,0.94608c4.61836,-1.96112 9.49359,-8.27013 5.30964,-12.95657c-0.92895,-1.04051 -3.33327,-0.85785 -4.91902,-0.74482c-0.60023,0.32638 -1.44085,0.47049 -2.44915,-0.19004zM332.40251,181.38472c-4.99713,6.62424 -12.40475,8.17677 -19.3336,3.95148c-4.04692,1.30476 -8.13748,2.96712 -12.24823,3.96685c-4.3343,1.05409 -9.16841,1.19736 -13.58286,1.81457c0,0 -2.47593,0.34609 -2.82202,-2.12983c-0.0847,-0.60588 -0.0004,-1.08422 0.17525,-1.46116c0.05083,-0.65645 0.33053,-1.15808 0.33053,-1.15808c3.07771,-5.51271 6.76735,-10.70694 10.22701,-15.98812l0.13803,-0.2107c-3.06875,-2.66257 -6.12277,-5.08658 -6.24074,-9.75551c-0.17129,-6.77954 8.84613,-12.36316 15.00423,-11.90368c2.93028,0.21864 4.7943,1.59508 6.31771,3.52734c2.83481,-2.30678 7.54986,-4.9397 10.93468,-4.30533c7.65949,1.43553 9.12482,10.28599 6.43092,16.11163c0.48482,0.04714 0.90148,0.11581 1.19187,0.21456c7.50836,2.55335 7.54741,11.93051 3.47721,17.326z" data-paper-data="{&quot;index&quot;:null}"/></g></g></svg>