<svg version="1.1" xmlns="http://www.w3.org/2000/svg" xmlns:xlink="http://www.w3.org/1999/xlink" width="87.43072" height="138.94105" viewBox="0,0,87.43072,138.94105"><g transform="translate(-199.59624,-43.16361)"><g data-paper-data="{&quot;isPaintingLayer&quot;:true}" fill="#9966ff" fill-rule="nonzero" stroke="none" stroke-width="0.5" stroke-linecap="butt" stroke-linejoin="miter" stroke-miterlimit="10" stroke-dasharray="" stroke-dashoffset="0" style="mix-blend-mode: normal"><path d="M286.24129,179.82751c-1.63266,1.63266 -3.26532,0.24956 -3.50534,0.02861c-7.16066,0 -14.32131,0 -21.48197,0c-14.36908,0 -28.66835,0.0841 -43.01009,-0.70521c-1.13488,-0.06246 -2.30191,-0.36657 -3.40816,-0.10568c-3.06127,0.72195 -3.35307,6.25013 -8.42944,0.40743c-2.28772,-2.63307 3.44668,-8.15729 4.34113,-9.2817c7.03767,-8.84699 13.57831,-17.78368 21.47369,-25.90377c3.31806,-3.41044 6.95369,-6.99666 9.6922,-10.90756c5.9966,-8.56383 10.42806,-18.77147 14.92664,-28.17513c3.42525,-7.16 7.47504,-14.76845 9.15757,-22.59526c2.03742,-9.47768 0.87347,-19.16599 -0.1679,-28.62848c-2.23122,-9.46442 -12.36238,-5.32843 -18.79927,-2.50034c-3.53651,1.55379 -8.04812,3.62531 -11.3194,5.68617c-2.87463,1.81098 -5.4833,4.05999 -8.4954,5.63174c-8.16996,4.2632 -16.65111,6.9262 -23.29811,13.61666c0,0 -1.76777,1.76777 -3.53553,0c-1.76777,-1.76777 0,-3.53553 0,-3.53553c7.09948,-7.05873 15.8594,-10.02208 24.54822,-14.52824c2.88853,-1.49804 5.36348,-3.68906 8.12009,-5.41789c5.099,-3.19788 11.15856,-5.74909 16.75541,-7.85928c1.55164,-0.58502 3.02952,-1.44733 4.66282,-1.73398c1.79033,-0.31421 3.63533,-0.06143 5.45291,-0.04137c1.18998,0.01313 2.48112,-0.34516 3.56737,0.14093c4.54272,2.03284 6.13401,5.30906 7.26204,9.65671c1.13351,10.10973 2.31156,20.443 0.13503,30.56394c-1.76734,8.21815 -5.93799,16.18251 -9.53543,23.702c-4.61951,9.65585 -9.18399,20.09187 -15.34134,28.88526c-2.89233,4.13058 -6.69998,7.92027 -10.20314,11.52522c-5.64689,5.8076 -10.68283,11.87075 -15.64345,18.27997c-1.85695,2.39922 -3.60205,4.88511 -5.50182,7.25058c-0.23157,0.28833 -0.45531,0.5852 -0.67796,0.88357c2.49975,-0.2823 7.52839,0.20624 9.51574,0.34819c12.51617,0.89401 25.20773,0.34103 37.75556,0.34103c7.50531,0 15.01061,0 22.51592,0l2.47139,1.43586c0,0 1.76777,1.76777 0,3.53553z"/></g></g></svg>