<svg version="1.1" xmlns="http://www.w3.org/2000/svg" xmlns:xlink="http://www.w3.org/1999/xlink" width="143.822" height="111.86562" viewBox="0,0,143.822,111.86562"><g transform="translate(-128.1043,-49.59206)"><g data-paper-data="{&quot;isPaintingLayer&quot;:true}" fill="#9966ff" fill-rule="nonzero" stroke="none" stroke-width="0.5" stroke-linecap="butt" stroke-linejoin="miter" stroke-miterlimit="10" stroke-dasharray="" stroke-dashoffset="0" style="mix-blend-mode: normal"><path d="M150.92291,158.95768c0,-2.5 2.5,-2.5 2.5,-2.5l2.09149,0.01931c1.05646,-0.13198 2.11291,-0.26397 3.16937,-0.39595c5.54588,-0.84202 11.14995,-1.48861 16.74247,-1.93988c1.84045,-0.14851 4.75671,0.55482 5.4142,-1.17058c1.10311,-2.89479 -0.506,-8.6829 -0.77716,-11.55007c-0.96259,-10.17821 -2.49226,-21.64978 -11.80902,-27.47422c-2.66011,-1.66299 -6.15988,-1.53912 -8.89427,-3.07693c-0.07956,-0.04474 -0.15819,-0.0908 -0.23595,-0.13809l-0.01472,0.02945l-3.15366,-1.57683c-0.84561,-0.40086 -1.43041,-1.26228 -1.43041,-2.26029c0,-1.18975 0.83109,-2.18539 1.9444,-2.43804l3.15136,-0.78784l0.01137,0.04547l0.13592,-0.07761c9.92503,-1.18816 13.83166,-8.9386 19.0269,-16.65269c2.36573,-7.19876 -1.68966,-13.24609 -6.39298,-18.4169c-2.58921,-2.84656 -5.8234,-3.99724 -9.24254,-5.64229c-10.34021,-4.97499 -21.35963,-7.42731 -32.75936,-8.37468c0,0 -2.49136,-0.20761 -2.28375,-2.69898c0.20761,-2.49136 2.69898,-2.28375 2.69898,-2.28375c4.27315,0.35704 8.61854,0.74158 12.8377,1.5476c1.55338,0.29676 7.3905,2.00962 8.4596,2.31513c7.33983,2.09745 15.48089,4.81944 21.66438,9.46924c7.98599,6.00522 12.71462,16.74963 9.50954,26.28138c-3.2847,4.97045 -6.73015,11.53899 -11.50201,15.27189c-1.61237,1.26131 -3.4051,2.15927 -5.28896,2.80573c3.26633,1.40336 6.48035,4.05704 8.53868,5.71358c9.0124,7.25317 9.48661,22.32534 10.4795,32.92407c0.22509,2.40269 1.01617,7.07532 -0.26981,9.41359c-2.20856,4.01575 -5.50348,3.36716 -9.3439,3.78013c-5.51805,0.59337 -11.04209,1.08086 -16.53089,1.91517c-1.07827,0.13486 -2.15655,0.26972 -3.23482,0.40457l-2.71166,0.01931c0,0 -2.5,0 -2.5,-2.5z"/><path d="M250.69951,66.39906c-0.1203,-0.15438 -0.18217,-0.26266 -0.18217,-0.26266c-1.85104,-3.45939 -4.0734,-3.93762 -7.52151,-5.30694c-1.41854,-0.56333 -2.68837,-1.50279 -4.15596,-1.92207c-6.79777,-1.94206 -14.21608,2.00568 -18.90995,6.42906c-5.62454,5.30041 -11.77465,12.9274 -11.57273,21.15475c0.1153,4.69806 1.12271,9.59564 2.06669,14.18055c3.14643,8.91571 6.24501,18.95253 11.52071,26.87655c2.34262,3.51857 5.52118,6.25403 8.49538,9.22823c3.37379,3.37379 5.24104,5.37681 9.38647,7.71525c5.36348,3.02554 10.72282,5.0543 16.97505,5.09488c0.54479,0.00354 3.82244,-0.43586 4.22033,-0.8925c1.56427,-1.79524 1.97409,-4.335 3.03897,-6.46476c4.16218,-8.28603 2.4535,-16.53563 0.59017,-25.18473c-0.40927,-1.89972 -0.50328,-3.87897 -1.12355,-5.72062c-0.60659,-1.80105 -1.55441,-3.48669 -2.03869,-5.32441c-1.47017,-5.57893 -1.60881,-11.33876 -2.84144,-16.97211c-1.09435,-5.00137 -3.4969,-10.04314 -5.12895,-14.93542c-0.86735,-2.60712 -1.90659,-5.11477 -2.81882,-7.69307zM253.52126,61.70528c1.59996,0.46306 1.66401,2.23976 1.66658,2.38128c0.96446,2.83807 2.12141,5.57217 3.07391,8.42442c1.69561,5.0907 4.1057,10.28187 5.27786,15.48451c1.24153,5.51052 1.31314,11.20095 2.76223,16.64992c0.46678,1.75522 1.39429,3.35784 1.96394,5.08241c0.67076,2.0307 0.82857,4.1964 1.27803,6.28724c0.59447,2.7654 1.66833,5.43295 2.03883,8.23716c0.91529,6.92754 0.03668,14.01454 -3.04971,20.21325c-0.78493,1.56986 -3.71817,7.50292 -4.16575,7.94468c-1.32656,1.30931 -5.43133,2.16435 -7.41598,2.17427c-7.14415,0.0357 -13.46776,-2.2654 -19.58809,-5.74156c-4.48803,-2.54907 -6.84268,-4.91482 -10.45866,-8.5308c-4.22271,-4.22271 -8.36107,-8.09759 -11.24701,-13.4031c-4.20313,-7.72703 -7.1511,-16.62773 -10.05112,-24.89893c-1.03407,-4.99021 -2.17307,-10.36017 -2.24898,-15.48082c-0.12354,-8.33377 4.90371,-16.1433 10.2631,-22.12144c6.38188,-7.11868 16.5263,-12.94995 26.49828,-10.33409c1.64245,0.43085 3.06958,1.45915 4.64981,2.08055c3.82209,1.50297 6.46957,2.67929 8.75273,5.55103z"/></g></g></svg>