<svg version="1.1" xmlns="http://www.w3.org/2000/svg" xmlns:xlink="http://www.w3.org/1999/xlink" width="339.31087" height="426.73204" viewBox="0,0,339.31087,426.73204"><g transform="translate(-55.14866,112.15572)"><g data-paper-data="{&quot;isPaintingLayer&quot;:true}" fill="#9966ff" fill-rule="nonzero" stroke="none" stroke-width="0.5" stroke-linecap="butt" stroke-linejoin="miter" stroke-miterlimit="10" stroke-dasharray="" stroke-dashoffset="0" style="mix-blend-mode: normal"><path d="M274.71055,191.11474c-2.49742,0.11359 -2.61101,-2.38383 -2.61101,-2.38383l-0.05426,-1.28169c-1.04613,-10.21092 -0.11429,-19.96274 0.17727,-30.17264c1.983,-33.16953 4.04684,-66.36098 6.28583,-99.51586c0.5249,-5.65451 0.95913,-11.31334 1.45526,-16.96969c0.14675,-1.6731 0.24016,-3.35387 0.49042,-5.01464c0.08878,-0.5892 0.73595,-1.15296 0.52282,-1.70939c-0.19097,-0.49856 -0.93462,-0.53247 -1.44344,-0.69412c-1.23793,-0.39328 -2.50867,-0.67752 -3.77561,-0.96395c-3.94896,-0.89277 -7.97437,-1.47361 -12.01459,-1.7733c-15.34224,-1.13802 -30.91429,0.20609 -46.26829,0.58801c-9.14765,0.18571 -18.24593,0.17431 -27.39315,-0.07073c-1.53725,-0.04118 -3.07355,-0.1197 -4.61116,-0.14418c-0.60361,-0.00961 -1.57666,-0.51456 -1.81059,0.04197c-0.39297,0.93488 0.42814,1.98652 0.53399,2.99508c0.51499,4.90671 0.98616,9.77069 1.61727,14.67392c1.77456,13.78706 2.51221,27.41029 3.05404,41.29162c0.89139,22.83666 0.85376,45.67791 1.21288,68.53037c0.17039,10.84241 1.35116,21.82056 1.00103,32.64244c1.26882,-1.77488 3.79116,-2.30295 5.91496,-2.80256c4.86402,-1.14423 10.04428,-1.57279 15.00981,-1.97649c12.93088,-1.05131 25.95485,0.7058 38.68744,2.90709c7.81265,1.3507 15.6762,2.42392 23.36085,4.38595c0,0 2.42203,0.61949 1.80253,3.04152c-0.61949,2.42203 -3.04152,1.80254 -3.04152,1.80254c-7.55263,-1.93537 -15.29315,-2.97525 -22.97366,-4.30309c-10.67915,-1.84626 -21.71073,-3.51732 -32.58745,-3.24932c-9.8311,0.24224 -18.94522,2.74439 -28.47387,4.63351c-0.84825,-2.23024 -1.99072,-4.36982 -2.54475,-6.69072c-0.01788,-0.07488 -0.56786,-10.02279 -0.57841,-10.24031c-0.32469,-6.69094 -0.47109,-13.37486 -0.57634,-20.07198c-0.35851,-22.81361 -0.31983,-45.61613 -1.2097,-68.41391c-0.60166,-15.41411 -1.62254,-30.49701 -3.68423,-45.79281c-0.463,-3.435 -1.02898,-6.70874 -0.98784,-10.19333c0.02423,-2.0521 -0.72122,-4.44987 0.44164,-6.14086c1.90603,-2.77165 8.11183,-1.97588 10.56132,-1.92503c9.0723,0.18831 18.08892,0.25476 27.162,0.07061c17.21433,-0.42823 34.65188,-1.93411 51.80974,-0.01039c4.61158,0.51704 13.90886,0.92278 16.37984,5.83462c0.34022,0.6763 -0.58573,8.93496 -0.6071,9.17868c-0.49485,5.64397 -0.92784,11.2904 -1.45213,16.93247c-2.23236,33.09585 -4.29322,66.2274 -6.27474,99.33757c-0.28958,9.96836 -1.22139,19.47432 -0.19845,29.44133l0.07518,1.56455c0,0 0.11359,2.49742 -2.38383,2.611z"/><path d="M213.10142,216.2122c1.70575,1.82768 -0.12193,3.53343 -0.12193,3.53343l-0.53398,0.36694c-5.54002,9.20524 -10.8777,18.52604 -16.23829,27.83676c-6.18025,10.73144 -11.74748,21.88091 -16.87053,33.15443c-1.67739,3.69119 -3.6429,11.86039 -7.79005,13.47575c-1.58581,0.61769 -5.94641,-4.36181 -6.73636,-5.21059c-7.99464,-8.59005 -15.45086,-17.28214 -24.36855,-24.96293c-2.06253,-1.86196 -7.09133,-5.86156 -7.53743,-8.80144c-0.23604,-1.55558 1.36404,-2.84562 2.22243,-4.16422c2.33765,-3.59096 5.52575,-6.68473 8.45577,-9.7843c13.65326,-14.44328 29.7456,-26.84395 46.2532,-37.84904c0,0 2.08013,-1.38675 3.46688,0.69338c1.38675,2.08013 -0.69338,3.46687 -0.69338,3.46687c-14.80514,9.87011 -29.42927,20.89816 -42.00311,33.53558c-2.97758,2.99264 -6.01671,6.19515 -8.73535,9.42643c-0.94052,1.11786 -1.72915,2.36062 -2.70033,3.45195c-0.35972,0.40423 -1.44083,0.49663 -1.27065,1.01029c0.32405,0.97808 1.52653,1.38432 2.29238,2.07363c1.18286,1.06464 2.36915,2.12546 3.55372,3.18819c7.11446,6.12694 13.4682,12.66353 19.68488,19.69969c1.80223,2.03981 3.04974,3.46839 5.03416,5.60364c0.84065,0.90456 1.9063,1.62781 2.5671,2.67101c0.00635,0.01002 0.01188,0.02092 0.01665,0.03265c1.35148,-4.93376 3.70034,-9.54933 5.88097,-14.17194c4.64215,-9.84064 9.51496,-19.6009 14.94446,-29.03381c5.37671,-9.33871 10.73076,-18.68731 16.28743,-27.92023l1.40647,-1.44405c0,0 1.82768,-1.70575 3.53343,0.12193z"/><path d="M273.8914,241.16739c1.91167,-1.61106 3.52274,0.3006 3.52274,0.3006l0.55034,0.65302c3.38058,4.02508 5.43561,8.36225 8.43134,12.60764c1.8939,2.68393 4.27793,4.98786 6.32685,7.5554c7.06776,8.85676 13.62799,18.47664 18.49419,28.72404c1.85404,3.92147 4.30832,8.59323 4.88677,12.96968c0.21836,1.65208 0.89558,3.5856 0.01332,4.99935c-0.79755,1.278 -2.73335,1.30954 -4.19004,1.69349c-3.50419,0.92363 -7.64634,0.70123 -11.24801,0.88925c-3.39867,0.17743 -8.09501,-0.36866 -11.44527,0.48631c-1.73876,0.44372 -3.06176,2.13497 -4.84326,2.35039c-6.01133,0.72692 -13.26511,-0.95184 -19.31687,-1.46566c-0.12721,-0.0108 -9.10505,-0.75255 -9.50894,-0.80971c-1.84671,-0.26132 -3.9141,-0.04406 -5.50073,-1.02449c-1.21374,-0.75001 -1.43224,-2.46808 -2.14836,-3.70212c-0.16385,-6.49269 0.04888,-13.04732 -0.32793,-19.5299c-1.2454,-21.42555 -6.94617,-42.78469 -11.01966,-63.77867c0,0 -0.4762,-2.45423 1.97803,-2.93043c2.45423,-0.4762 2.93042,1.97803 2.93042,1.97803c4.11615,21.21385 9.82906,42.77209 11.10155,64.42041c0.36321,6.1791 0.20262,12.44338 0.1894,18.63228c0.2473,1.13443 2.1885,0.88532 3.34683,0.96517c6.02059,0.41505 12.03142,1.04303 18.0454,1.54627c3.0981,0.25925 6.19683,1.06357 9.29347,0.78747c1.65689,-0.14774 2.83875,-1.84506 4.44996,-2.25872c4.9419,-1.26878 11.11388,-0.61743 16.19811,-0.86327c2.30718,-0.11156 4.59349,-0.56669 6.90302,-0.6067c0.35415,-0.00613 0.875,0.73667 0.98453,0.39982c0.13639,-0.41944 -0.58838,-0.67601 -0.76303,-1.08101c-0.40976,-0.95022 -0.65509,-1.96324 -0.97422,-2.94761c-0.99253,-3.06149 -2.17056,-6.07119 -3.55249,-8.97776c-4.68627,-9.90262 -11.06198,-19.19832 -17.88673,-27.75022c-0.26804,-0.33587 -6.34413,-7.56518 -6.50161,-7.78834c-2.9235,-4.14302 -4.86443,-8.36122 -8.16937,-12.26826l-0.55034,-0.65303c0,0 -1.61107,-1.91166 0.3006,-3.52273z"/><path d="M151.27547,122.51453c0.67667,0.00371 1.47038,0.28089 2.03906,1.32334c1.19725,2.19468 -0.99743,3.39192 -0.99743,3.39192l-3.85575,-0.23826c-1.91265,-2.37452 -3.82528,-4.74906 -5.7379,-7.1236c-5.33371,-6.42232 -10.31951,-13.08966 -15.56304,-19.57923c-9.10998,-11.27483 -19.12577,-21.73976 -28.5281,-32.75522c-7.25336,-8.49781 -14.03903,-17.43763 -21.08662,-26.10872c-6.44234,-7.92641 -12.73777,-15.96299 -18.93727,-24.08138c-2.07728,-2.72025 -5.56549,-5.58269 -1.76557,-9.70533c1.1368,-1.23335 3.33398,-0.4621 5.0113,-0.45603c1.0011,0.00362 8.44038,0.87919 9.63476,1.01565c8.2755,0.94554 16.51978,2.16757 24.79797,3.08428c1.59074,0.17616 3.18107,0.38028 4.7798,0.45485c1.60666,0.07494 3.32396,-0.58408 4.82522,-0.00684c1.76642,0.67919 6.08827,4.98358 7.73034,6.54719c9.19333,8.76205 17.75956,18.14077 26.4396,27.40487c11.36472,12.12943 22.77884,25.20507 31.43509,39.44105c0,0 1.29732,2.13704 -0.83972,3.43437c-2.13704,1.29732 -3.43437,-0.83972 -3.43437,-0.83972c-8.45177,-13.94629 -19.68711,-26.74607 -30.80969,-38.61705c-8.61523,-9.19493 -17.11446,-18.50842 -26.2403,-27.20388c-0.32382,-0.30884 -5.46307,-5.27123 -5.88952,-5.43263c-1.05297,-0.39854 -2.24124,0.29835 -3.36675,0.2704c-2.20623,-0.05479 -7.95676,-0.83211 -10.17588,-1.11122c-8.11571,-1.02073 -16.22325,-2.1172 -24.35832,-2.97668c-1.63136,-0.17236 -3.28997,-0.154 -4.89803,-0.47832c-0.50527,-0.1019 -0.82055,-0.79234 -1.33583,-0.77893c-0.31007,0.00806 0.27413,0.5633 0.47295,0.80137c0.59611,0.71382 1.30919,1.32469 1.90136,2.04178c0.07498,0.09079 3.80569,4.93388 4.61285,5.97685c4.70215,6.0759 9.44434,12.09978 14.29006,18.06177c7.02536,8.64374 13.78821,17.55744 21.0194,26.02777c9.42921,11.045 19.46926,21.5414 28.6044,32.84737c5.23738,6.48197 10.21701,13.14122 15.54422,19.55608c1.56058,1.93738 3.12115,3.87476 4.68171,5.81215z"/><path d="M329.59328,127.29459c-1.62697,-1.89815 0.27118,-3.52512 0.27118,-3.52512l3.61881,-3.10181c13.14458,-11.26669 23.27783,-26.01428 33.73621,-39.78304c6.01835,-7.92333 11.92882,-15.85108 17.31699,-24.22531c1.71608,-2.66711 4.86234,-6.20058 4.91581,-9.52109c0.06651,-4.13054 -6.12512,-5.44428 -9.08669,-6.31583c-12.72786,-3.74563 -25.82608,-5.94813 -38.84909,-8.39815c-4.0376,-0.83891 -8.12701,-1.44601 -12.15663,-2.27639c-0.6943,-0.14307 -1.32761,-0.80306 -2.02182,-0.65954c-0.3617,0.07478 0.00863,0.75465 -0.11746,1.1018c-0.37914,1.04384 -0.95153,2.00774 -1.38359,3.03081c-1.1445,2.71007 -2.22005,5.45013 -3.42724,8.13286c-6.47363,14.38626 -14.49449,27.91881 -21.73048,41.91849c0,0 -1.1479,2.22088 -3.36879,1.07298c-2.22088,-1.1479 -1.07298,-3.36879 -1.07298,-3.36879c7.19432,-13.91907 15.17582,-27.37186 21.61266,-41.67456c1.67368,-3.71893 2.86651,-7.8123 4.89905,-11.34941c0.66692,-1.1606 1.05779,-2.76828 2.28536,-3.30198c1.52453,-0.6628 3.32923,-0.00555 4.98513,0.14107c4.20355,0.37219 8.34618,1.47115 12.46766,2.32782c13.16902,2.47688 26.43548,4.68406 39.29681,8.50845c5.65751,1.68229 12.33563,3.95699 12.66712,11.01197c0.2052,4.36725 -3.47438,8.84884 -5.69441,12.30054c-5.46196,8.49225 -11.45332,16.53453 -17.55579,24.5686c-10.67836,14.05837 -21.04068,29.04948 -34.46389,40.55499l-3.61881,3.10181c0,0 -1.89815,1.62697 -3.52512,-0.27118z"/><path d="M252.33085,-12.00693c2.33903,-0.88257 3.2216,1.45646 3.2216,1.45646l1.696,4.50434c0.45425,1.74375 0.9085,3.4875 1.36275,5.23125c0.03151,0.99155 0.24394,2.69663 0.23163,4.46564c6.9328,0.8965 13.84821,1.86988 20.73948,2.82366c0,0 2.47638,0.34285 2.13353,2.81923c-0.34285,2.47638 -2.81923,2.13353 -2.81923,2.13353c-7.04276,-0.97537 -14.11157,-1.97319 -21.19882,-2.8872c-0.30906,0.43307 -0.69623,0.79322 -1.17901,1.0524c-1.6588,0.89053 -4.38664,-0.56795 -6.48111,-2.0019c-18.20221,-2.15346 -36.50757,-3.50473 -54.7876,-2.26338c-0.812,0.13698 -10.01772,1.74827 -10.298,1.5237c-1.58115,-1.26685 -0.78822,-3.98791 -0.9033,-6.01071c-0.34823,-6.12139 0.16353,-12.39912 -0.16587,-18.57c-1.13683,-21.29757 -7.29851,-41.99624 -10.21449,-63.06302c-0.73029,-7.42095 0.3492,-15.62045 -1.26571,-22.89061c-0.32294,-1.45383 -3.05049,-6.27205 -1.82526,-7.30723c3.31104,-2.79746 12.71815,0.22628 16.54457,0.97071c17.21896,3.34995 34.46764,6.51769 51.69757,9.81903c11.3719,2.67446 22.88721,4.95641 34.20963,7.80471c2.91828,0.73413 10.14345,1.98266 12.18298,4.71124c2.67611,3.58023 0.72449,10.43935 0.62258,14.48202c-0.32209,12.77627 0.13897,25.66824 0.80916,38.42869c0.46262,8.81745 1.71416,19.11468 -1.24331,27.64014c-1.05833,3.05083 -2.75219,4.65322 -4.77721,7.24805l-0.91833,1.17089c0,0 -1.54283,1.96715 -3.50998,0.42432c-1.96715,-1.54283 -0.42432,-3.50998 -0.42432,-3.50998l0.91833,-1.17089c1.33332,-1.6907 3.26307,-3.62647 3.99636,-5.82594c2.64043,-7.9199 1.39391,-17.55715 0.96533,-25.71443c-0.61335,-11.68614 -0.90389,-23.42043 -0.90736,-35.12344c-0.00087,-2.92803 0.03919,-5.85901 0.22334,-8.78124c0.12986,-2.06067 1.60359,-4.57902 0.30788,-6.18663c-1.05401,-1.30773 -3.1788,-1.08837 -4.78652,-1.57449c-3.11791,-0.94276 -6.29028,-1.70856 -9.47734,-2.38143c-9.78448,-2.06575 -19.50034,-4.46007 -29.23419,-6.75155c-15.56824,-2.9787 -31.20244,-5.63319 -46.73114,-8.80471c-2.98003,-0.60863 -5.96507,-1.1938 -8.95669,-1.74262c-1.17798,-0.2161 -3.53856,-0.40678 -5.39352,-1.07946c0.26025,0.6713 0.41451,1.39938 0.5715,2.09631c0.31026,1.37738 0.36297,2.80198 0.4623,4.21037c0.45303,6.42371 0.27059,12.83038 0.90462,19.24996c2.93319,21.18084 9.09051,41.96814 10.24205,63.38375c0.24936,4.63744 0.53566,9.34614 0.4529,13.99299c-0.03002,1.68569 0.05084,3.39753 -0.28409,5.04989c-0.13964,0.68893 -1.7219,1.46229 -1.10372,1.79694c0.638,0.34537 0.80596,-1.33845 1.48656,-1.58969c1.65975,-0.6127 3.48829,-0.59376 5.23243,-0.89064c16.00454,-1.11547 32.02674,-0.26624 47.98507,1.38251c-3.39262,-2.85121 -6.72237,-5.82267 -10.00259,-8.73485c-2.22101,-1.97181 -5.74498,-4.77861 -4.66539,-8.53071c0.37735,-1.31148 7.73641,-3.66922 8.78928,-4.06686c8.84198,-3.33944 17.50563,-7.26064 26.1459,-11.08463c0,0 2.28612,-1.01176 3.29788,1.27436c1.01176,2.28612 -1.27436,3.29788 -1.27436,3.29788c-8.72593,3.86171 -17.47593,7.81686 -26.40492,11.19069c-1.45305,0.54904 -2.86416,1.25562 -4.38221,1.58474c-0.51276,0.11117 -1.4589,-0.81715 -1.54522,-0.29963c-0.10008,0.59998 0.93921,0.77336 1.39996,1.17047c1.73746,1.4975 3.47161,2.99888 5.21668,4.48751c3.76368,3.21059 7.45177,6.60862 11.32157,9.68632c0.49637,0.39477 1.03019,0.74137 1.56379,1.08776c0.54469,0.06563 1.0893,0.13193 1.6338,0.19884c-0.05186,-1.02851 -0.0324,-2.0629 -0.07443,-3.09222c-0.39317,-1.48007 -0.78633,-2.96013 -1.1795,-4.4402l-1.61076,-4.25938c0,0 -0.88257,-2.33903 1.45646,-3.2216z"/><path d="M211.63204,-34.89568c-2.49968,-0.03986 -2.45982,-2.53954 -2.45982,-2.53954l0.06093,-3.82101c0.1467,-9.19974 0.37361,-18.37732 0.74136,-27.57066c0,0 0.09992,-2.498 2.59793,-2.39808c2.498,0.09992 2.39808,2.59793 2.39808,2.59793c-0.36615,9.15337 -0.59193,18.29079 -0.738,27.45053l-0.06093,3.82101c0,0 -0.03986,2.49968 -2.53954,2.45982z"/><path d="M245.80563,-51.51207c-2.5,0 -2.5,-2.5 -2.5,-2.5c0,-1.66667 0,-5.24013 0,-6.9068c0,0 0,-2.5 2.5,-2.5c2.5,0 2.5,2.5 2.5,2.5c0,1.66667 0,3.33333 0,5v1.9068c0,0 0,2.5 -2.5,2.5z"/></g></g></svg>