<svg version="1.1" xmlns="http://www.w3.org/2000/svg" xmlns:xlink="http://www.w3.org/1999/xlink" width="163.17062" height="122.32596" viewBox="0,0,163.17062,122.32596"><g transform="translate(-152.49673,-53.59028)"><g data-paper-data="{&quot;isPaintingLayer&quot;:true}" fill="#9966ff" fill-rule="nonzero" stroke="none" stroke-width="0.5" stroke-linecap="butt" stroke-linejoin="miter" stroke-miterlimit="10" stroke-dasharray="" stroke-dashoffset="0" style="mix-blend-mode: normal"><path d="M215.91369,153.04377c-0.49029,2.45145 -2.94174,1.96116 -2.94174,1.96116l-1.7871,-0.367c-8.14142,-0.90583 -16.16529,-1.37033 -24.21082,-2.52198l0.0137,0.2192l-4.96722,0.31045c-0.05912,0.00418 -0.1188,0.00631 -0.17898,0.00631c-1.38071,0 -2.5,-1.11929 -2.5,-2.5c0,-0.99801 0.58479,-1.85943 1.43041,-2.26029l2.07285,-1.03642c0.61271,-0.6355 1.22542,-1.271 1.83813,-1.9065c3.3158,-3.68455 5.63769,-6.91719 8.27501,-10.97486c2.09334,-3.22072 2.76938,-2.67137 5.36232,-5.82027c4.95838,-6.02153 9.37747,-12.4403 11.95147,-19.79742c1.19709,-3.42158 3.71481,-8.00636 3.90363,-11.67331c0.36946,-7.17488 -3.64686,-13.80699 -6.93147,-19.82193c-1.65747,-3.344 -3.56964,-5.98042 -6.30378,-8.54487c-4.89894,-4.59489 -11.74464,-8.15286 -18.6981,-7.35646c-3.81986,0.4375 -8.31325,2.98479 -11.74162,4.59631c-4.68381,2.20164 -9.82483,3.91907 -14.7896,5.34634c0,0 -2.40381,0.6868 -3.09061,-1.71701c-0.6868,-2.40381 1.71701,-3.09061 1.71701,-3.09061c4.7044,-1.33488 9.59498,-2.97134 14.02928,-5.06048c3.85199,-1.81479 8.77397,-4.4941 13.07464,-5.00998c12.8186,-1.53765 24.74419,7.6259 30.23431,18.52123c3.7894,6.95493 7.96178,14.34184 7.47797,22.60587c-0.24331,4.15604 -2.80632,8.98106 -4.16217,12.85614c-2.76942,7.91517 -7.47277,14.84285 -12.80424,21.31613c-1.15279,1.39968 -3.91195,3.60308 -5.0445,5.38707c-2.54896,4.01511 -4.96638,7.29761 -8.09491,10.85191c2.70043,0.3142 7.03108,0.85493 7.47929,0.90522c5.07741,0.5696 10.12277,0.63633 15.21019,1.20081l2.21552,0.43352c0,0 2.45145,0.49029 1.96116,2.94174z"/><path d="M243.1644,175.60319c-2.23607,-1.11803 -1.11803,-3.3541 -1.11803,-3.3541l0.42563,-0.84987c0.50629,-0.94852 1.01259,-1.89703 1.51888,-2.84555c9.80899,-11.69204 16.01077,-25.06332 24.20872,-37.77021c2.68439,-4.16083 6.07001,-7.8669 8.79935,-11.99787c7.81755,-11.8322 13.74387,-25.35395 20.33705,-37.89732c2.78885,-4.70953 5.65299,-9.35107 8.11732,-14.23916c0.8104,-1.60746 1.46113,-3.30771 2.44403,-4.81588c0.20701,-0.31764 0.44511,-0.62177 0.70986,-0.90056c-3.38001,0.47201 -8.99502,-0.61395 -11.03026,-0.82589c-10.26603,-1.06906 -20.93643,-1.52792 -31.28008,-1.5165c0,0 -2.5,0 -2.5,-2.5c0,-2.5 2.5,-2.5 2.5,-2.5c12.23439,0.01251 24.49024,1.09466 36.68294,1.84069c2.57443,0.15752 10.4033,0.21644 11.84589,2.10221c2.63873,3.44939 -1.66099,5.38187 -2.87213,7.22359c-1.58221,2.40599 -2.44678,5.21811 -3.83593,7.7405c-2.02031,3.66841 -4.27971,7.22621 -6.41636,10.82911c-6.6383,12.63926 -12.62701,26.22263 -20.4897,38.1525c-2.72901,4.14066 -6.12448,7.85153 -8.81219,12.01786c-8.20885,12.72487 -14.37599,26.1871 -24.26259,37.85182c-0.41446,0.79513 -0.82891,1.59027 -1.24337,2.3854l-0.3749,0.75117c0,0 -1.11803,2.23607 -3.3541,1.11803z"/></g></g></svg>