<svg version="1.1" xmlns="http://www.w3.org/2000/svg" xmlns:xlink="http://www.w3.org/1999/xlink" width="215.1774" height="159.94909" viewBox="0,0,215.1774,159.94909"><g transform="translate(-134.87242,-51.18892)"><g data-paper-data="{&quot;isPaintingLayer&quot;:true}" fill="#9966ff" fill-rule="nonzero" stroke="none" stroke-width="0.5" stroke-linecap="butt" stroke-linejoin="miter" stroke-miterlimit="10" stroke-dasharray="" stroke-dashoffset="0" style="mix-blend-mode: normal"><path d="M265.84492,200.13198c0.85324,2.34989 -1.49666,3.20313 -1.49666,3.20313l-3.05796,0.95063c-10.17925,0 -20.23517,-0.49889 -30.37187,-1.20562c-10.26866,-0.71593 -20.76852,0.37124 -31.07377,0.09822c-13.32496,-0.35318 -26.63905,-1.06324 -39.9625,-1.46426c-4.0848,-0.12295 -9.49246,0.65829 -11.70553,-4.60758c-0.66479,-1.58184 1.53879,-3.0674 2.29829,-4.60602c1.31075,-2.65538 2.39818,-5.4156 3.64448,-8.10184c1.38864,-2.99305 3.47745,-5.61459 5.40446,-8.2929c5.75981,-8.00542 10.67082,-16.78176 15.63755,-25.29619c5.3658,-9.18913 9.75248,-18.96482 14.88837,-28.30155c3.58954,-6.52556 8.27985,-12.85662 10.75851,-19.92445c3.83776,-10.94326 -2.85626,-20.84692 -10.2458,-28.23646c-2.86327,-2.38606 -5.9903,-6.25577 -9.88287,-6.9773c-4.0165,-0.7445 -9.4947,3.22015 -12.86229,5.00127c-4.01138,2.12161 -8.44524,4.2715 -12.11827,6.95116c-6.65654,4.85628 -11.41106,11.39211 -16.28665,17.89402c0,0 -1.5,2 -3.5,0.5c-2,-1.5 -0.5,-3.5 -0.5,-3.5c5.17116,-6.89366 10.26411,-13.8011 17.33538,-18.93011c3.88478,-2.81775 8.49814,-5.09148 12.7301,-7.33401c4.48546,-2.37687 10.56527,-6.40913 15.92448,-5.52982c5.0916,0.83541 8.81243,5.13318 12.53182,8.23267c7.50349,7.50349 14.23351,16.87632 12.80709,28.13589c-1.02362,8.08 -5.99061,14.91187 -9.92802,21.79382c-6.13654,10.72565 -11.12226,22.08688 -17.33296,32.74422c-5.05156,8.65978 -10.05539,17.56918 -15.91035,25.71437c-1.73526,2.41403 -3.67392,4.74219 -4.90886,7.44655c-0.59317,1.29897 -2.91056,7.23703 -3.89125,8.57068c-0.38998,0.53033 -2.00788,0.41353 -1.70434,0.99765c0.40463,0.77866 1.68055,0.55485 2.55415,0.6377c3.11859,0.29576 6.26579,0.03409 9.39681,0.13315c11.6565,0.36879 23.30188,1.04237 34.96062,1.35109c10.37011,0.27473 20.91618,-0.79523 31.25204,-0.09031c10.03396,0.68432 19.98524,1.19596 30.06118,1.19596l1.35149,-0.65042c0,0 2.34989,-0.85324 3.20313,1.49666z"/><path d="M322.72284,68.93559c-1.27103,-2.74723 -2.87842,-5.0108 -5.08924,-7.61597c-1.59708,-1.88196 -1.90657,-2.88685 -4.20676,-3.69806c-2.02195,-0.71308 -4.12639,-1.41759 -6.27034,-1.43307c-0.64398,-0.00465 -4.27152,1.30704 -4.9121,1.494c-4.70946,1.37449 -10.8125,3.63159 -13.32425,8.38244c-1.17988,2.23168 -1.78839,5.4488 -2.1297,7.93811c-1.44313,14.33538 2.44259,28.90014 3.21721,43.20283c0.24359,4.49773 -0.58383,9.014 -0.80225,13.48853c-0.50537,10.35279 -0.79569,20.69121 -0.79569,31.06511c-0.01866,11.35102 1.8862,23.00131 6.58506,33.39841c1.70238,3.76683 4.82437,10.31566 9.76431,10.97081c3.80731,0.50494 8.76125,-1.02167 12.31428,-2.28852c2.07931,-0.74139 4.85964,-2.20763 6.51741,-3.40066c3.87918,-2.79169 6.80192,-6.86485 9.88753,-10.44578c5.59025,-6.47342 7.79908,-12.97067 9.63579,-21.19698c0.91403,-4.09378 1.9255,-7.59418 1.93636,-11.88255c0.01128,-4.45781 -1.33795,-9.00104 -1.88913,-13.40479c-1.42974,-11.42318 -3.20072,-22.70403 -5.25402,-34.03155c-0.78695,-2.87992 -1.23148,-7.15851 -2.61568,-9.87406c-1.81403,-3.5588 -4.73735,-6.78913 -6.42141,-10.44327c-2.41964,-5.25023 -2.42422,-10.65275 -6.70337,-14.89179l-1.0042,-2.17798c0,0 -0.7859,-2.3577 1.56018,-3.15522zM328.07805,73.15413c0.62397,0.72497 1.17467,1.53129 1.72805,2.70045c1.65009,3.48626 1.98901,7.71814 3.60236,11.20734c1.67256,3.61726 4.63494,6.81127 6.38698,10.37037c1.53639,3.12101 2.08672,7.62873 2.988,10.93958c2.09484,11.48839 3.89311,22.93284 5.33964,34.52036c0.58327,4.67234 1.91614,9.37634 1.92666,14.10625c0.01025,4.61113 -1.09189,8.52738 -2.06627,12.93371c-1.9928,9.01184 -4.61967,16.23453 -10.71741,23.32546c-3.36118,3.90065 -6.53076,8.19848 -10.754,11.23975c-3.44599,2.48155 -7.56986,4.25605 -11.69098,5.24608c-2.52557,0.60673 -8.38472,1.71112 -10.93662,1.30817c-6.82916,-1.07835 -10.92573,-8.2777 -13.4509,-13.84544c-5.00943,-11.04531 -7.00571,-23.38567 -7.02386,-35.44669c0,-10.47728 0.29524,-20.91963 0.80536,-31.3758c0.20881,-4.28016 1.04444,-8.62907 0.7988,-12.92878c-0.83449,-14.60714 -4.64326,-29.40188 -3.18699,-44.05434c0.4479,-3.03801 1.18803,-6.94959 2.67345,-9.67343c3.26331,-5.98399 10.19451,-9.02306 16.29516,-10.83015c1.78167,-0.52775 4.54863,-1.69938 6.29525,-1.7081c0.2857,-0.00143 7.7653,1.62286 8.1391,1.76903c6.79914,2.65871 11.31801,11.07149 13.47808,17.55173c0,0 0.54572,1.63716 -0.62985,2.64446z"/></g></g></svg>