<svg version="1.1" xmlns="http://www.w3.org/2000/svg" xmlns:xlink="http://www.w3.org/1999/xlink" width="106.73586" height="108.3864" viewBox="0,0,106.73586,108.3864"><g transform="translate(-182.80906,-80.64565)"><g data-paper-data="{&quot;isPaintingLayer&quot;:true}" fill="#9966ff" fill-rule="nonzero" stroke="none" stroke-width="0.5" stroke-linecap="butt" stroke-linejoin="miter" stroke-miterlimit="10" stroke-dasharray="" stroke-dashoffset="0" style="mix-blend-mode: normal"><path d="M185.30906,181.97015c-2.5,0 -2.5,-2.5 -2.5,-2.5l0.01027,-2.59211c0.58481,-6.43058 1.59599,-12.64731 2.64493,-19.01296c1.67492,-10.15044 4.5618,-20.168 5.80893,-30.37681c0.55651,-4.5555 -0.78063,-9.58757 -1.02626,-14.14654c-0.5456,-10.12631 0.51797,-20.32045 1.35794,-30.40004c0,0 0.20761,-2.49136 2.69898,-2.28375c2.49136,0.20761 2.28375,2.69898 2.28375,2.69898c-0.8219,9.86282 -1.88858,19.84961 -1.3458,29.75824c0.26583,4.85297 1.55571,10.0601 1.00154,14.9187c-1.17424,10.29503 -4.16065,20.42074 -5.84571,30.64479c-1.03122,6.24835 -2.02524,12.34022 -2.59883,18.65207l0.01027,2.13944c0,0 0,2.5 -2.5,2.5z"/><path d="M236.57108,183.51018c0.35355,-2.47487 2.82843,-2.12132 2.82843,-2.12132l2.55455,0.37237c1.96095,0.4396 3.82953,1.23357 5.78454,1.69885c4.32317,1.02889 8.73081,0.51299 13.06022,-0.00661c6.36114,-2.14429 12.54215,-3.2372 17.90497,-7.61526c1.30095,-1.06206 3.03557,-1.89387 3.67458,-3.44697c0.83022,-2.01784 0.38883,-4.34851 0.47078,-6.52893c0.33317,-8.86412 -1.54952,-20.56686 -9.70627,-25.5461c-2.22925,-1.59292 -4.34464,-3.68373 -6.81454,-4.90608c-1.93893,-0.95957 -4.09624,-1.42041 -6.04994,-2.34955c-2.8657,-1.36288 -5.13201,-3.61705 -8.15848,-4.61506c-3.88896,-1.28242 -7.35878,-0.35572 -11.24586,-0.55407c-1.55363,-0.07928 -3.52973,0.39123 -4.60976,-0.72841c-0.86783,-0.89966 -0.73226,-5.85597 -0.73223,-7.51322c0.00012,-7.11728 0.00648,-14.1923 0,-21.29198c0.00327,-3.58969 -0.57302,-10.10256 2.91961,-12.63026c1.15684,-0.83724 2.85774,-0.05919 4.28406,0.01053c3.83126,0.18729 7.72416,1.32404 11.51879,1.33257c4.44178,0.00999 8.10834,-2.91803 12.26451,-3.98782c6.43513,-1.65638 13.62813,0.11066 20.20829,-0.72443c0,0 2.48069,-0.31009 2.79078,2.17061c0.31009,2.48069 -2.17061,2.79078 -2.17061,2.79078c-6.34524,0.78235 -13.51624,-1.0049 -19.67192,0.62744c-4.6613,1.23606 -8.39735,4.11522 -13.42105,4.12341c-3.06594,0.005 -6.20808,-0.83621 -9.28048,-1.01873c-0.95835,-0.05693 -1.92835,-0.11468 -2.85849,-0.35244c-0.42168,-0.10779 -1.25616,0.55727 -1.32054,1.16882c-0.22667,2.15305 -0.26507,4.32458 -0.26296,6.48952c-0.00596,6.10471 0.05622,12.15091 -0.0001,18.27218c-0.01755,1.90777 0.3455,3.84722 0.0001,5.72354c-0.08867,0.4817 -0.28146,0.6419 0.06549,0.54554c0.98294,-0.273 2.02301,-0.28383 3.04171,-0.33797c3.28207,-0.17441 6.90989,0.08185 10.04611,1.13577c3.32769,1.11826 5.62167,3.37776 8.73991,4.84804c1.97914,0.93319 4.16304,1.39698 6.1169,2.382c2.71195,1.3672 4.92753,3.48185 7.38011,5.23296c9.63479,6.13792 12.3175,19.10011 11.92368,29.88063c-0.01848,0.50596 -0.39397,7.2281 -0.88109,8.34166c-0.76677,1.75282 -3.75247,4.23942 -5.11259,5.3402c-2.76999,2.24183 -7.09262,4.92962 -10.49868,6.14462c-2.98675,1.06542 -6.39657,1.45561 -9.44875,2.46258c-5.10416,0.65926 -10.22949,1.18146 -15.32908,-0.00661c-1.9312,-0.44992 -3.76977,-1.2547 -5.70637,-1.68082l-2.177,-0.30356c0,0 -2.47487,-0.35355 -2.12132,-2.82843z"/></g></g></svg>