<svg version="1.1" xmlns="http://www.w3.org/2000/svg" xmlns:xlink="http://www.w3.org/1999/xlink" width="393.22288" height="69.76543" viewBox="0,0,393.22288,69.76543"><defs><linearGradient x1="48.9895" y1="179.74584" x2="125.08914" y2="179.74584" gradientUnits="userSpaceOnUse" id="color-1"><stop offset="0" stop-color="#7a71ae"/><stop offset="1" stop-color="#70a1e3"/></linearGradient></defs><g transform="translate(-43.38862,-144.71728)"><g data-paper-data="{&quot;isPaintingLayer&quot;:true}" fill-rule="nonzero" stroke-linejoin="miter" stroke-miterlimit="10" stroke-dasharray="" stroke-dashoffset="0" style="mix-blend-mode: normal"><path d="M43.38862,214.05981v-69.34253h393.22288v69.34253z" fill="#262e26" stroke="none" stroke-width="0" stroke-linecap="butt"/><path d="M351.75583,207.96821v-56.44475h76.09962v56.44475z" fill="#f56551" stroke="none" stroke-width="0" stroke-linecap="butt"/><path d="M427.92973,175.38532c0,0 -10.25824,0.17216 -13.92109,0.17216c-7.4999,0 -16.10624,-2.46854 -16.10624,-6.55736c0,-1.29491 0.06434,-3.77197 1.24458,-5.61948c2.01525,-3.1546 6.07405,-5.68928 9.85952,-6.17238c0.17815,-0.02274 4.72631,-0.6676 4.78341,-0.77915c0.7237,-1.41413 3.76625,-1.28641 5.02768,-1.27394c3.73514,0.03693 9.02902,5.7237 9.02902,5.7237z" fill="#f52226" stroke="none" stroke-width="0" stroke-linecap="butt"/><g fill="none" stroke="#ff9086" stroke-width="5" stroke-linecap="round"><path d="M422.16717,206.18568l-13.75,-7.5"/><path d="M406.31198,206.02132l3.25,-12.75l-8.5,-24.5l5.25,-17"/></g><path d="M53.28265,153.20499h20.45332c0,0 1.28105,7.30194 -7.5774,15.78886c-3.01439,2.88797 -12.68296,4.66445 -12.68296,4.66445z" fill="none" stroke="#947bff" stroke-width="2.5" stroke-linecap="butt"/><path d="M48.9895,207.96821v-56.44475h76.09962v56.44475z" fill="url(#color-1)" stroke="none" stroke-width="0" stroke-linecap="butt"/><path d="M124.25581,206.46821v-56.44475h76.09962v56.44475z" fill="#75fca9" stroke="none" stroke-width="0" stroke-linecap="butt"/><path d="M200.4225,207.96821v-56.44475h76.09962v56.44475z" fill="#b2fb5b" stroke="none" stroke-width="0" stroke-linecap="butt"/><path d="M276.2224,207.96821v-56.44475h76.09962v56.44475z" fill="#fee652" stroke="none" stroke-width="0" stroke-linecap="butt"/><g stroke="none" stroke-width="0" stroke-linecap="butt"><g><path d="M423.31384,179.08201c0,1.30453 -3.78818,2.36206 -8.46112,2.36206c-4.67294,0 -8.46111,-1.05753 -8.46111,-2.36206c0,-0.69851 0.3105,-2.24283 2.03696,-2.67527c1.41591,-0.35466 11.34659,-0.25653 12.65891,-0.02295c2.35599,0.41934 2.22636,1.86039 2.22636,2.69823z" fill="#f52226"/><path d="M420.21144,179.01149c0,0.60359 -2.54123,1.09289 -5.67599,1.09289c-3.13477,0 -5.67599,-0.48931 -5.67599,-1.09289c0,-0.60359 2.54123,-1.09289 5.676,-1.09289c3.13477,0 5.676,0.4893 5.676,1.09289z" fill="#f56551"/></g><g fill="#f52226"><path d="M368.99822,161.86807c0,3.94296 -2.46209,7.13936 -5.49924,7.13936c-3.03715,0 -5.49923,-3.1964 -5.49923,-7.13936c0,-3.94296 5.49923,-7.91119 5.49923,-7.91119c0,0 5.49924,3.96823 5.49924,7.91119z"/><path d="M359.15754,161.28921c0,0 -2.76971,-0.52258 -3.28025,-1.54364c-0.66845,-1.33689 -0.38591,-5.78868 -0.38591,-5.78868h3.66616c0,0 0,2.93993 0,3.85912c0,1.353 2.12251,3.47321 2.12251,3.47321z"/><path d="M365.07982,161.28919c0,0 2.12252,-2.1202 2.12252,-3.47321c0,-0.91918 0,-3.85912 0,-3.85912h3.66616c0,0 0.28253,4.45179 -0.38591,5.78868c-0.51054,1.02106 -3.28024,1.54364 -3.28024,1.54364z"/></g><path d="M394.94293,196.98373l3.38444,-3.80749c0,0 0.42791,-1.45473 -0.42944,-1.89881c-0.26722,-0.13841 -1.47886,0.5633 -1.85609,0.28574c-0.48751,-0.3587 0.59861,-3.92451 1.04886,-3.89079c0.60643,0.04541 4.42039,-0.76196 4.42039,-0.76196c0,0 0.34993,-3.13754 1.3876,-2.96413c4.17948,0.69846 14.03901,-1.29031 18.76558,0.67017c1.30553,0.54151 4.33361,1.55043 5.92381,3.79039c1.59019,2.23996 0.3532,8.57689 0.3532,8.57689z" fill="#f52226"/><path d="M357.57648,193.95762c0,0 1.66739,-5.1778 1.16181,-7.09535c-0.27306,-1.03565 -2.30793,-1.08898 -3.44153,-2.2794c-1.1336,-1.19043 -0.63367,-1.25298 -0.75218,-2.12452c-0.11851,-0.87153 -0.11887,-1.59822 0.13741,-2.39646c0.31072,-0.96783 1.59527,-3.00036 1.59527,-3.00036l2.9336,0.28871c0,0 0.08171,1.53987 0.55832,2.4682c0.08227,0.16024 1.98153,0.17277 3.22862,-0.48102c1.52305,-0.79846 3.25436,-2.94119 3.25436,-2.94119l4.04793,-0.19962c0,0 1.51781,-4.08911 4.64484,-4.86403c2.19315,-0.54349 5.00117,0.15498 6.75489,2.36232c1.75371,2.20735 2.36649,9.11843 2.36649,9.11843l2.18148,2.31339l-0.07379,7.69232l-4.11858,3.17834l-2.47025,-6.69879l-1.51055,-0.5999l-0.34756,-3.76497c0,0 -0.71084,-3.82051 -1.9327,-4.76733c-1.20227,-0.93164 -5.34066,-0.86877 -5.34066,-0.86877c0,0 -1.90669,4.82817 -2.61152,5.52927c-1.17912,1.17289 -4.05398,1.43896 -4.05398,1.43896l-0.42305,7.69177z" fill="#f52226"/><path d="M427.92973,175.38532c0,0 -10.25824,0.17216 -13.92109,0.17216c-7.4999,0 -16.10624,-2.46854 -16.10624,-6.55736c0,-1.29491 0.06434,-3.77197 1.24458,-5.61948c2.01525,-3.1546 6.07405,-5.68928 9.85952,-6.17238c0.17815,-0.02274 4.72631,-0.6676 4.78341,-0.77915c0.7237,-1.41413 3.76625,-1.28641 5.02768,-1.27394c3.73514,0.03693 9.02902,5.7237 9.02902,5.7237z" fill="#f52226"/></g><path d="M87.32347,196.65135l0.25,-11.75l8.75,11.75z" fill="#000012" stroke="none" stroke-width="0" stroke-linecap="butt"/><path d="M157.57342,196.65135l5,-11.75l4,11.75z" fill="#001100" stroke="none" stroke-width="0" stroke-linecap="butt"/><g fill="none" stroke="#ff9086" stroke-width="5" stroke-linecap="round"><path d="M422.16717,206.18568l-13.75,-7.5"/><path d="M406.31198,206.02132l3.25,-12.75l-8.5,-24.5l5.25,-17"/></g><path d="M233.82348,196.65135l5,-11.75l4,11.75z" fill="#000012" stroke="none" stroke-width="0" stroke-linecap="butt"/><text transform="translate(80.95006,179.86886) scale(0.72042,0.72042)" font-size="40" xml:space="preserve" fill="#000017" fill-rule="nonzero" stroke="none" stroke-width="1" stroke-linecap="butt" stroke-linejoin="miter" stroke-miterlimit="10" stroke-dasharray="" stroke-dashoffset="0" font-family="Sans Serif" font-weight="normal" text-anchor="start" style="mix-blend-mode: normal"><tspan x="0" dy="0">1</tspan></text><text transform="translate(230.61824,181.83301) scale(0.72042,0.72041)" font-size="40" xml:space="preserve" fill="#000f00" fill-rule="nonzero" stroke="none" stroke-width="1" stroke-linecap="butt" stroke-linejoin="miter" stroke-miterlimit="10" stroke-dasharray="" stroke-dashoffset="0" font-family="&quot;impact&quot;, Sans Serif" font-weight="normal" text-anchor="start" style="mix-blend-mode: normal"><tspan x="0" dy="0">3</tspan></text><text transform="translate(382.44685,181.7348) scale(0.72042,0.72041)" font-size="40" xml:space="preserve" fill="#270000" fill-rule="nonzero" stroke="none" stroke-width="1" stroke-linecap="butt" stroke-linejoin="miter" stroke-miterlimit="10" stroke-dasharray="" stroke-dashoffset="0" font-family="&quot;impact&quot;, Sans Serif" font-weight="normal" text-anchor="start" style="mix-blend-mode: normal"><tspan x="0" dy="0">5</tspan></text><path d="M274.60123,151.93728h4.06452l-2.58441,34.7513z" fill="#001100" stroke="none" stroke-width="0" stroke-linecap="butt"/><path d="M53.76509,176.92148c4.31594,0 5.30629,3.49876 5.30629,7.81471c0,4.31594 -1.1833,7.81471 -5.49924,7.81471c-0.00063,0 0.18686,-15.62941 0.19295,-15.62941z" fill="none" stroke="#947bff" stroke-width="2.5" stroke-linecap="butt"/><g fill="#ffa44d" stroke="none" stroke-width="0" stroke-linecap="butt"><path d="M283.0758,196.55168c0,0 0.98425,-9.14353 2.82107,-12.13686c1.60502,-2.61559 7.59854,-4.84324 7.59854,-4.84324c0,0 1.83474,-11.96326 4.32601,-11.96326c1.09073,0 4.77029,-1.34858 8.49031,-1.34652c3.56957,0.00198 7.20698,1.35461 7.20698,1.35461c0,0 -0.51803,-6.07041 6.65487,-5.55603c2.20001,0.15777 11.2604,4.53061 13.21124,9.52927c0.13818,0.35406 2.28906,12.72293 2.28906,12.72293c0,0 5.0108,-1.5599 6.17072,1.18694c1.21703,2.88206 -0.00189,6.1774 -0.00189,6.1774c0,0 3.52302,1.27058 4.95017,0.89995c1.45818,-0.37869 3.70783,-3.14841 3.70783,-3.14841c0,0 0.93064,2.84395 0.75136,3.99136c-0.18163,1.16248 -1.8342,2.9389 -1.8342,2.9389l-20.03269,0.19296c0,0 -5.59568,-12.03434 -15.35547,-12.34916c-10.56053,-0.34066 -15.65116,11.56919 -15.65116,11.56919z"/><path d="M303.03127,197.00774v-5.20981c0,0 6.01186,-5.01684 9.45484,-5.01684c2.15253,0 5.76467,1.73922 8.73961,3.04008c1.77758,0.77729 4.77513,3.46661 5.99241,5.2747c0.66794,0.99212 0.12557,1.71892 0.12557,1.71892z"/></g><path d="M60.80798,194.38397c0,-3.78311 3.06682,-6.84993 6.84993,-6.84993c3.78311,0 6.84992,3.06682 6.84992,6.84993c0,3.78311 -3.06682,6.84993 -6.84992,6.84993c-3.78311,0 -6.84993,-3.06682 -6.84993,-6.84993z" fill="none" stroke="#947bff" stroke-width="2.5" stroke-linecap="butt"/><path d="M52.96452,196.77114c0,0 3.39466,0.62373 4.45302,1.6377c3.11022,2.97978 2.66044,5.54351 2.66044,5.54351h-7.18121z" fill="none" stroke="#947bff" stroke-width="1.25" stroke-linecap="butt"/><text transform="translate(304.37182,181.73481) scale(0.72042,0.72041)" font-size="40" xml:space="preserve" fill="#160000" fill-rule="nonzero" stroke="none" stroke-width="1" stroke-linecap="butt" stroke-linejoin="miter" stroke-miterlimit="10" stroke-dasharray="" stroke-dashoffset="0" font-family="&quot;impact&quot;, Sans Serif" font-weight="normal" text-anchor="start" style="mix-blend-mode: normal"><tspan x="0" dy="0">4</tspan></text><path d="M308.82346,196.65135l5,-11.75l4,11.75z" fill="#160000" stroke="none" stroke-width="0" stroke-linecap="butt"/><path d="M381.07369,196.65135l8.79462,-11.75l0.20538,11.75z" fill="#270000" stroke="none" stroke-width="0" stroke-linecap="butt"/><path d="M53.28273,153.20499h20.45332c0,0 1.28105,7.30194 -7.5774,15.78886c-3.01439,2.88797 -12.68296,4.66445 -12.68296,4.66445z" fill="none" stroke="#947bff" stroke-width="2.5" stroke-linecap="butt"/><g fill="#6afe8d" stroke="none" stroke-width="0" stroke-linecap="butt"><path d="M125.73877,151.17815l11.47239,-0.08612l-11.30212,15.29328z"/><path d="M171.70384,162.73196l9.67634,-9.42364l11.44298,11.74984l-9.67634,9.42364z"/><path d="M132.57449,165.3137l8.98666,-10.08347l12.24422,10.91236l-8.98665,10.08347z"/><path d="M159.54761,178.94024l9.67634,-9.42364l11.44298,11.74985l-9.67634,9.42364z"/><path d="M190.22766,177.20364l10.25521,-9.42364l0.03003,21.17349z"/><path d="M134.17119,195.23099l7.41978,-11.28643l13.70494,9.00973l-7.41978,11.28643z"/></g><path d="M123.01858,151.93728h4.06452l-2.83441,34.58464z" fill="#000017" stroke="none" stroke-width="0" stroke-linecap="butt"/><path d="M50.1102,206.77382v-57.04802h380.19605v57.04802z" fill="none" stroke="#262e26" stroke-width="5" stroke-linecap="butt"/><path d="M198.09274,151.93728h4.06452l-1.83441,34.66797z" fill="#001100" stroke="none" stroke-width="0" stroke-linecap="butt"/><text transform="translate(155.0967,182.32405) scale(0.72042,0.72041)" font-size="40" xml:space="preserve" fill="#001100" fill-rule="nonzero" stroke="none" stroke-width="1" stroke-linecap="butt" stroke-linejoin="miter" stroke-miterlimit="10" stroke-dasharray="" stroke-dashoffset="0" font-family="&quot;impact&quot;, Sans Serif" font-weight="normal" text-anchor="start" style="mix-blend-mode: normal"><tspan x="0" dy="0">2</tspan></text><path d="M226.31615,214.31909l12.54212,-20.84036l13.31395,20.84036z" fill="#d6d8cf" stroke="none" stroke-width="0" stroke-linecap="butt"/><path d="M226.31615,214.28271l12.54212,-16.55898l13.31395,16.75898z" fill="#fefcf8" stroke="none" stroke-width="0" stroke-linecap="butt"/><path d="M350.43456,151.27061h4.06452l-2.58441,34.75131z" fill="#160000" stroke="none" stroke-width="0" stroke-linecap="butt"/></g></g></svg>