<svg version="1.1" xmlns="http://www.w3.org/2000/svg" xmlns:xlink="http://www.w3.org/1999/xlink" width="196.79141" height="265.29316" viewBox="0,0,196.79141,265.29316"><defs><linearGradient x1="240.00001" y1="76.43025" x2="240.00001" y2="283.56979" gradientUnits="userSpaceOnUse" id="color-1"><stop offset="0" stop-color="#ff7e05"/><stop offset="1" stop-color="#ff05b8"/></linearGradient><linearGradient x1="240.60831" y1="84.9466" x2="240.60831" y2="283.25595" gradientUnits="userSpaceOnUse" id="color-2"><stop offset="0" stop-color="#793a04"/><stop offset="1" stop-color="#25253e"/></linearGradient><linearGradient x1="239.99152" y1="213.90853" x2="239.99152" y2="283.56979" gradientUnits="userSpaceOnUse" id="color-3"><stop offset="0" stop-color="#ff2f7a"/><stop offset="1" stop-color="#ff7e05"/></linearGradient></defs><g transform="translate(-136.72024,-66.23964)"><g data-paper-data="{&quot;isPaintingLayer&quot;:true}" fill-rule="nonzero" stroke-linecap="butt" stroke-linejoin="miter" stroke-miterlimit="10" stroke-dasharray="" stroke-dashoffset="0" style="mix-blend-mode: normal"><path d="M320.42789,268.79652c-0.42203,0.07523 -0.84324,0.07779 -1.25325,-0.03548c-3.21704,-0.8888 -4.8947,-3.04489 -4.33646,-5.68662c-0.58215,-3.54189 3.99138,-6.0466 6.67938,-5.65783c3.08312,0.44592 6.26075,4.28379 5.16829,7.58281c-0.15568,0.47012 -0.4513,0.85291 -0.82656,1.17883c0.45445,0.30976 0.89087,0.64655 1.30838,1.00027c2.01006,1.70295 4.82333,5.27478 5.72929,7.83199c2.6319,7.42894 -3.61003,12.49794 -10.69637,11.35443c-6.06191,-0.9782 -11.36451,-5.54654 -15.1642,-10.07401c0,0 -1.60046,-1.92056 0.32009,-3.52102c1.92055,-1.60046 3.52101,0.3201 3.52101,0.3201c1.41505,1.71218 3.04839,3.25717 4.80345,4.61868c1.19279,0.92532 3.07909,2.29261 4.45552,2.88166c0.88777,0.37993 1.8256,0.65927 2.77682,0.82564c0.63004,0.1102 1.28583,0.08745 1.91882,-0.00434c1.19802,-0.17372 2.86658,-0.0634 3.45405,-1.12186c1.58825,-2.86162 -2.42614,-7.69793 -4.33994,-9.28737c-0.64073,-0.53214 -2.16492,-1.35172 -3.51833,-2.20587z" fill="#000000" stroke="none" stroke-width="0.5"/><path d="M151.91381,283.98197c-0.04579,0.17537 -0.09774,0.35463 -0.15601,0.53785c-0.9435,2.96635 -5.65768,5.49171 -9.07387,4.98871c-0.65657,0.1753 -1.30586,0.27429 -1.92503,0.05771c-5.19606,-1.81759 -5.12839,-9.31775 -1.22512,-12.32975c1.09023,-0.84128 2.7386,-0.31237 4.11433,-0.37337c2.90936,-0.129 6.01205,0.4358 7.55051,2.29651c0.9726,-0.559 1.8974,-1.30114 2.92407,-1.71893c3.33494,-1.35711 7.59658,-1.43025 10.58989,-3.39096c1.72441,-1.12955 3.14701,-2.66352 4.72067,-3.99509c0,0 1.90846,-1.61485 3.52332,0.29361c1.61486,1.90846 -0.29361,3.52333 -0.29361,3.52333c-0.35875,0.30356 -4.8986,4.16538 -5.27933,4.40491c-3.43384,2.1604 -7.69027,2.29162 -11.41011,3.80903c-0.48075,0.19611 -2.45319,1.16258 -4.05971,1.89644z" fill="#000000" stroke="none" stroke-width="0.5"/><path d="M178.96504,307.42302c-3.06243,-0.39056 -10.36527,0.90549 -12.49432,-2.01329c-2.67147,-3.66238 -1.29454,-6.81726 2.60444,-8.29719c1.17075,-0.44437 2.50756,0.13723 3.739,0.36455c4.32951,0.79924 6.79575,2.36617 9.93413,5.17117c0.7256,0.3277 1.26676,0.99165 1.42481,1.79319c3.17274,4.0967 6.86274,7.92102 11.37018,10.5059c1.24785,0.7156 2.63389,2.2261 3.96972,1.69244c0.36281,-0.14494 0.33019,-0.70823 0.50155,-1.05934c1.3535,-2.77322 1.63866,-4.66165 2.25607,-7.75122c1.44911,-7.25141 2.12529,-14.70729 3.1749,-22.05494c0,0 0.35355,-2.47487 2.82842,-2.12132c2.47487,0.35355 2.12132,2.82842 2.12132,2.82842c-1.24713,8.72953 -1.86107,17.65723 -3.84604,26.23871c-0.57288,2.47667 -2.3976,7.47445 -5.02144,8.49579c-3.04144,1.1839 -5.97566,-0.54743 -8.43028,-1.90757c-5.09368,-2.82248 -9.41541,-7.22943 -12.92978,-11.88048h-1.04733v-0.07598z" fill="#000000" stroke="none" stroke-width="0.5"/><path d="M250.32812,323.95977c4.44269,-2.37271 8.77589,-4.04846 13.83861,-4.91976c1.54186,1.0381 4.30497,1.2834 4.62559,3.1143c0.31397,1.79291 -2.06289,3.01925 -3.3212,4.33445c-3.32653,3.47692 -9.19739,4.22371 -13.75923,4.50823c-1.63283,0.10184 -3.57816,1.07438 -4.90656,0.11947c-1.25429,-0.90164 -0.83975,-2.97521 -1.16645,-4.485c-0.54349,-2.51163 -0.7242,-5.08913 -1.00494,-7.64351c-1.172,-10.66394 -5.71847,-20.71836 -8.52548,-31.00232c0,0 -0.65779,-2.41191 1.75412,-3.0697c2.41191,-0.65779 3.0697,1.75412 3.0697,1.75412c2.49607,9.15998 6.27093,18.03056 8.04156,27.37769c0.46088,2.43298 0.50545,4.92731 0.82874,7.38237c0.11201,0.85064 0.34117,1.68836 0.52553,2.52967z" fill="#000000" stroke="none" stroke-width="0.5"/><g><g><g stroke-width="5"><path d="M171.56502,280.2144l-9.73297,-195.26782c0,0 52.82757,-8.51635 77.68523,-8.51635c25.22132,0 78.65069,7.91755 78.65069,7.91755l-9.73298,195.25831c0,0 -47.0451,3.85895 -70.13264,3.96156c-22.52174,0.1001 -66.73732,-3.35325 -66.73732,-3.35325z" fill="url(#color-1)" stroke="url(#color-2)"/><path d="M171.58587,280.2144l-2.88119,-57.78954c0,0 6.72063,-8.51635 31.45783,-8.51635c14.0313,0 47.2409,7.14781 73.80098,9.15977c20.95043,1.58702 37.46363,-1.86004 37.46363,-1.86004l-3.04633,58.39785c0,0 -47.10306,3.85895 -70.07871,3.96157c-22.4126,0.1001 -66.71621,-3.35325 -66.71621,-3.35325z" fill="url(#color-3)" stroke="#ff6388"/><path d="M171.56502,280.2144l-9.73298,-195.26782c0,0 52.82758,-8.51635 77.68524,-8.51635c25.22132,0 78.65068,8.51635 78.65068,8.51635l-9.73298,194.6595c0,0 -47.0451,3.85895 -70.13264,3.96157c-22.52174,0.1001 -66.73732,-3.35325 -66.73732,-3.35325z" fill="none" stroke="#793a04"/></g><g stroke="none" stroke-width="0"><path d="M208.66033,133.13771v-40.68392h61.16913v40.68392z" fill="#fff433"/><path d="M208.66033,133.13771v-30.22643h61.16913v30.22643z" fill="#ffffff"/><path d="M208.66033,133.13771v-20.1987h61.16913v20.1987z" fill="#9b59d0"/><path d="M208.66033,133.13771v-10.02773h61.16913v10.02773z" fill="#2d2d2d"/></g><g stroke-width="2.5"><path d="M206.70347,106.25059v-40.01095h59.58152v40.01095z" fill="#ffd800" stroke="none"/><path d="M226.91879,86.0819c0,-5.31419 4.308,-9.6222 9.6222,-9.6222c5.31419,0 9.6222,4.308 9.6222,9.6222c0,5.31419 -4.308,9.6222 -9.6222,9.6222c-5.31419,0 -9.6222,-4.308 -9.6222,-9.6222z" fill="none" stroke="#7902aa"/></g><g stroke="none" stroke-width="0"><path d="M260.82694,122.90982l3.03511,-40.63466l67.84119,5.06723l-3.03511,40.63466z" fill="#ff218c"/><path d="M261.83864,109.36493l1.0117,-13.54489l67.84119,5.06723l-1.0117,13.54489z" fill="#ffd900"/><path d="M260.82694,122.90982l1.0117,-13.54489l67.84119,5.06723l-1.0117,13.54489z" fill="#21b1ff"/></g><g stroke="none" stroke-width="0"><path d="M256.17633,110.04577l-0.48633,-15.51531l65.32171,-2.0475l0.48633,15.51531z" fill="#0038a8"/><path d="M320.76854,84.7253l0.24417,7.78978l-65.32171,2.0475l-0.24417,-7.78978z" fill="#9b4f96"/><path d="M255.44683,86.77281l-0.48985,-15.62775l65.32171,-2.0475l0.48985,15.62775z" fill="#d60270"/></g></g><g stroke="none" stroke-width="0"><path d="M150.18453,117.33627l-2.54997,-39.41761l65.77174,-4.25484l2.54997,39.41761z" fill="#5bcefa"/><path d="M149.66278,109.27099l-1.51381,-23.40065l65.77174,-4.25484l1.51381,23.40065z" fill="#f5a9b8"/><path d="M149.18512,101.88729l-0.5291,-8.17887l65.77174,-4.25484l0.5291,8.17887z" fill="#ffffff"/></g><g stroke="none" stroke-width="0"><path d="M158.56093,104.53344l-1.29862,-12.35433l61.24368,-6.43759l1.29862,12.35433z" fill="#f61cb9"/><path d="M159.82054,116.72576l-1.29862,-12.35433l61.24368,-6.43759l1.29862,12.35433z" fill="#07d569"/><path d="M161.09696,128.86889l-1.29862,-12.35433l61.24368,-6.43759l1.29862,12.35433z" fill="#1c92f6"/></g></g><path d="M209.29618,150.93551c0.9848,-2.29787 3.28267,-1.31306 3.28267,-1.31306l1.37674,0.59017c0.10561,0.044 0.21121,0.08801 0.31682,0.13201c0.01417,-0.5402 0.02198,-1.08143 0.02164,-1.62432v-0.6c0,0 0,-2.5 2.5,-2.5c2.5,0 2.5,2.5 2.5,2.5v0.6c-0.00222,3.75439 -0.47129,7.45945 -0.60001,11.20593c-0.0464,1.3505 0.63635,2.88141 -0.03569,4.05375c-0.82955,1.44716 -2.38711,2.59876 -4.00666,2.99808c-2.26581,0.55865 -5.7837,-1.67555 -7.63412,-2.65187c0,0 -2.20588,-1.17647 -1.02942,-3.38235c1.17647,-2.20588 3.38236,-1.02942 3.38236,-1.02942c0.588,0.31759 3.28569,1.89868 4.36588,2.14813c0.14227,0.03286 0.15949,-5.05418 0.16359,-5.11445c0.02964,-0.43568 0.05982,-0.87046 0.08961,-1.30465c-0.65236,-0.27182 -1.30473,-0.54364 -1.95709,-0.81545l-1.42326,-0.60983c0,0 -2.29787,-0.98479 -1.31306,-3.28266z" fill="#000000" stroke="none" stroke-width="0.5"/><path d="M245.49219,148.0933c1.62698,1.89814 -0.27116,3.52512 -0.27116,3.52512l-1.35457,1.1601c-0.4262,0.38358 -0.85238,0.76715 -1.27858,1.15072c0.19,1.9392 0.41691,3.87551 0.50068,5.82547c0.04507,1.04915 -0.84311,2.42523 0.74392,2.89144c1.91433,0.56235 4.95226,0.3802 6.96157,0.37413c0,0 2.5,0 2.5,2.5c0,2.5 -2.5,2.5 -2.5,2.5c-2.16463,-0.00564 -7.1815,0.21154 -9.03844,-0.82587c-1.43808,-0.80341 -2.71784,-2.05253 -3.47126,-3.51742c-0.54822,-1.06591 -0.07888,-2.3972 -0.18481,-3.59114c-0.33031,-3.72278 -0.79573,-7.42428 -0.80549,-11.16557v-2.2c0,0 0,-2.5 2.5,-2.5c2.5,0 2.5,2.5 2.5,2.5v0.87431c0.61257,-0.36863 1.98121,-0.92103 3.19814,0.49872z" fill="#000000" stroke="none" stroke-width="0.5"/><path d="M200.39753,170.58033c-0.03416,-0.74357 0.20786,-1.72275 1.50357,-2.28962c2.29039,-1.00205 3.29244,1.28835 3.29244,1.28835c0.36452,0.85026 1.2713,3.62768 2.38809,4.38609c1.14352,0.77656 5.66574,1.44375 6.12867,2.32555c0.89211,1.69932 0.82896,4.05245 -0.05207,5.75754c-1.49918,2.9014 -5.14264,3.40822 -7.84801,3.9809c-4.66148,0.98676 -10.52371,1.96983 -12.32955,-3.83032c-0.35324,-1.13457 -0.21778,-2.38761 -0.05336,-3.56447c0.17302,-1.23837 0.48055,-2.489 1.05434,-3.59997c1.49004,-2.88499 2.47425,-2.91478 5.10346,-4.28934z" fill="#000000" stroke="none" stroke-width="0.5"/><path d="M198.63495,150.05317c-2.42536,-0.60634 -1.81902,-3.0317 -1.81902,-3.0317l0.18938,-0.75581c0.77904,-3.36691 1.47744,-7.25789 4.07936,-9.8167c4.94075,-4.85889 12.02425,-1.20721 16.22903,2.52061c0,0 1.85824,1.67241 0.18582,3.53065c-1.67241,1.85824 -3.53065,0.18582 -3.53065,0.18582c-1.86078,-1.70731 -6.95372,-5.4981 -9.37097,-2.67939c-1.72946,2.01669 -2.14995,4.9033 -2.72064,7.3833l-0.21062,0.84419c0,0 -0.60634,2.42536 -3.0317,1.81902z" fill="#000000" stroke="none" stroke-width="0.5"/></g></g></svg>