<svg version="1.1" xmlns="http://www.w3.org/2000/svg" xmlns:xlink="http://www.w3.org/1999/xlink" width="115.84556" height="80.31165" viewBox="0,0,115.84556,80.31165"><g transform="translate(-168.32657,-90.39738)"><g data-paper-data="{&quot;isPaintingLayer&quot;:true}" fill="#9966ff" fill-rule="nonzero" stroke="none" stroke-width="0.5" stroke-linecap="butt" stroke-linejoin="miter" stroke-miterlimit="10" stroke-dasharray="" stroke-dashoffset="0" style="mix-blend-mode: normal"><path d="M175.12281,169.74148c-2.23607,1.11803 -3.3541,-1.11803 -3.3541,-1.11803l-0.96755,-2.52528c0,-7.52366 -1.13557,-14.83736 -1.40563,-22.35149c-0.51602,-14.35774 -1.65434,-28.93201 -0.6997,-43.25171c0,0 0.1663,-2.49446 2.66076,-2.32817c2.49446,0.1663 2.32817,2.66076 2.32817,2.66076c-1.44959,21.7439 2.1164,43.5533 2.1164,65.2706l0.43969,0.28921c0,0 1.11803,2.23607 -1.11803,3.3541z"/><path d="M265.57899,110.78925c-5.32839,-1.832 -11.14548,-3.30263 -15.63751,-6.69263c-2.50092,-1.88736 -4.05232,-4.33506 -6.03002,-6.6934c-0.65027,-0.77542 -1.55775,-2.20813 -2.89326,-1.98753c-2.35618,0.38919 -3.1337,1.87747 -4.73412,3.49524c-5.45149,5.5106 -7.74196,11.00904 -9.85053,18.36954c-1.11386,6.58871 -3.38795,14.08511 -2.14932,20.80204c0.17798,0.96516 1.06904,1.67587 1.35158,2.61576c0.85733,2.85203 0.56878,6.59271 2.95679,8.90579c3.24936,3.1474 7.6466,3.96355 11.07983,6.86563c5.93388,5.01584 12.00391,9.27806 20.17429,9.23935c3.27419,0 4.47268,0.14012 7.41933,-1.18785c2.10169,-0.94717 4.08703,-2.14319 6.04242,-3.36414c1.12047,-0.69963 3.31513,-1.20534 4.06419,-2.62323c0.79039,-1.49613 0.77198,-3.29496 1.14365,-4.9457c2.54152,-11.28784 -5.63817,-18.36878 -9.69791,-27.99229c-1.32163,-3.13289 -1.61328,-7.05806 -2.27603,-10.37181c-0.29726,-1.48786 -0.6243,-2.96264 -0.96338,-4.43476zM270.55885,110.16052c0.31465,1.35253 0.61169,2.71064 0.88643,4.08291c0.58,2.9 0.75227,6.59993 1.9457,9.32962c2.75126,6.29286 8.14472,11.98179 9.97196,18.63193c1.17653,4.28192 0.96708,8.22004 0.03156,12.48007c-0.83181,3.78777 -1.19091,6.69935 -4.49543,9.21948c-2.7992,2.13476 -6.38384,3.77145 -9.58473,5.17785c-3.56263,1.56534 -5.61622,1.62664 -9.46761,1.62664c-7.81662,-0.03107 -15.2872,-3.33115 -21.2864,-8.30649c-2.12541,-1.76267 -2.09246,-2.62748 -4.5652,-3.97568c-4.12603,-2.24962 -8.49778,-3.46553 -10.83846,-8.05177c-1.27937,-2.50676 -1.46852,-5.4345 -2.27577,-8.13061c-0.32025,-1.06961 -1.26543,-1.9143 -1.46291,-3.01322c-1.3636,-7.58815 0.87116,-15.62665 2.1397,-23.05803c2.34035,-8.21216 5.03898,-14.70066 11.19086,-20.79785c2.57151,-2.54865 3.88939,-4.59019 7.93109,-4.94823c6.18053,-0.54752 8.13385,6.59853 12.18539,9.61325c3.03314,2.25693 6.78163,3.5795 10.5069,4.78439c-0.17413,-0.28718 -1.19849,-2.15216 0.71702,-3.42917c2.08013,-1.38675 3.46688,0.69338 3.46688,0.69338l1.61341,2.48623c0.22412,0.85625 0.44378,1.70999 0.6578,2.56338c0.61597,0.45498 1.36326,1.35251 0.80398,2.84392c-0.02307,0.06152 -0.04715,0.12082 -0.07217,0.17797z"/></g></g></svg>