<svg version="1.1" xmlns="http://www.w3.org/2000/svg" xmlns:xlink="http://www.w3.org/1999/xlink" width="111.46976" height="69.27346" viewBox="0,0,111.46976,69.27346"><g transform="translate(-146.52002,-68.96901)"><g data-paper-data="{&quot;isPaintingLayer&quot;:true}" fill="#9966ff" fill-rule="nonzero" stroke="none" stroke-width="0.5" stroke-linecap="butt" stroke-linejoin="miter" stroke-miterlimit="10" stroke-dasharray="" stroke-dashoffset="0" style="mix-blend-mode: normal"><path d="M185.27838,127.65447c-1.11803,2.23607 -3.3541,1.11803 -3.3541,1.11803l-0.47306,-0.26462c-5.36977,-1.78992 -10.8582,-3.76136 -16.4442,-4.71103c-4.62436,-0.78618 -10.31233,-0.59316 -14.51521,-2.94499c-0.0602,-0.03369 -0.11973,-0.06831 -0.17863,-0.10383l-0.00962,0.01923l-2.35313,-1.17657c-0.84561,-0.40086 -1.43041,-1.26228 -1.43041,-2.26029c0,-0.99801 0.58479,-1.85943 1.43041,-2.26029l2.35313,-1.17657l0.00733,0.01467l0.04373,-0.03948c3.45655,-1.52768 6.9041,-2.43599 10.3445,-3.97215c5.69799,-3.25956 10.60408,-7.94732 14.81753,-12.97725c0.92084,-1.09928 3.13253,-3.47997 3.47521,-5.30589c0.81326,-4.33335 -2.91854,-8.14525 -5.72256,-10.94045c-1.12812,-1.12457 -4.69123,-4.78908 -5.92757,-5.63092c-2.84445,-1.9368 -7.06846,-0.42313 -10.01308,-0.05952c-2.12082,0.26188 -4.29508,0.40017 -6.31728,1.09097c0,0 -2.37171,0.79057 -3.16228,-1.58114c-0.79057,-2.37171 1.58114,-3.16228 1.58114,-3.16228c4.58603,-1.49861 11.61861,-2.98338 16.4323,-2.09204c3.97747,0.7365 5.13733,2.312 8.08777,5.04639c5.08173,4.70961 11.219,10.71464 9.94035,18.32985c-0.47419,2.82412 -2.83975,5.46491 -4.53004,7.5025c-4.63422,5.58642 -10.10413,10.64471 -16.40293,14.24058c-2.25135,0.9967 -4.49725,1.73535 -6.74036,2.55029c1.75476,0.48143 3.4956,1.07601 5.28885,1.33336c7.42958,1.06622 14.42038,3.15481 21.52617,5.52341l1.12799,0.5359c0,0 2.23607,1.11803 1.11803,3.3541z"/><path d="M257.98978,135.74247c0,2.5 -2.5,2.5 -2.5,2.5l-2.5255,-0.05557c-4.08658,-0.8785 -8.08975,-1.04487 -12.21294,-1.56722c-5.22775,-0.66228 -10.44624,-2.16919 -15.51809,-3.55391c-1.27848,-0.34905 -8.2939,-1.97842 -9.31682,-3.36221c-4.0118,-5.42708 3.6808,-10.70814 7.19142,-13.5248c4.46173,-3.56938 8.53293,-7.50697 12.88549,-11.19733c1.42701,-1.2099 4.59018,-3.36887 5.71333,-5.29352c1.47506,-2.52768 0.78713,-3.99135 0.48947,-6.91486c-0.43919,-4.31345 -2.1939,-6.40246 -5.28458,-9.30013c-1.14126,-1.06999 -2.08731,-2.34806 -3.29693,-3.34011c-3.13255,-2.5691 -7.26987,-2.3319 -10.85633,-1.57797c0,0 -2.45145,0.49029 -2.94174,-1.96116c-0.49029,-2.45145 1.96116,-2.94174 1.96116,-2.94174c5.00317,-0.95924 10.43688,-0.94924 14.76046,2.42466c1.39462,1.08829 2.48356,2.5211 3.77414,3.73096c3.93732,3.69107 6.31358,6.9366 6.85694,12.44768c0.42738,4.33483 1.0373,5.98476 -1.11158,9.89616c-1.49543,2.72199 -4.58121,4.73348 -6.82939,6.64253c-4.38561,3.72405 -8.4979,7.68993 -12.99696,11.28918c-1.60112,1.27676 -3.07757,2.70627 -4.53058,4.14934c-0.71076,0.7059 -2.79377,1.91344 -1.88692,2.33898c2.09395,0.98259 4.50331,1.06256 6.73501,1.67053c4.85425,1.32242 9.85633,2.79408 14.8605,3.42121c4.2483,0.5324 8.39065,0.73361 12.60332,1.63488l1.47713,-0.05557c0,0 2.5,0 2.5,2.5z"/></g></g></svg>