<svg version="1.1" xmlns="http://www.w3.org/2000/svg" xmlns:xlink="http://www.w3.org/1999/xlink" width="124.37423" height="108.74045" viewBox="0,0,124.37423,108.74045"><g transform="translate(-174.08468,-62.79984)"><g data-paper-data="{&quot;isPaintingLayer&quot;:true}" fill="#9966ff" fill-rule="nonzero" stroke="none" stroke-width="0.5" stroke-linecap="butt" stroke-linejoin="miter" stroke-miterlimit="10" stroke-dasharray="" stroke-dashoffset="0" style="mix-blend-mode: normal"><path d="M225.4688,161.65846c-1.5,2 -3.5,0.5 -3.5,0.5l-0.97886,-0.85996c-1.95164,-0.73229 -3.8914,-1.49972 -5.80113,-2.33525c-6.68929,-0.8966 -13.39234,-2.621 -20.12319,-3.11584c-1.7502,-0.12867 -3.56985,0.42186 -5.26466,-0.03353c-1.85995,-0.49976 -4.36575,-0.95951 -5.08305,-2.74688c-0.71028,-1.76987 0.94773,-3.72489 1.80143,-5.43022c1.63692,-3.26987 4.60543,-4.90044 6.46231,-7.99853c2.61903,-4.36967 4.43884,-9.30121 7.82135,-13.17993c3.04036,-3.48638 7.60461,-5.65612 9.57543,-10.1461c1.21361,-2.76488 1.14375,-7.36924 1.38448,-10.21763c-0.25608,-4.05392 -0.44956,-7.73884 -1.50631,-11.69739c-1.27532,-4.77729 -4.30141,-9.30117 -6.49897,-13.70117c-2.23005,-4.46507 -3.99886,-8.8807 -8.62472,-11.16235c-0.03882,-0.01915 -3.3138,-1.76025 -3.84046,-1.74221c-1.22837,0.04207 -2.37937,0.65746 -3.60093,0.79319c-1.19392,0.13266 -2.4085,0.12706 -3.60379,0.00734c-0.72441,-0.07256 -1.41509,-0.80907 -2.10589,-0.57923c-0.57913,0.19268 -0.4501,1.1917 -0.91689,1.58492c-0.94213,0.79367 -2.12435,1.2479 -3.18652,1.87185c0,0 -2.17061,1.24035 -3.41096,-0.93026c-1.24035,-2.17061 0.93026,-3.41096 0.93026,-3.41096c0.80572,-0.44342 1.69797,-0.75704 2.41715,-1.33025c0.86718,-0.69117 1.23328,-2.06675 2.28521,-2.4177c2.24578,-0.74924 4.74573,0.49007 7.09872,0.22863c1.48347,-0.16483 2.91212,-0.8428 4.40431,-0.80786c1.61586,0.03784 4.337,1.53817 5.76584,2.26041c5.69976,2.88108 8.08626,7.85416 10.86089,13.39862c2.34874,4.69342 5.46927,9.47513 6.83692,14.57247c1.19028,4.43624 1.43181,8.57438 1.69579,13.11887c-0.30027,3.64979 -0.30367,8.72836 -1.81761,12.19705c-2.21783,5.08142 -6.99986,7.55504 -10.43768,11.46807c-3.15393,3.5899 -4.78437,8.38669 -7.25843,12.42755c-1.80704,2.95143 -4.13845,5.49505 -6.47627,8.02126c-0.38625,0.41737 -1.32931,0.4098 -1.40067,0.97398c-0.05712,0.45158 0.86686,-0.31689 1.32115,-0.3453c1.57541,-0.09854 3.16093,-0.14685 4.73534,-0.03353c1.72268,0.12399 3.41868,0.49461 5.1278,0.74345c5.33977,0.77745 10.64226,1.74495 15.98258,2.54491c2.05193,0.86413 4.12188,1.68655 6.20674,2.4679l2.22324,1.54161c0,0 2,1.5 0.5,3.5z"/><path d="M277.54766,69.52193c-0.23327,-0.08852 -0.47232,-0.16215 -0.71846,-0.21742c-4.36337,-0.97988 -8.14523,0.77029 -12.03255,2.5546c-1.84228,0.84562 -4.37487,2.65719 -4.4207,4.92158c-0.08596,4.24733 1.51931,8.82884 2.50484,12.89792c2.41079,9.95374 6.51707,18.51353 14.2447,25.34964c1.34929,1.10393 2.70443,2.19673 4.04295,3.29824c4.39679,-6.27859 7.02968,-14.10825 5.17392,-21.41187c-1.42566,-3.37472 -1.18537,-6.31728 -2.04953,-9.76709c-0.85383,-3.40856 -3.00078,-6.45709 -4.29518,-9.68717c-1.03414,-2.5806 -1.79878,-5.24567 -2.44999,-7.93843zM278.04789,122.21384c-1.37356,-1.12212 -2.77159,-2.23959 -4.1676,-3.38181c-8.50485,-7.59973 -13.18106,-16.96101 -15.85848,-27.97431c-1.09719,-4.51319 -3.02928,-9.91099 -2.61506,-14.63109c0.81439,-9.28006 15.12794,-13.29165 22.56904,-11.77951c0.3599,-0.267 0.85331,-0.45002 1.52973,-0.45002c2.2846,0 2.48144,2.08776 2.4984,2.44752c1.04594,0.64211 1.98758,1.25942 2.42896,1.53484c0,0 2.12,1.325 0.795,3.44499c-0.49194,0.78711 -1.09347,1.09933 -1.65541,1.1808c0.31324,0.99165 0.65814,1.97361 1.04458,2.94169c1.37687,3.44924 3.60067,6.68027 4.51059,10.32594c0.86596,3.46958 0.5089,6.12821 1.95309,9.4455c2.2579,9.14119 -0.65837,18.6433 -6.0872,26.25386c5.73442,5.07323 10.70459,10.70246 12.91521,18.64917c1.24887,4.48943 0.17019,9.66245 -1.22999,13.95949c-1.70877,5.24413 -4.00729,12.00197 -9.11195,14.94312c-5.79403,3.33835 -13.33021,2.44877 -19.63022,1.80382c-3.72031,-0.38086 -6.52183,-0.65288 -9.90595,-2.33708c-1.12272,-1.12272 -2.44253,-2.07812 -3.36817,-3.36817c-6.14107,-8.55876 -3.07014,-18.0955 3.14698,-25.66558c5.01245,-6.10325 11.82106,-9.60591 17.59364,-14.73517c0.90618,-0.80519 1.79218,-1.67788 2.64481,-2.60802zM281.86901,125.44566c-0.99911,1.09935 -2.05049,2.13992 -3.14321,3.11244c-4.39541,3.91193 -9.46178,6.71783 -13.73278,10.83314c-3.84047,3.70048 -8.39258,8.98623 -9.01476,14.58872c-0.44222,3.98202 2.39877,7.97745 4.97592,10.55459c2.39547,1.20839 4.85028,1.14637 7.4939,1.41953c5.16552,0.53373 11.79698,1.55999 16.60507,-1.15227c3.87487,-2.18583 5.60486,-8.33825 6.87476,-12.17958c1.04512,-3.1614 2.19324,-7.58872 1.19537,-10.9519c-2.06364,-6.95522 -6.30038,-11.8251 -11.25427,-16.22468zM281.95984,66.41758c0.00555,0.0034 0.01109,0.0068 0.01663,0.0102l-0.03048,-0.07274c0.00461,0.02085 0.00923,0.0417 0.01385,0.06255z"/></g></g></svg>