<svg version="1.1" xmlns="http://www.w3.org/2000/svg" xmlns:xlink="http://www.w3.org/1999/xlink" width="153.1541" height="170.15912" viewBox="0,0,153.1541,170.15912"><g transform="translate(-153.66767,-43.53078)"><g data-paper-data="{&quot;isPaintingLayer&quot;:true}" fill="#9966ff" fill-rule="nonzero" stroke="none" stroke-width="0.5" stroke-linecap="butt" stroke-linejoin="miter" stroke-miterlimit="10" stroke-dasharray="" stroke-dashoffset="0" style="mix-blend-mode: normal"><path d="M247.57191,192.01399c-0.23481,2.48895 -2.72376,2.25414 -2.72376,2.25414l-2.60462,-0.24572c-13.27485,-1.25234 -26.72317,-1.98331 -39.93523,-3.77003c-6.29269,-0.85099 -12.56864,-2.34072 -18.81152,-3.50464c-4.62145,-0.86271 -9.27406,-1.3647 -13.30828,-3.96386c-1.89554,-1.22125 -4.48118,-1.88658 -5.545,-3.87475c-0.67501,-1.26151 0.83983,-2.73559 1.27941,-4.09714c1.53375,-4.75068 4.85609,-8.0549 7.97875,-11.83246c3.37133,-4.07839 5.34044,-9.02911 8.26132,-13.41385c5.45199,-8.18436 11.12112,-15.14465 13.75395,-24.72203c3.25052,-6.56459 6.31789,-13.46267 8.78557,-20.3586c1.24744,-3.48595 1.67729,-7.24475 2.78821,-10.76772c2.90399,-9.20917 3.7324,-20.4853 -2.05044,-28.94671c-2.72606,-3.47925 -6.91476,-5.76146 -10.52223,-8.16638c-2.29965,-1.53306 -4.37001,-3.46944 -6.87845,-4.62979c-10.56347,-4.88647 -21.32032,-4.12301 -30.18787,3.61239c0,0 -1.89814,1.62698 -3.52512,-0.27116c-1.62698,-1.89814 0.27116,-3.52512 0.27116,-3.52512c2.58035,-2.18027 5.89665,-4.55412 8.98437,-5.97521c12.03861,-5.54067 24.04174,-0.08131 34.00176,6.55886c4.2063,2.80426 8.65189,5.45282 11.89246,9.44516c2.97514,4.54253 5.30567,11.81788 5.67955,17.31575c0.35759,5.25831 -1.37642,11.27595 -2.92685,16.17846c-1.1245,3.55573 -1.55969,7.32414 -2.81546,10.84644c-2.46833,6.92341 -5.51003,13.90882 -8.82597,20.46815c-2.44908,9.05631 -7.39317,15.69862 -12.68599,23.3428c-2.8336,4.09244 -4.86908,8.59058 -7.56489,12.74847c-2.67566,4.1268 -6.85579,7.29996 -9.05784,11.74606c-0.35164,0.71 -0.31586,1.58855 -0.73661,2.2599c-0.23468,0.37446 -1.46497,0.42711 -1.12216,0.706c0.86463,0.70344 2.16939,0.54889 3.19657,0.98168c3.98708,1.67991 7.45099,2.61022 11.79648,3.41935c6.16843,1.15005 12.37114,2.62901 18.58882,3.4683c13.13792,1.77342 26.51105,2.49849 39.71113,3.74378l2.60462,0.24572c0,0 2.48895,0.23481 2.25414,2.72376z"/><path d="M266.64724,210.50148c0.49029,-2.45145 2.94174,-1.96116 2.94174,-1.96116l0.52622,0.55385c7.06523,-2.99695 9.43882,-10.53063 13.50988,-16.69351c2.11884,-3.20756 4.85242,-5.79083 7.06097,-8.88771c2.68147,-3.76003 2.91499,-7.14022 4.48133,-11.39925c0.54179,-1.47318 1.09344,-2.97533 1.97161,-4.27634c0.45628,-0.67598 1.44297,-0.84964 1.92998,-1.50383c0.93271,-1.25291 0.80179,-3.02016 1.26342,-4.51235c1.53119,-4.94953 1.49082,-10.11334 1.48937,-15.27163c0.01105,-6.64456 -0.85786,-13.0876 -3.47743,-19.21369c-1.40005,-3.27413 -2.49648,-6.75418 -5.77677,-8.70015c-4.91277,-2.91439 -11.6172,-3.9431 -17.2419,-4.41528c-1.06789,-0.08965 -6.64212,0.06926 -7.41296,0.19979c-2.88349,0.48826 -7.15984,3.333 -9.66469,-0.66506c-1.1188,-1.78575 -0.69497,-4.15907 -0.92629,-6.25362c-0.52411,-4.74563 -0.30172,-9.53697 -0.51919,-14.29968c-0.45024,-9.9117 -0.21085,-19.51576 0.19185,-29.40945c0.14497,-3.56161 -1.43236,-7.34762 -0.19857,-10.69184c1.64755,-4.46574 8.60307,-3.17072 12.06532,-3.50161c9.53397,-0.91115 18.7917,-3.60383 28.24517,-5.18071c0,0 2.46598,-0.411 2.87698,2.05499c0.411,2.46598 -2.05499,2.87698 -2.05499,2.87698c-8.1777,1.3618 -16.3366,3.90189 -24.54755,4.8215c-0.92508,0.10361 -7.86963,0.788 -8.57167,0.81362c-1.13987,0.0416 -3.44068,-1.04844 -3.42064,0.09201c0.02202,1.25292 0.51736,2.46059 0.60178,3.71086c0.43424,6.43065 -0.9046,12.85582 -0.79853,19.2877c0.08158,4.94672 0.38013,9.95108 0.60566,14.89867c0.26429,5.82725 -0.35068,12.08611 0.49621,17.84231c0.0272,0.18487 0.38028,0.06585 0.56036,0.01597c1.42819,-0.39553 2.77876,-1.08402 4.23759,-1.34475c1.55915,-0.27866 3.16127,-0.21353 4.74443,-0.26056c6.06654,-0.18019 13.17167,0.79326 18.91282,2.94508c13.2907,4.98144 16.05384,21.87705 16.07299,34.3769c-0.00154,5.67935 -0.04277,11.29457 -1.71273,16.74935c-0.34769,1.13571 -1.31844,4.969 -1.93868,5.89447c-0.49726,0.74196 -1.55366,0.97133 -2.07264,1.69827c-0.61522,0.86172 -0.89264,1.92493 -1.23049,2.92838c-1.58993,4.72237 -2.19233,8.42534 -5.12496,12.61648c-2.13654,3.05341 -4.87384,5.57933 -6.94427,8.71858c-3.1823,4.8251 -5.58071,10.99906 -9.67092,15.14516c-1.73344,1.75713 -3.86473,2.44817 -6.04227,3.38965l-3.4764,-0.24667c0,0 -2.45145,-0.49029 -1.96116,-2.94174z"/></g></g></svg>