<svg version="1.1" xmlns="http://www.w3.org/2000/svg" xmlns:xlink="http://www.w3.org/1999/xlink" width="73.3318" height="140.62544" viewBox="0,0,73.3318,140.62544"><g transform="translate(-185.51949,-58.16937)"><g data-paper-data="{&quot;isPaintingLayer&quot;:true}" fill="#9966ff" fill-rule="nonzero" stroke="none" stroke-width="0.5" stroke-linecap="butt" stroke-linejoin="miter" stroke-miterlimit="10" stroke-dasharray="" stroke-dashoffset="0" style="mix-blend-mode: normal"><path d="M258.75397,178.15703c0.60634,2.42536 -1.81902,3.0317 -1.81902,3.0317l-2.42146,0.56983c-5.9882,3.87827 -14.293,3.9023 -21.18464,4.42049c-2.87688,0.21632 -5.67171,1.06366 -8.51956,1.52511c-2.97368,0.48183 -6.05809,0.75898 -9.0937,1.20031c-6.13561,2.65448 -12.1269,5.59946 -18.42084,7.9058l-4.58483,1.7922c-0.29648,0.12391 -0.62191,0.19235 -0.96333,0.19235c-1.38071,0 -2.5,-1.11929 -2.5,-2.5c0,-0.82222 0.39693,-1.55173 1.00962,-2.00737l3.95875,-3.00832l0.02582,0.03398c0.07253,-0.06734 0.14606,-0.13374 0.22065,-0.19916c0.04505,-0.03951 9.32233,-4.10257 9.50286,-4.17418c3.19427,-1.26686 6.44331,-2.02879 9.73386,-2.60785c1.22858,-0.53311 2.46283,-1.0547 3.7064,-1.55715c7.44324,-3.00734 15.16844,-5.18716 22.53683,-8.4009c3.09771,-1.35107 6.01914,-3.11126 9.18726,-4.28782c0.59942,-0.22261 1.40908,0.26553 1.91409,-0.12668c0.93611,-0.727 -0.00988,-2.3705 -0.00988,-3.55576c-1.8496,-7.20067 -1.59854,-14.55152 -2.12298,-21.93597c-0.95083,-13.38828 -2.23339,-26.7032 -3.02277,-40.08943c-0.44736,-7.58641 -2.72469,-14.95092 -3.31016,-22.53755c-0.24443,-3.16742 -0.00297,-6.35368 0.00223,-9.53052c0.54358,-3.26146 0.37247,-6.47746 1.56692,-9.44664c0.35735,-0.8883 -1.82279,0.59016 -2.74871,0.83398c-0.91599,0.2412 -1.83772,0.46004 -2.75662,0.68988c-4.90439,1.22674 -9.70464,2.51783 -14.45973,4.2564c-11.71213,4.28221 -24.7554,9.21326 -34.54207,17.08272c0,0 -1.95217,1.56174 -3.51391,-0.39043c-1.56174,-1.95217 0.39043,-3.51391 0.39043,-3.51391c5.28835,-4.21119 11.24877,-7.06896 17.33448,-9.98154c9.00716,-4.31076 18.13203,-8.21536 27.78945,-10.85219c4.45744,-1.21704 14.34373,-5.72464 17.17028,0.07211c0.59306,1.21626 -0.4555,2.67189 -0.55416,4.02144c-0.18646,2.55052 -0.27299,5.11806 -0.69341,7.64059c0.00519,2.92122 -0.22485,5.85129 0.00223,8.76367c0.59307,7.60648 2.854,14.98217 3.31385,22.59395c0.80718,13.36083 2.06892,26.65875 3.01842,40.02389c0.52048,7.32626 0.35203,14.53353 2.09875,21.68863c0,2.31403 0.35914,5.77873 -1.41712,7.70221c-0.88861,0.96226 -2.51153,0.76335 -3.71489,1.28057c-3.01789,1.29714 -5.91228,2.86871 -8.92337,4.18157c-1.59847,0.69694 -3.21338,1.3458 -4.83839,1.96524c5.34692,-0.34274 11.04224,-0.88083 15.41314,-3.74685l3.20752,-0.83742c0,0 2.42536,-0.60634 3.0317,1.81902z"/></g></g></svg>