<svg version="1.1" xmlns="http://www.w3.org/2000/svg" xmlns:xlink="http://www.w3.org/1999/xlink" width="173.59686" height="144.55718" viewBox="0,0,173.59686,144.55718"><g transform="translate(-163.69825,-35.71282)"><g data-paper-data="{&quot;isPaintingLayer&quot;:true}" fill="#9966ff" fill-rule="nonzero" stroke="none" stroke-width="0.5" stroke-linecap="butt" stroke-linejoin="miter" stroke-miterlimit="10" stroke-dasharray="" stroke-dashoffset="0" style="mix-blend-mode: normal"><path d="M237.97667,177.77c0,2.5 -2.5,2.5 -2.5,2.5l-1.87713,-0.01529c-8.28664,-0.97123 -17.18947,-0.44793 -25.60816,-0.66105c-3.77197,-0.09549 -9.21529,0.0124 -12.87465,-1.11331c-0.03396,-0.01045 -0.06788,-0.021 -0.10176,-0.03166l-0.00249,0.01163l-4.84184,-1.03754c-1.15273,-0.22253 -2.02335,-1.2369 -2.02335,-2.45461c0,-0.88153 0.45626,-1.6565 1.14551,-2.10163l2.21389,-1.47593c2.55896,-2.58525 4.6969,-5.64195 7.75368,-7.7041c2.35868,-1.59119 5.02216,-2.70142 7.35945,-4.32386c5.32816,-3.68602 10.53249,-7.17978 14.51688,-12.42133c2.89659,-3.81052 5.13374,-8.5187 7.61222,-12.61662c8.11602,-13.41906 16.35476,-30.65736 12.28969,-46.85528c-1.15925,-4.61921 -3.70694,-8.47931 -6.5041,-12.21811c-3.8341,-5.1599 -8.36027,-9.70665 -12.90031,-14.25799c-2.88854,-2.89573 -5.65447,-5.70365 -9.70899,-6.91687c-3.40237,-1.01808 -6.69253,-0.67642 -10.16562,-0.51893c-6.2368,0.28281 -12.16842,1.19443 -18.31682,2.19865c-5.62071,0.91803 -10.97396,1.28586 -16.4209,3.10609c0,0 -2.37171,0.79057 -3.16228,-1.58114c-0.79057,-2.37171 1.58114,-3.16228 1.58114,-3.16228c5.70984,-1.89884 11.31559,-2.33464 17.20113,-3.29811c9.53585,-1.56102 21.19092,-4.39779 30.75637,-1.52238c4.86922,1.4637 8.281,4.67705 11.77152,8.15944c4.72413,4.71312 9.38258,9.46013 13.37454,14.80658c3.18215,4.28876 6.02038,8.71138 7.34402,13.98828c4.40589,17.56467 -4.02428,36.04118 -12.86072,50.65914c-4.46741,7.39035 -8.47095,14.98876 -15.13208,20.71355c-0.13087,0.11248 -8.15715,5.65976 -8.43104,5.84925c-2.36134,1.62849 -5.02036,2.7873 -7.41714,4.36317c-2.28729,1.50388 -4.15641,3.89349 -6.04579,6.00699l-0.01171,0.05465c3.93332,-0.4017 8.16309,0.59803 12.12652,0.69583c8.59083,0.21199 17.55817,-0.2085 26.03535,0.69007l1.32497,-0.01529c0,0 2.5,0 2.5,2.5z"/><path d="M304.40453,169.59925c-2.23607,-1.11803 -1.11803,-3.3541 -1.11803,-3.3541l0.45094,-0.8966c1.33403,-2.39361 2.97262,-4.60429 4.46165,-6.90468c2.09192,-3.23178 3.05978,-7.16482 4.69744,-10.61196c2.13475,-4.49347 4.47109,-8.61717 6.2656,-13.28262c4.78116,-16.77721 13.08802,-33.04247 13.07958,-50.84748c-0.00234,-4.94301 -0.05213,-9.43396 -0.65161,-13.97118c-1.48043,3.38415 -3.60493,6.53423 -4.93525,10.10614c-0.76183,1.77864 -1.8162,3.45475 -2.30856,5.32598c-1.87946,7.14298 -1.20091,16.31817 -9.30867,19.99849c-7.42869,3.37207 -16.31831,-1.15269 -22.19804,-5.42565c-3.58215,-2.60325 -6.64346,-4.39874 -9.07462,-8.33847c-3.39066,-5.49462 -4.34265,-11.72658 -4.34884,-18.00394c0.20508,-6.236 -0.08777,-13.77895 2.62125,-19.54833c2.49181,-5.3068 7.49216,-12.15055 12.80446,-14.82162c2.6146,-1.31464 5.65793,-1.50112 8.50529,-2.17709c4.53441,-1.07648 8.30098,-1.72759 12.91849,-0.35619c5.88751,1.74858 9.94557,6.34538 13.92174,10.71392c0,0 0.96221,1.05843 0.63034,2.30189c0.12539,0.10278 0.24513,0.21356 0.3584,0.33352c1.31557,1.39324 1.39044,3.57271 2.00305,5.38835c2.00538,5.94348 3.89217,12.07704 4.06121,18.39235c0.29398,10.98297 -0.56785,21.54741 -3.26989,32.24132c-2.59853,10.28427 -7.14133,20.0605 -10.0665,30.2738c-1.86549,4.85054 -4.26454,9.15696 -6.48311,13.82525c-1.72667,3.63324 -2.78384,7.69242 -4.96853,11.11216c-1.4336,2.24404 -3.05434,4.37457 -4.34412,6.70424l-0.34959,0.70445c0,0 -1.11803,2.23607 -3.3541,1.11803zM314.79261,41.26805c-3.68295,-1.11953 -6.67554,-0.42048 -10.29672,0.44433c-2.50425,0.59807 -5.19876,0.68128 -7.5052,1.82553c-4.2577,2.11229 -8.4098,8.21823 -10.41075,12.39621c-2.41015,5.03239 -1.98816,12.09827 -2.16455,17.5449c-0.02566,5.38643 0.77671,10.6064 3.63906,15.34898c2.70668,4.48466 8.98035,8.39259 13.65055,10.59312c2.97236,1.40053 8.01302,2.73281 11.11351,1.25954c6.26675,-2.97779 5.21087,-11.29627 6.70182,-16.82564c0.06033,-0.22374 2.31438,-5.46112 2.49459,-5.88136c2.03452,-5.39143 6.54987,-10.05764 6.22693,-16.16188c-0.15573,-2.94356 -1.99885,-6.00492 -3.11203,-8.64888l0.04585,-0.33768l-0.11358,0.01623l-0.39418,-2.75926c-0.02054,-0.12902 -0.03121,-0.26133 -0.03121,-0.39613c0,-0.33921 0.06756,-0.66264 0.18995,-0.95757c-2.83957,-3.1236 -5.89143,-6.20119 -10.03406,-7.46046z"/></g></g></svg>