<svg version="1.1" xmlns="http://www.w3.org/2000/svg" xmlns:xlink="http://www.w3.org/1999/xlink" width="107.51666" height="142.68906" viewBox="0,0,107.51666,142.68906"><g transform="translate(-216.16745,-128.44048)"><g data-paper-data="{&quot;isPaintingLayer&quot;:true}" fill="#9966ff" fill-rule="nonzero" stroke="none" stroke-width="0.5" stroke-linecap="butt" stroke-linejoin="miter" stroke-miterlimit="10" stroke-dasharray="" stroke-dashoffset="0" style="mix-blend-mode: normal"><path d="M233.57104,266.46585c0.60913,0.32005 1.20353,0.94467 1.20353,2.16368c0,2.5 -2.5,2.5 -2.5,2.5l-2.59225,-1.29784c-3.59409,-6.75372 -2.64263,-15.6328 -2.98533,-23.12271c-0.36931,-8.07169 -0.60937,-16.15607 -1.7025,-24.17106c-0.82858,-6.07523 -1.97335,-11.95642 -2.41045,-18.08461c-0.94556,-6.68441 -1.16175,-13.52609 -1.81962,-20.2727c-0.70702,-7.25076 -2.04747,-14.54141 -2.97899,-21.71538c-1.01149,-7.78986 1.1473,-15.99661 -1.49149,-23.53062c0,0 -0.79057,-2.37171 1.58114,-3.16228c2.37171,-0.79057 3.16228,1.58114 3.16228,1.58114c2.57457,8.01686 0.58748,16.31438 1.71061,24.50085c0.98835,7.20404 2.27379,14.55251 2.99257,21.83816c0.66377,6.72806 0.85346,13.56626 1.81512,20.22884c0.43497,6.08094 1.57031,11.90965 2.3927,17.93899c1.11369,8.16498 1.3671,16.3975 1.74341,24.62012c0.27701,6.05281 -0.75734,14.2912 1.87927,19.98543z"/><path d="M323.33867,251.7942c-1.17647,2.20588 -3.38235,1.02941 -3.38235,1.02941l-1.59217,-0.84916c-1.65902,-0.92182 -3.57301,-1.48845 -4.97707,-2.76545c-3.2126,-2.92185 -2.41492,-7.13721 -3.1045,-10.87679c-0.31351,-1.70014 -1.35383,-3.21802 -1.62406,-4.92558c-0.32094,-2.02801 -0.16162,-4.10844 -0.4191,-6.14548c-1.48064,-17.83713 -1.24719,-35.77918 -1.70095,-53.66975c-1.22411,2.05645 -2.95808,4.32522 -4.37325,5.86443c-10.13049,11.01843 -23.84053,0.30119 -31.01808,-8.53214c-2.03102,-2.49955 -3.1316,-4.68125 -4.80525,-7.52903c-1.2466,-8.16939 -3.55489,-14.5013 0.99481,-22.10257c3.93838,-6.57993 10.29286,-12.44247 18.45549,-12.85002c1.08628,-0.05424 6.5201,1.2807 7.98479,1.68767c1.41717,0.39377 6.53952,1.87118 7.89565,2.71025c3.36621,2.08275 5.2154,6.08424 6.88654,9.38941c0,0 0.70545,1.4109 -0.12512,2.5516l0.92564,1.85128l-0.06027,0.03014c0.08061,0.13156 0.15703,0.26607 0.2288,0.40385c0.73501,1.41115 0.25408,3.17383 0.47283,4.74982c1.0162,7.32093 0.89091,14.45316 1.22105,21.83799c0.78982,17.6673 0.51503,35.45758 1.99044,53.08926c0.24038,1.94345 0.09432,3.92528 0.38142,5.86238c0.2414,1.62873 1.27045,3.06318 1.57804,4.68072c0.3174,1.66915 -0.15404,6.89184 1.69865,8.3358c1.13268,0.88279 2.5643,1.29362 3.84646,1.94044l1.59217,0.84916c0,0 2.20588,1.17647 1.02941,3.38235zM298.96569,137.04388c-0.66284,-0.40462 -6.4293,-2.06944 -6.51379,-2.0929c-0.45334,-0.12589 -6.06869,-1.53226 -6.42465,-1.51443c-6.44861,0.32307 -11.28373,5.24271 -14.36601,10.36519c-3.74445,6.22294 -1.46657,11.17247 -0.60624,17.92366c3.9033,6.3355 8.23661,11.19653 14.54318,15.10363c3.77028,2.33579 7.15938,3.63101 11.31809,0.87212c2.38262,-1.58064 4.70644,-5.42557 5.98454,-7.88233c2.4931,-4.79221 0.92228,-12.1379 0.92228,-17.26534c0.02179,-1.62119 -0.25553,-3.26482 -0.76824,-4.80295l0.13454,-0.40046h-0.16682v-2.80184c0,-0.51844 0.15781,-1.00002 0.42801,-1.39932c-1.06273,-2.19965 -2.43079,-4.85113 -4.48488,-6.10504z"/></g></g></svg>