<svg version="1.1" xmlns="http://www.w3.org/2000/svg" xmlns:xlink="http://www.w3.org/1999/xlink" width="161.93506" height="113.29274" viewBox="0,0,161.93506,113.29274"><g transform="translate(-145.71735,-49.5906)"><g data-paper-data="{&quot;isPaintingLayer&quot;:true}" fill="#9966ff" fill-rule="nonzero" stroke="none" stroke-width="0.5" stroke-linecap="butt" stroke-linejoin="miter" stroke-miterlimit="10" stroke-dasharray="" stroke-dashoffset="0" style="mix-blend-mode: normal"><path d="M210.4949,161.2765c-1.11803,2.23607 -3.3541,1.11803 -3.3541,1.11803l0.31751,-0.13633c-9.74775,-0.0179 -19.65838,1.09617 -29.43474,0.39095c-5.98685,-0.43186 -11.88125,-2.39698 -17.63281,-3.9666c-3.02094,-0.82442 -5.743,-1.47489 -8.47764,-2.36506l-0.04456,0.31192l-2.76545,-0.39506c-1.23096,-0.15585 -2.18283,-1.2068 -2.18283,-2.48007c0,-0.79812 0.374,-1.50888 0.9563,-1.9666l1.98328,-1.58662c6.82418,-5.45909 14.70307,-9.37389 21.56669,-14.68466c5.03128,-3.89299 8.49926,-9.40021 11.40132,-14.94087c2.32804,-4.44472 3.37658,-6.72439 3.21347,-11.76267c-0.41456,-7.10671 -1.1266,-14.70835 -3.36307,-21.49328c-1.37155,-4.16096 -3.47971,-8.23071 -5.2115,-12.25087c-2.95544,-6.86073 -4.82334,-13.43726 -11.33333,-17.64271c-5.10444,-3.29746 -12.33141,-2.48516 -18.06988,-2.8432c0,0 -2.49513,-0.15595 -2.33919,-2.65108c0.15595,-2.49513 2.65108,-2.33919 2.65108,-2.33919c6.72778,0.42122 14.38961,-0.25662 20.3553,3.561c7.55635,4.83553 9.91559,12.01522 13.32807,19.93704c1.7818,4.13631 3.94599,8.32646 5.35017,12.61028c2.37945,7.25917 3.1779,15.31352 3.62835,22.91202c0.0228,1.8479 0.3759,3.72142 0.06841,5.5437c-0.32297,1.91401 -2.9344,6.99336 -3.84636,8.7345c-3.24394,6.1934 -7.16653,12.21683 -12.76723,16.57528c-5.86837,4.56676 -12.51267,8.07736 -18.5819,12.42789c3.31488,0.63508 7.06107,2.30109 9.78371,3.05205c4.11459,1.13489 8.47343,2.41885 12.76079,2.72151c9.63176,0.67994 19.39783,-0.39359 29.00355,-0.40958l1.91856,0.66419c0,0 2.23607,1.11803 1.11803,3.3541z"/><path d="M261.62363,138.7599c0.37373,0.70337 0.77215,1.3947 1.19619,2.07244c1.18317,1.89103 2.60814,3.61964 3.89404,5.44237c0.44394,0.62928 0.57466,1.52679 1.20254,1.97271c1.18287,0.84008 2.71021,1.05234 3.99793,1.72068c3.76439,1.95374 5.73186,2.70034 10.0887,2.88907c2.49195,0.10795 5.02297,0.92016 7.47008,0.43731c3.10943,-0.61354 6.52437,-2.35082 9.4307,-3.60229c6.85884,-6.99377 4.26947,-20.39193 -5.09464,-24.0279c-4.26656,-1.65666 -8.87997,-1.76203 -13.36529,-2.24532c-2.8852,-0.31088 -3.01424,-0.66168 -5.56739,-0.05307c-4.30344,1.02584 -7.92914,3.9291 -11.31521,6.63442c-2.04952,2.03559 -4.10048,3.67079 -2.89796,6.55264l0.50894,0.60461c0,0 0.48261,0.72392 0.45136,1.60235zM257.97992,128.62011c0.7353,-0.83644 1.52006,-1.61498 2.24675,-2.34545c4.02852,-3.22628 8.35368,-6.61534 13.50105,-7.77502c3.46746,-0.78121 3.57821,-0.43018 7.241,-0.05307c4.89855,0.50435 10.02152,0.66394 14.65306,2.55783c13.33709,5.45369 15.89714,23.13189 6.11271,32.80934c-3.44454,1.56674 -7.62032,3.70648 -11.38293,4.40296c-1.75674,0.32518 -7.24165,-0.30358 -8.54041,-0.36322c-5.03114,-0.23102 -7.96548,-1.1677 -12.32598,-3.51513c-1.56201,-0.84089 -3.38935,-1.21665 -4.80784,-2.28194c-1.6061,-1.20619 -2.43438,-3.1964 -3.60061,-4.83175c-2.03967,-2.86015 -3.7203,-5.84372 -5.06229,-8.93505l-0.09452,-0.15552c-0.02352,-0.08082 -0.04894,-0.16139 -0.07584,-0.24176c-2.87584,-6.7907 -4.13149,-14.09515 -3.9815,-21.74904c0.71182,-14.65326 4.8539,-29.30663 12.72203,-41.77703c2.48262,-3.93477 4.8008,-8.39767 8.51094,-11.38543c6.18171,-4.97811 12.67163,-6.63001 20.21308,-8.51538c0,0 2.42536,-0.60634 3.0317,1.81902c0.60634,2.42536 -1.81902,3.0317 -1.81902,3.0317c-3.97158,0.9929 -8.49098,1.7403 -12.26294,3.40596c-6.43567,2.84193 -9.89232,8.69284 -13.44871,14.31788c-7.39843,11.7019 -11.29765,25.51707 -11.95002,39.27465c-0.08859,4.08717 0.24124,8.26216 1.12029,12.30546z"/></g></g></svg>